G04 #@! TF.GenerationSoftware,KiCad,Pcbnew,(5.1.5)-3*
G04 #@! TF.CreationDate,2020-04-26T13:57:47+03:00*
G04 #@! TF.ProjectId,livecam,6c697665-6361-46d2-9e6b-696361645f70,rev?*
G04 #@! TF.SameCoordinates,Original*
G04 #@! TF.FileFunction,Legend,Bot*
G04 #@! TF.FilePolarity,Positive*
%FSLAX46Y46*%
G04 Gerber Fmt 4.6, Leading zero omitted, Abs format (unit mm)*
G04 Created by KiCad (PCBNEW (5.1.5)-3) date 2020-04-26 13:57:47*
%MOMM*%
%LPD*%
G04 APERTURE LIST*
%ADD10C,0.150000*%
%ADD11C,0.120000*%
G04 APERTURE END LIST*
D10*
X138338571Y-43022380D02*
X138814761Y-43022380D01*
X138814761Y-42022380D01*
X138005238Y-43022380D02*
X138005238Y-42355714D01*
X138005238Y-42022380D02*
X138052857Y-42070000D01*
X138005238Y-42117619D01*
X137957619Y-42070000D01*
X138005238Y-42022380D01*
X138005238Y-42117619D01*
X137624285Y-42355714D02*
X137386190Y-43022380D01*
X137148095Y-42355714D01*
X136386190Y-42974761D02*
X136481428Y-43022380D01*
X136671904Y-43022380D01*
X136767142Y-42974761D01*
X136814761Y-42879523D01*
X136814761Y-42498571D01*
X136767142Y-42403333D01*
X136671904Y-42355714D01*
X136481428Y-42355714D01*
X136386190Y-42403333D01*
X136338571Y-42498571D01*
X136338571Y-42593809D01*
X136814761Y-42689047D01*
X135338571Y-42927142D02*
X135386190Y-42974761D01*
X135529047Y-43022380D01*
X135624285Y-43022380D01*
X135767142Y-42974761D01*
X135862380Y-42879523D01*
X135910000Y-42784285D01*
X135957619Y-42593809D01*
X135957619Y-42450952D01*
X135910000Y-42260476D01*
X135862380Y-42165238D01*
X135767142Y-42070000D01*
X135624285Y-42022380D01*
X135529047Y-42022380D01*
X135386190Y-42070000D01*
X135338571Y-42117619D01*
X134481428Y-43022380D02*
X134481428Y-42498571D01*
X134529047Y-42403333D01*
X134624285Y-42355714D01*
X134814761Y-42355714D01*
X134910000Y-42403333D01*
X134481428Y-42974761D02*
X134576666Y-43022380D01*
X134814761Y-43022380D01*
X134910000Y-42974761D01*
X134957619Y-42879523D01*
X134957619Y-42784285D01*
X134910000Y-42689047D01*
X134814761Y-42641428D01*
X134576666Y-42641428D01*
X134481428Y-42593809D01*
X134005238Y-43022380D02*
X134005238Y-42355714D01*
X134005238Y-42450952D02*
X133957619Y-42403333D01*
X133862380Y-42355714D01*
X133719523Y-42355714D01*
X133624285Y-42403333D01*
X133576666Y-42498571D01*
X133576666Y-43022380D01*
X133576666Y-42498571D02*
X133529047Y-42403333D01*
X133433809Y-42355714D01*
X133290952Y-42355714D01*
X133195714Y-42403333D01*
X133148095Y-42498571D01*
X133148095Y-43022380D01*
X131386190Y-43022380D02*
X131957619Y-43022380D01*
X131671904Y-43022380D02*
X131671904Y-42022380D01*
X131767142Y-42165238D01*
X131862380Y-42260476D01*
X131957619Y-42308095D01*
X130957619Y-42927142D02*
X130910000Y-42974761D01*
X130957619Y-43022380D01*
X131005238Y-42974761D01*
X130957619Y-42927142D01*
X130957619Y-43022380D01*
X130290952Y-42022380D02*
X130195714Y-42022380D01*
X130100476Y-42070000D01*
X130052857Y-42117619D01*
X130005238Y-42212857D01*
X129957619Y-42403333D01*
X129957619Y-42641428D01*
X130005238Y-42831904D01*
X130052857Y-42927142D01*
X130100476Y-42974761D01*
X130195714Y-43022380D01*
X130290952Y-43022380D01*
X130386190Y-42974761D01*
X130433809Y-42927142D01*
X130481428Y-42831904D01*
X130529047Y-42641428D01*
X130529047Y-42403333D01*
X130481428Y-42212857D01*
X130433809Y-42117619D01*
X130386190Y-42070000D01*
X130290952Y-42022380D01*
X149033809Y-66305714D02*
X149271904Y-66305714D01*
X149271904Y-64877142D01*
X149033809Y-64877142D01*
X148510000Y-65972380D02*
X148605238Y-65924761D01*
X148652857Y-65877142D01*
X148700476Y-65781904D01*
X148700476Y-65496190D01*
X148652857Y-65400952D01*
X148605238Y-65353333D01*
X148510000Y-65305714D01*
X148367142Y-65305714D01*
X148271904Y-65353333D01*
X148224285Y-65400952D01*
X148176666Y-65496190D01*
X148176666Y-65781904D01*
X148224285Y-65877142D01*
X148271904Y-65924761D01*
X148367142Y-65972380D01*
X148510000Y-65972380D01*
X147748095Y-65305714D02*
X147748095Y-66305714D01*
X147748095Y-65353333D02*
X147652857Y-65305714D01*
X147462380Y-65305714D01*
X147367142Y-65353333D01*
X147319523Y-65400952D01*
X147271904Y-65496190D01*
X147271904Y-65781904D01*
X147319523Y-65877142D01*
X147367142Y-65924761D01*
X147462380Y-65972380D01*
X147652857Y-65972380D01*
X147748095Y-65924761D01*
X146986190Y-65305714D02*
X146605238Y-65305714D01*
X146843333Y-64972380D02*
X146843333Y-65829523D01*
X146795714Y-65924761D01*
X146700476Y-65972380D01*
X146605238Y-65972380D01*
X146271904Y-65972380D02*
X146271904Y-65305714D01*
X146271904Y-64972380D02*
X146319523Y-65020000D01*
X146271904Y-65067619D01*
X146224285Y-65020000D01*
X146271904Y-64972380D01*
X146271904Y-65067619D01*
X145652857Y-65972380D02*
X145748095Y-65924761D01*
X145795714Y-65877142D01*
X145843333Y-65781904D01*
X145843333Y-65496190D01*
X145795714Y-65400952D01*
X145748095Y-65353333D01*
X145652857Y-65305714D01*
X145510000Y-65305714D01*
X145414761Y-65353333D01*
X145367142Y-65400952D01*
X145319523Y-65496190D01*
X145319523Y-65781904D01*
X145367142Y-65877142D01*
X145414761Y-65924761D01*
X145510000Y-65972380D01*
X145652857Y-65972380D01*
X144890952Y-65305714D02*
X144890952Y-65972380D01*
X144890952Y-65400952D02*
X144843333Y-65353333D01*
X144748095Y-65305714D01*
X144605238Y-65305714D01*
X144510000Y-65353333D01*
X144462380Y-65448571D01*
X144462380Y-65972380D01*
X143557619Y-65972380D02*
X143557619Y-65448571D01*
X143605238Y-65353333D01*
X143700476Y-65305714D01*
X143890952Y-65305714D01*
X143986190Y-65353333D01*
X143557619Y-65924761D02*
X143652857Y-65972380D01*
X143890952Y-65972380D01*
X143986190Y-65924761D01*
X144033809Y-65829523D01*
X144033809Y-65734285D01*
X143986190Y-65639047D01*
X143890952Y-65591428D01*
X143652857Y-65591428D01*
X143557619Y-65543809D01*
X142938571Y-65972380D02*
X143033809Y-65924761D01*
X143081428Y-65829523D01*
X143081428Y-64972380D01*
X141938571Y-65305714D02*
X141557619Y-65305714D01*
X141795714Y-65972380D02*
X141795714Y-65115238D01*
X141748095Y-65020000D01*
X141652857Y-64972380D01*
X141557619Y-64972380D01*
X141081428Y-65972380D02*
X141176666Y-65924761D01*
X141224285Y-65877142D01*
X141271904Y-65781904D01*
X141271904Y-65496190D01*
X141224285Y-65400952D01*
X141176666Y-65353333D01*
X141081428Y-65305714D01*
X140938571Y-65305714D01*
X140843333Y-65353333D01*
X140795714Y-65400952D01*
X140748095Y-65496190D01*
X140748095Y-65781904D01*
X140795714Y-65877142D01*
X140843333Y-65924761D01*
X140938571Y-65972380D01*
X141081428Y-65972380D01*
X140319523Y-65972380D02*
X140319523Y-65305714D01*
X140319523Y-65496190D02*
X140271904Y-65400952D01*
X140224285Y-65353333D01*
X140129047Y-65305714D01*
X140033809Y-65305714D01*
X138176666Y-65305714D02*
X138938571Y-65591428D01*
X138176666Y-65877142D01*
X137224285Y-64972380D02*
X137700476Y-64972380D01*
X137748095Y-65448571D01*
X137700476Y-65400952D01*
X137605238Y-65353333D01*
X137367142Y-65353333D01*
X137271904Y-65400952D01*
X137224285Y-65448571D01*
X137176666Y-65543809D01*
X137176666Y-65781904D01*
X137224285Y-65877142D01*
X137271904Y-65924761D01*
X137367142Y-65972380D01*
X137605238Y-65972380D01*
X137700476Y-65924761D01*
X137748095Y-65877142D01*
X136890952Y-64972380D02*
X136557619Y-65972380D01*
X136224285Y-64972380D01*
X135986190Y-66305714D02*
X135748095Y-66305714D01*
X135748095Y-64877142D01*
X135986190Y-64877142D01*
X171489047Y-42804761D02*
X171584285Y-42852380D01*
X171774761Y-42852380D01*
X171870000Y-42804761D01*
X171917619Y-42757142D01*
X171965238Y-42661904D01*
X171965238Y-42376190D01*
X171917619Y-42280952D01*
X171870000Y-42233333D01*
X171774761Y-42185714D01*
X171584285Y-42185714D01*
X171489047Y-42233333D01*
X171060476Y-42852380D02*
X171060476Y-42185714D01*
X171060476Y-41852380D02*
X171108095Y-41900000D01*
X171060476Y-41947619D01*
X171012857Y-41900000D01*
X171060476Y-41852380D01*
X171060476Y-41947619D01*
X170584285Y-42852380D02*
X170584285Y-42185714D01*
X170584285Y-42376190D02*
X170536666Y-42280952D01*
X170489047Y-42233333D01*
X170393809Y-42185714D01*
X170298571Y-42185714D01*
X169536666Y-42804761D02*
X169631904Y-42852380D01*
X169822380Y-42852380D01*
X169917619Y-42804761D01*
X169965238Y-42757142D01*
X170012857Y-42661904D01*
X170012857Y-42376190D01*
X169965238Y-42280952D01*
X169917619Y-42233333D01*
X169822380Y-42185714D01*
X169631904Y-42185714D01*
X169536666Y-42233333D01*
X168679523Y-42185714D02*
X168679523Y-42852380D01*
X169108095Y-42185714D02*
X169108095Y-42709523D01*
X169060476Y-42804761D01*
X168965238Y-42852380D01*
X168822380Y-42852380D01*
X168727142Y-42804761D01*
X168679523Y-42757142D01*
X168203333Y-42852380D02*
X168203333Y-42185714D01*
X168203333Y-41852380D02*
X168250952Y-41900000D01*
X168203333Y-41947619D01*
X168155714Y-41900000D01*
X168203333Y-41852380D01*
X168203333Y-41947619D01*
X167870000Y-42185714D02*
X167489047Y-42185714D01*
X167727142Y-41852380D02*
X167727142Y-42709523D01*
X167679523Y-42804761D01*
X167584285Y-42852380D01*
X167489047Y-42852380D01*
X167155714Y-42185714D02*
X167155714Y-43042857D01*
X167203333Y-43138095D01*
X167298571Y-43185714D01*
X167346190Y-43185714D01*
X167155714Y-41852380D02*
X167203333Y-41900000D01*
X167155714Y-41947619D01*
X167108095Y-41900000D01*
X167155714Y-41852380D01*
X167155714Y-41947619D01*
X166536666Y-42852380D02*
X166631904Y-42804761D01*
X166679523Y-42757142D01*
X166727142Y-42661904D01*
X166727142Y-42376190D01*
X166679523Y-42280952D01*
X166631904Y-42233333D01*
X166536666Y-42185714D01*
X166393809Y-42185714D01*
X166298571Y-42233333D01*
X166250952Y-42280952D01*
X166203333Y-42376190D01*
X166203333Y-42661904D01*
X166250952Y-42757142D01*
X166298571Y-42804761D01*
X166393809Y-42852380D01*
X166536666Y-42852380D01*
X165346190Y-42185714D02*
X165346190Y-42852380D01*
X165774761Y-42185714D02*
X165774761Y-42709523D01*
X165727142Y-42804761D01*
X165631904Y-42852380D01*
X165489047Y-42852380D01*
X165393809Y-42804761D01*
X165346190Y-42757142D01*
X164870000Y-42852380D02*
X164870000Y-42185714D01*
X164870000Y-42376190D02*
X164822380Y-42280952D01*
X164774761Y-42233333D01*
X164679523Y-42185714D01*
X164584285Y-42185714D01*
X164250952Y-42185714D02*
X164250952Y-42852380D01*
X164250952Y-42280952D02*
X164203333Y-42233333D01*
X164108095Y-42185714D01*
X163965238Y-42185714D01*
X163870000Y-42233333D01*
X163822380Y-42328571D01*
X163822380Y-42852380D01*
X162917619Y-42852380D02*
X162917619Y-42328571D01*
X162965238Y-42233333D01*
X163060476Y-42185714D01*
X163250952Y-42185714D01*
X163346190Y-42233333D01*
X162917619Y-42804761D02*
X163012857Y-42852380D01*
X163250952Y-42852380D01*
X163346190Y-42804761D01*
X163393809Y-42709523D01*
X163393809Y-42614285D01*
X163346190Y-42519047D01*
X163250952Y-42471428D01*
X163012857Y-42471428D01*
X162917619Y-42423809D01*
X162298571Y-42852380D02*
X162393809Y-42804761D01*
X162441428Y-42709523D01*
X162441428Y-41852380D01*
X161917619Y-42757142D02*
X161870000Y-42804761D01*
X161917619Y-42852380D01*
X161965238Y-42804761D01*
X161917619Y-42757142D01*
X161917619Y-42852380D01*
X161012857Y-42804761D02*
X161108095Y-42852380D01*
X161298571Y-42852380D01*
X161393809Y-42804761D01*
X161441428Y-42757142D01*
X161489047Y-42661904D01*
X161489047Y-42376190D01*
X161441428Y-42280952D01*
X161393809Y-42233333D01*
X161298571Y-42185714D01*
X161108095Y-42185714D01*
X161012857Y-42233333D01*
X160441428Y-42852380D02*
X160536666Y-42804761D01*
X160584285Y-42757142D01*
X160631904Y-42661904D01*
X160631904Y-42376190D01*
X160584285Y-42280952D01*
X160536666Y-42233333D01*
X160441428Y-42185714D01*
X160298571Y-42185714D01*
X160203333Y-42233333D01*
X160155714Y-42280952D01*
X160108095Y-42376190D01*
X160108095Y-42661904D01*
X160155714Y-42757142D01*
X160203333Y-42804761D01*
X160298571Y-42852380D01*
X160441428Y-42852380D01*
X159679523Y-42852380D02*
X159679523Y-42185714D01*
X159679523Y-42280952D02*
X159631904Y-42233333D01*
X159536666Y-42185714D01*
X159393809Y-42185714D01*
X159298571Y-42233333D01*
X159250952Y-42328571D01*
X159250952Y-42852380D01*
X159250952Y-42328571D02*
X159203333Y-42233333D01*
X159108095Y-42185714D01*
X158965238Y-42185714D01*
X158870000Y-42233333D01*
X158822380Y-42328571D01*
X158822380Y-42852380D01*
D11*
X161540000Y-72140000D02*
X161540000Y-74140000D01*
X163680000Y-74140000D02*
X163680000Y-72140000D01*
X161540000Y-64200000D02*
X161540000Y-66200000D01*
X163680000Y-66200000D02*
X163680000Y-64200000D01*
X156640000Y-72120000D02*
X156640000Y-74120000D01*
X158780000Y-74120000D02*
X158780000Y-72120000D01*
X156660000Y-64200000D02*
X156660000Y-66200000D01*
X158800000Y-66200000D02*
X158800000Y-64200000D01*
X166470000Y-51450000D02*
X166470000Y-53450000D01*
X168610000Y-53450000D02*
X168610000Y-51450000D01*
X165480000Y-53500000D02*
X165480000Y-51500000D01*
X163340000Y-51500000D02*
X163340000Y-53500000D01*
X158840000Y-53420000D02*
X158840000Y-51420000D01*
X156700000Y-51420000D02*
X156700000Y-53420000D01*
X161910000Y-53340000D02*
X161910000Y-51340000D01*
X159770000Y-51340000D02*
X159770000Y-53340000D01*
D10*
X155540000Y-54870000D02*
X153990000Y-54870000D01*
X152720000Y-52050000D02*
X152720000Y-54590000D01*
X155260000Y-52050000D02*
X152720000Y-52050000D01*
X155540000Y-53320000D02*
X155540000Y-54870000D01*
X155260000Y-49510000D02*
X155260000Y-52050000D01*
X132400000Y-49510000D02*
X132400000Y-54590000D01*
X152720000Y-54590000D02*
X132400000Y-54590000D01*
X132400000Y-49510000D02*
X155260000Y-49510000D01*
X132380000Y-66950000D02*
X135060000Y-66950000D01*
X135060000Y-66950000D02*
X135060000Y-69490000D01*
X135060000Y-69490000D02*
X132380000Y-69490000D01*
X132380000Y-69490000D02*
X132380000Y-66950000D01*
X132380000Y-77090000D02*
X132380000Y-74550000D01*
X135060000Y-77090000D02*
X132380000Y-77090000D01*
X135060000Y-74550000D02*
X135060000Y-77090000D01*
X132380000Y-74550000D02*
X135060000Y-74550000D01*
X149980000Y-77050000D02*
X152660000Y-77050000D01*
X152660000Y-77050000D02*
X152660000Y-79590000D01*
X152660000Y-79590000D02*
X149980000Y-79590000D01*
X149980000Y-79590000D02*
X149980000Y-77050000D01*
X151360000Y-67270000D02*
X152910000Y-67270000D01*
X152810000Y-64170000D02*
X151260000Y-64170000D01*
X152860000Y-64170000D02*
X152860000Y-67270000D01*
X161352380Y-70467142D02*
X160876190Y-70133809D01*
X161352380Y-69895714D02*
X160352380Y-69895714D01*
X160352380Y-70276666D01*
X160400000Y-70371904D01*
X160447619Y-70419523D01*
X160542857Y-70467142D01*
X160685714Y-70467142D01*
X160780952Y-70419523D01*
X160828571Y-70371904D01*
X160876190Y-70276666D01*
X160876190Y-69895714D01*
X161352380Y-71419523D02*
X161352380Y-70848095D01*
X161352380Y-71133809D02*
X160352380Y-71133809D01*
X160495238Y-71038571D01*
X160590476Y-70943333D01*
X160638095Y-70848095D01*
X160447619Y-71800476D02*
X160400000Y-71848095D01*
X160352380Y-71943333D01*
X160352380Y-72181428D01*
X160400000Y-72276666D01*
X160447619Y-72324285D01*
X160542857Y-72371904D01*
X160638095Y-72371904D01*
X160780952Y-72324285D01*
X161352380Y-71752857D01*
X161352380Y-72371904D01*
X161392380Y-75540952D02*
X161392380Y-74969523D01*
X161392380Y-75255238D02*
X160392380Y-75255238D01*
X160535238Y-75160000D01*
X160630476Y-75064761D01*
X160678095Y-74969523D01*
X161392380Y-75969523D02*
X160392380Y-75969523D01*
X161011428Y-76064761D02*
X161392380Y-76350476D01*
X160725714Y-76350476D02*
X161106666Y-75969523D01*
X161342380Y-62517142D02*
X160866190Y-62183809D01*
X161342380Y-61945714D02*
X160342380Y-61945714D01*
X160342380Y-62326666D01*
X160390000Y-62421904D01*
X160437619Y-62469523D01*
X160532857Y-62517142D01*
X160675714Y-62517142D01*
X160770952Y-62469523D01*
X160818571Y-62421904D01*
X160866190Y-62326666D01*
X160866190Y-61945714D01*
X161342380Y-63469523D02*
X161342380Y-62898095D01*
X161342380Y-63183809D02*
X160342380Y-63183809D01*
X160485238Y-63088571D01*
X160580476Y-62993333D01*
X160628095Y-62898095D01*
X161342380Y-64421904D02*
X161342380Y-63850476D01*
X161342380Y-64136190D02*
X160342380Y-64136190D01*
X160485238Y-64040952D01*
X160580476Y-63945714D01*
X160628095Y-63850476D01*
X160412380Y-66498095D02*
X160412380Y-66307619D01*
X160460000Y-66212380D01*
X160507619Y-66164761D01*
X160650476Y-66069523D01*
X160840952Y-66021904D01*
X161221904Y-66021904D01*
X161317142Y-66069523D01*
X161364761Y-66117142D01*
X161412380Y-66212380D01*
X161412380Y-66402857D01*
X161364761Y-66498095D01*
X161317142Y-66545714D01*
X161221904Y-66593333D01*
X160983809Y-66593333D01*
X160888571Y-66545714D01*
X160840952Y-66498095D01*
X160793333Y-66402857D01*
X160793333Y-66212380D01*
X160840952Y-66117142D01*
X160888571Y-66069523D01*
X160983809Y-66021904D01*
X160840952Y-67164761D02*
X160793333Y-67069523D01*
X160745714Y-67021904D01*
X160650476Y-66974285D01*
X160602857Y-66974285D01*
X160507619Y-67021904D01*
X160460000Y-67069523D01*
X160412380Y-67164761D01*
X160412380Y-67355238D01*
X160460000Y-67450476D01*
X160507619Y-67498095D01*
X160602857Y-67545714D01*
X160650476Y-67545714D01*
X160745714Y-67498095D01*
X160793333Y-67450476D01*
X160840952Y-67355238D01*
X160840952Y-67164761D01*
X160888571Y-67069523D01*
X160936190Y-67021904D01*
X161031428Y-66974285D01*
X161221904Y-66974285D01*
X161317142Y-67021904D01*
X161364761Y-67069523D01*
X161412380Y-67164761D01*
X161412380Y-67355238D01*
X161364761Y-67450476D01*
X161317142Y-67498095D01*
X161221904Y-67545714D01*
X161031428Y-67545714D01*
X160936190Y-67498095D01*
X160888571Y-67450476D01*
X160840952Y-67355238D01*
X160412380Y-68164761D02*
X160412380Y-68260000D01*
X160460000Y-68355238D01*
X160507619Y-68402857D01*
X160602857Y-68450476D01*
X160793333Y-68498095D01*
X161031428Y-68498095D01*
X161221904Y-68450476D01*
X161317142Y-68402857D01*
X161364761Y-68355238D01*
X161412380Y-68260000D01*
X161412380Y-68164761D01*
X161364761Y-68069523D01*
X161317142Y-68021904D01*
X161221904Y-67974285D01*
X161031428Y-67926666D01*
X160793333Y-67926666D01*
X160602857Y-67974285D01*
X160507619Y-68021904D01*
X160460000Y-68069523D01*
X160412380Y-68164761D01*
X156452380Y-70443333D02*
X155976190Y-70110000D01*
X156452380Y-69871904D02*
X155452380Y-69871904D01*
X155452380Y-70252857D01*
X155500000Y-70348095D01*
X155547619Y-70395714D01*
X155642857Y-70443333D01*
X155785714Y-70443333D01*
X155880952Y-70395714D01*
X155928571Y-70348095D01*
X155976190Y-70252857D01*
X155976190Y-69871904D01*
X155880952Y-71014761D02*
X155833333Y-70919523D01*
X155785714Y-70871904D01*
X155690476Y-70824285D01*
X155642857Y-70824285D01*
X155547619Y-70871904D01*
X155500000Y-70919523D01*
X155452380Y-71014761D01*
X155452380Y-71205238D01*
X155500000Y-71300476D01*
X155547619Y-71348095D01*
X155642857Y-71395714D01*
X155690476Y-71395714D01*
X155785714Y-71348095D01*
X155833333Y-71300476D01*
X155880952Y-71205238D01*
X155880952Y-71014761D01*
X155928571Y-70919523D01*
X155976190Y-70871904D01*
X156071428Y-70824285D01*
X156261904Y-70824285D01*
X156357142Y-70871904D01*
X156404761Y-70919523D01*
X156452380Y-71014761D01*
X156452380Y-71205238D01*
X156404761Y-71300476D01*
X156357142Y-71348095D01*
X156261904Y-71395714D01*
X156071428Y-71395714D01*
X155976190Y-71348095D01*
X155928571Y-71300476D01*
X155880952Y-71205238D01*
X156502380Y-75520952D02*
X156502380Y-74949523D01*
X156502380Y-75235238D02*
X155502380Y-75235238D01*
X155645238Y-75140000D01*
X155740476Y-75044761D01*
X155788095Y-74949523D01*
X156502380Y-75949523D02*
X155502380Y-75949523D01*
X156121428Y-76044761D02*
X156502380Y-76330476D01*
X155835714Y-76330476D02*
X156216666Y-75949523D01*
X156542380Y-62543333D02*
X156066190Y-62210000D01*
X156542380Y-61971904D02*
X155542380Y-61971904D01*
X155542380Y-62352857D01*
X155590000Y-62448095D01*
X155637619Y-62495714D01*
X155732857Y-62543333D01*
X155875714Y-62543333D01*
X155970952Y-62495714D01*
X156018571Y-62448095D01*
X156066190Y-62352857D01*
X156066190Y-61971904D01*
X155542380Y-62876666D02*
X155542380Y-63543333D01*
X156542380Y-63114761D01*
X155522380Y-66458095D02*
X155522380Y-66267619D01*
X155570000Y-66172380D01*
X155617619Y-66124761D01*
X155760476Y-66029523D01*
X155950952Y-65981904D01*
X156331904Y-65981904D01*
X156427142Y-66029523D01*
X156474761Y-66077142D01*
X156522380Y-66172380D01*
X156522380Y-66362857D01*
X156474761Y-66458095D01*
X156427142Y-66505714D01*
X156331904Y-66553333D01*
X156093809Y-66553333D01*
X155998571Y-66505714D01*
X155950952Y-66458095D01*
X155903333Y-66362857D01*
X155903333Y-66172380D01*
X155950952Y-66077142D01*
X155998571Y-66029523D01*
X156093809Y-65981904D01*
X155950952Y-67124761D02*
X155903333Y-67029523D01*
X155855714Y-66981904D01*
X155760476Y-66934285D01*
X155712857Y-66934285D01*
X155617619Y-66981904D01*
X155570000Y-67029523D01*
X155522380Y-67124761D01*
X155522380Y-67315238D01*
X155570000Y-67410476D01*
X155617619Y-67458095D01*
X155712857Y-67505714D01*
X155760476Y-67505714D01*
X155855714Y-67458095D01*
X155903333Y-67410476D01*
X155950952Y-67315238D01*
X155950952Y-67124761D01*
X155998571Y-67029523D01*
X156046190Y-66981904D01*
X156141428Y-66934285D01*
X156331904Y-66934285D01*
X156427142Y-66981904D01*
X156474761Y-67029523D01*
X156522380Y-67124761D01*
X156522380Y-67315238D01*
X156474761Y-67410476D01*
X156427142Y-67458095D01*
X156331904Y-67505714D01*
X156141428Y-67505714D01*
X156046190Y-67458095D01*
X155998571Y-67410476D01*
X155950952Y-67315238D01*
X155522380Y-68124761D02*
X155522380Y-68220000D01*
X155570000Y-68315238D01*
X155617619Y-68362857D01*
X155712857Y-68410476D01*
X155903333Y-68458095D01*
X156141428Y-68458095D01*
X156331904Y-68410476D01*
X156427142Y-68362857D01*
X156474761Y-68315238D01*
X156522380Y-68220000D01*
X156522380Y-68124761D01*
X156474761Y-68029523D01*
X156427142Y-67981904D01*
X156331904Y-67934285D01*
X156141428Y-67886666D01*
X155903333Y-67886666D01*
X155712857Y-67934285D01*
X155617619Y-67981904D01*
X155570000Y-68029523D01*
X155522380Y-68124761D01*
X167912380Y-56473333D02*
X167436190Y-56140000D01*
X167912380Y-55901904D02*
X166912380Y-55901904D01*
X166912380Y-56282857D01*
X166960000Y-56378095D01*
X167007619Y-56425714D01*
X167102857Y-56473333D01*
X167245714Y-56473333D01*
X167340952Y-56425714D01*
X167388571Y-56378095D01*
X167436190Y-56282857D01*
X167436190Y-55901904D01*
X167245714Y-57330476D02*
X167912380Y-57330476D01*
X166864761Y-57092380D02*
X167579047Y-56854285D01*
X167579047Y-57473333D01*
X167932380Y-48230952D02*
X167932380Y-47659523D01*
X167932380Y-47945238D02*
X166932380Y-47945238D01*
X167075238Y-47850000D01*
X167170476Y-47754761D01*
X167218095Y-47659523D01*
X167932380Y-48659523D02*
X166932380Y-48659523D01*
X167551428Y-48754761D02*
X167932380Y-49040476D01*
X167265714Y-49040476D02*
X167646666Y-48659523D01*
X164842380Y-56573333D02*
X164366190Y-56240000D01*
X164842380Y-56001904D02*
X163842380Y-56001904D01*
X163842380Y-56382857D01*
X163890000Y-56478095D01*
X163937619Y-56525714D01*
X164032857Y-56573333D01*
X164175714Y-56573333D01*
X164270952Y-56525714D01*
X164318571Y-56478095D01*
X164366190Y-56382857D01*
X164366190Y-56001904D01*
X163842380Y-56906666D02*
X163842380Y-57525714D01*
X164223333Y-57192380D01*
X164223333Y-57335238D01*
X164270952Y-57430476D01*
X164318571Y-57478095D01*
X164413809Y-57525714D01*
X164651904Y-57525714D01*
X164747142Y-57478095D01*
X164794761Y-57430476D01*
X164842380Y-57335238D01*
X164842380Y-57049523D01*
X164794761Y-56954285D01*
X164747142Y-56906666D01*
X163902380Y-47088095D02*
X163902380Y-46897619D01*
X163950000Y-46802380D01*
X163997619Y-46754761D01*
X164140476Y-46659523D01*
X164330952Y-46611904D01*
X164711904Y-46611904D01*
X164807142Y-46659523D01*
X164854761Y-46707142D01*
X164902380Y-46802380D01*
X164902380Y-46992857D01*
X164854761Y-47088095D01*
X164807142Y-47135714D01*
X164711904Y-47183333D01*
X164473809Y-47183333D01*
X164378571Y-47135714D01*
X164330952Y-47088095D01*
X164283333Y-46992857D01*
X164283333Y-46802380D01*
X164330952Y-46707142D01*
X164378571Y-46659523D01*
X164473809Y-46611904D01*
X164330952Y-47754761D02*
X164283333Y-47659523D01*
X164235714Y-47611904D01*
X164140476Y-47564285D01*
X164092857Y-47564285D01*
X163997619Y-47611904D01*
X163950000Y-47659523D01*
X163902380Y-47754761D01*
X163902380Y-47945238D01*
X163950000Y-48040476D01*
X163997619Y-48088095D01*
X164092857Y-48135714D01*
X164140476Y-48135714D01*
X164235714Y-48088095D01*
X164283333Y-48040476D01*
X164330952Y-47945238D01*
X164330952Y-47754761D01*
X164378571Y-47659523D01*
X164426190Y-47611904D01*
X164521428Y-47564285D01*
X164711904Y-47564285D01*
X164807142Y-47611904D01*
X164854761Y-47659523D01*
X164902380Y-47754761D01*
X164902380Y-47945238D01*
X164854761Y-48040476D01*
X164807142Y-48088095D01*
X164711904Y-48135714D01*
X164521428Y-48135714D01*
X164426190Y-48088095D01*
X164378571Y-48040476D01*
X164330952Y-47945238D01*
X163902380Y-48754761D02*
X163902380Y-48850000D01*
X163950000Y-48945238D01*
X163997619Y-48992857D01*
X164092857Y-49040476D01*
X164283333Y-49088095D01*
X164521428Y-49088095D01*
X164711904Y-49040476D01*
X164807142Y-48992857D01*
X164854761Y-48945238D01*
X164902380Y-48850000D01*
X164902380Y-48754761D01*
X164854761Y-48659523D01*
X164807142Y-48611904D01*
X164711904Y-48564285D01*
X164521428Y-48516666D01*
X164283333Y-48516666D01*
X164092857Y-48564285D01*
X163997619Y-48611904D01*
X163950000Y-48659523D01*
X163902380Y-48754761D01*
X158232380Y-56473333D02*
X157756190Y-56140000D01*
X158232380Y-55901904D02*
X157232380Y-55901904D01*
X157232380Y-56282857D01*
X157280000Y-56378095D01*
X157327619Y-56425714D01*
X157422857Y-56473333D01*
X157565714Y-56473333D01*
X157660952Y-56425714D01*
X157708571Y-56378095D01*
X157756190Y-56282857D01*
X157756190Y-55901904D01*
X157327619Y-56854285D02*
X157280000Y-56901904D01*
X157232380Y-56997142D01*
X157232380Y-57235238D01*
X157280000Y-57330476D01*
X157327619Y-57378095D01*
X157422857Y-57425714D01*
X157518095Y-57425714D01*
X157660952Y-57378095D01*
X158232380Y-56806666D01*
X158232380Y-57425714D01*
X158312380Y-47254761D02*
X158312380Y-46683333D01*
X158312380Y-46969047D02*
X157312380Y-46969047D01*
X157455238Y-46873809D01*
X157550476Y-46778571D01*
X157598095Y-46683333D01*
X157312380Y-47873809D02*
X157312380Y-47969047D01*
X157360000Y-48064285D01*
X157407619Y-48111904D01*
X157502857Y-48159523D01*
X157693333Y-48207142D01*
X157931428Y-48207142D01*
X158121904Y-48159523D01*
X158217142Y-48111904D01*
X158264761Y-48064285D01*
X158312380Y-47969047D01*
X158312380Y-47873809D01*
X158264761Y-47778571D01*
X158217142Y-47730952D01*
X158121904Y-47683333D01*
X157931428Y-47635714D01*
X157693333Y-47635714D01*
X157502857Y-47683333D01*
X157407619Y-47730952D01*
X157360000Y-47778571D01*
X157312380Y-47873809D01*
X158312380Y-48635714D02*
X157312380Y-48635714D01*
X157931428Y-48730952D02*
X158312380Y-49016666D01*
X157645714Y-49016666D02*
X158026666Y-48635714D01*
X161242380Y-56473333D02*
X160766190Y-56140000D01*
X161242380Y-55901904D02*
X160242380Y-55901904D01*
X160242380Y-56282857D01*
X160290000Y-56378095D01*
X160337619Y-56425714D01*
X160432857Y-56473333D01*
X160575714Y-56473333D01*
X160670952Y-56425714D01*
X160718571Y-56378095D01*
X160766190Y-56282857D01*
X160766190Y-55901904D01*
X161242380Y-57425714D02*
X161242380Y-56854285D01*
X161242380Y-57140000D02*
X160242380Y-57140000D01*
X160385238Y-57044761D01*
X160480476Y-56949523D01*
X160528095Y-56854285D01*
X161312380Y-47254761D02*
X161312380Y-46683333D01*
X161312380Y-46969047D02*
X160312380Y-46969047D01*
X160455238Y-46873809D01*
X160550476Y-46778571D01*
X160598095Y-46683333D01*
X160312380Y-47873809D02*
X160312380Y-47969047D01*
X160360000Y-48064285D01*
X160407619Y-48111904D01*
X160502857Y-48159523D01*
X160693333Y-48207142D01*
X160931428Y-48207142D01*
X161121904Y-48159523D01*
X161217142Y-48111904D01*
X161264761Y-48064285D01*
X161312380Y-47969047D01*
X161312380Y-47873809D01*
X161264761Y-47778571D01*
X161217142Y-47730952D01*
X161121904Y-47683333D01*
X160931428Y-47635714D01*
X160693333Y-47635714D01*
X160502857Y-47683333D01*
X160407619Y-47730952D01*
X160360000Y-47778571D01*
X160312380Y-47873809D01*
X161312380Y-48635714D02*
X160312380Y-48635714D01*
X160931428Y-48730952D02*
X161312380Y-49016666D01*
X160645714Y-49016666D02*
X161026666Y-48635714D01*
X138144761Y-55082380D02*
X137954285Y-55082380D01*
X137859047Y-55130000D01*
X137763809Y-55225238D01*
X137716190Y-55415714D01*
X137716190Y-55749047D01*
X137763809Y-55939523D01*
X137859047Y-56034761D01*
X137954285Y-56082380D01*
X138144761Y-56082380D01*
X138240000Y-56034761D01*
X138335238Y-55939523D01*
X138382857Y-55749047D01*
X138382857Y-55415714D01*
X138335238Y-55225238D01*
X138240000Y-55130000D01*
X138144761Y-55082380D01*
X137430476Y-55082380D02*
X137097142Y-56082380D01*
X136763809Y-55082380D01*
X136525714Y-55082380D02*
X135859047Y-55082380D01*
X136287619Y-56082380D01*
X135049523Y-55082380D02*
X135240000Y-55082380D01*
X135335238Y-55130000D01*
X135382857Y-55177619D01*
X135478095Y-55320476D01*
X135525714Y-55510952D01*
X135525714Y-55891904D01*
X135478095Y-55987142D01*
X135430476Y-56034761D01*
X135335238Y-56082380D01*
X135144761Y-56082380D01*
X135049523Y-56034761D01*
X135001904Y-55987142D01*
X134954285Y-55891904D01*
X134954285Y-55653809D01*
X135001904Y-55558571D01*
X135049523Y-55510952D01*
X135144761Y-55463333D01*
X135335238Y-55463333D01*
X135430476Y-55510952D01*
X135478095Y-55558571D01*
X135525714Y-55653809D01*
X134620952Y-55082380D02*
X133954285Y-55082380D01*
X134382857Y-56082380D01*
X133382857Y-55082380D02*
X133287619Y-55082380D01*
X133192380Y-55130000D01*
X133144761Y-55177619D01*
X133097142Y-55272857D01*
X133049523Y-55463333D01*
X133049523Y-55701428D01*
X133097142Y-55891904D01*
X133144761Y-55987142D01*
X133192380Y-56034761D01*
X133287619Y-56082380D01*
X133382857Y-56082380D01*
X133478095Y-56034761D01*
X133525714Y-55987142D01*
X133573333Y-55891904D01*
X133620952Y-55701428D01*
X133620952Y-55463333D01*
X133573333Y-55272857D01*
X133525714Y-55177619D01*
X133478095Y-55130000D01*
X133382857Y-55082380D01*
X132097142Y-56082380D02*
X132668571Y-56082380D01*
X132382857Y-56082380D02*
X132382857Y-55082380D01*
X132478095Y-55225238D01*
X132573333Y-55320476D01*
X132668571Y-55368095D01*
X145078095Y-63402380D02*
X145078095Y-62402380D01*
X144840000Y-62402380D01*
X144697142Y-62450000D01*
X144601904Y-62545238D01*
X144554285Y-62640476D01*
X144506666Y-62830952D01*
X144506666Y-62973809D01*
X144554285Y-63164285D01*
X144601904Y-63259523D01*
X144697142Y-63354761D01*
X144840000Y-63402380D01*
X145078095Y-63402380D01*
X143506666Y-63307142D02*
X143554285Y-63354761D01*
X143697142Y-63402380D01*
X143792380Y-63402380D01*
X143935238Y-63354761D01*
X144030476Y-63259523D01*
X144078095Y-63164285D01*
X144125714Y-62973809D01*
X144125714Y-62830952D01*
X144078095Y-62640476D01*
X144030476Y-62545238D01*
X143935238Y-62450000D01*
X143792380Y-62402380D01*
X143697142Y-62402380D01*
X143554285Y-62450000D01*
X143506666Y-62497619D01*
X143078095Y-63402380D02*
X143078095Y-62402380D01*
X142840000Y-62402380D01*
X142697142Y-62450000D01*
X142601904Y-62545238D01*
X142554285Y-62640476D01*
X142506666Y-62830952D01*
X142506666Y-62973809D01*
X142554285Y-63164285D01*
X142601904Y-63259523D01*
X142697142Y-63354761D01*
X142840000Y-63402380D01*
X143078095Y-63402380D01*
X141506666Y-63307142D02*
X141554285Y-63354761D01*
X141697142Y-63402380D01*
X141792380Y-63402380D01*
X141935238Y-63354761D01*
X142030476Y-63259523D01*
X142078095Y-63164285D01*
X142125714Y-62973809D01*
X142125714Y-62830952D01*
X142078095Y-62640476D01*
X142030476Y-62545238D01*
X141935238Y-62450000D01*
X141792380Y-62402380D01*
X141697142Y-62402380D01*
X141554285Y-62450000D01*
X141506666Y-62497619D01*
X140554285Y-63402380D02*
X141125714Y-63402380D01*
X140840000Y-63402380D02*
X140840000Y-62402380D01*
X140935238Y-62545238D01*
X141030476Y-62640476D01*
X141125714Y-62688095D01*
X135729047Y-62372380D02*
X135538571Y-62372380D01*
X135443333Y-62420000D01*
X135348095Y-62515238D01*
X135300476Y-62705714D01*
X135300476Y-63039047D01*
X135348095Y-63229523D01*
X135443333Y-63324761D01*
X135538571Y-63372380D01*
X135729047Y-63372380D01*
X135824285Y-63324761D01*
X135919523Y-63229523D01*
X135967142Y-63039047D01*
X135967142Y-62705714D01*
X135919523Y-62515238D01*
X135824285Y-62420000D01*
X135729047Y-62372380D01*
X134871904Y-62372380D02*
X134871904Y-63181904D01*
X134824285Y-63277142D01*
X134776666Y-63324761D01*
X134681428Y-63372380D01*
X134490952Y-63372380D01*
X134395714Y-63324761D01*
X134348095Y-63277142D01*
X134300476Y-63181904D01*
X134300476Y-62372380D01*
X133967142Y-62372380D02*
X133395714Y-62372380D01*
X133681428Y-63372380D02*
X133681428Y-62372380D01*
X133062380Y-62991428D02*
X132300476Y-62991428D01*
X135529047Y-80172380D02*
X135338571Y-80172380D01*
X135243333Y-80220000D01*
X135148095Y-80315238D01*
X135100476Y-80505714D01*
X135100476Y-80839047D01*
X135148095Y-81029523D01*
X135243333Y-81124761D01*
X135338571Y-81172380D01*
X135529047Y-81172380D01*
X135624285Y-81124761D01*
X135719523Y-81029523D01*
X135767142Y-80839047D01*
X135767142Y-80505714D01*
X135719523Y-80315238D01*
X135624285Y-80220000D01*
X135529047Y-80172380D01*
X134671904Y-80172380D02*
X134671904Y-80981904D01*
X134624285Y-81077142D01*
X134576666Y-81124761D01*
X134481428Y-81172380D01*
X134290952Y-81172380D01*
X134195714Y-81124761D01*
X134148095Y-81077142D01*
X134100476Y-80981904D01*
X134100476Y-80172380D01*
X133767142Y-80172380D02*
X133195714Y-80172380D01*
X133481428Y-81172380D02*
X133481428Y-80172380D01*
X132862380Y-80791428D02*
X132100476Y-80791428D01*
X132481428Y-81172380D02*
X132481428Y-80410476D01*
X152452857Y-81372380D02*
X152452857Y-80372380D01*
X151976666Y-81372380D02*
X151976666Y-80372380D01*
X151405238Y-81372380D01*
X151405238Y-80372380D01*
X150929047Y-80991428D02*
X150167142Y-80991428D01*
X152352857Y-63372380D02*
X152352857Y-62372380D01*
X151876666Y-63372380D02*
X151876666Y-62372380D01*
X151305238Y-63372380D01*
X151305238Y-62372380D01*
X150829047Y-62991428D02*
X150067142Y-62991428D01*
X150448095Y-63372380D02*
X150448095Y-62610476D01*
M02*
