G04 #@! TF.GenerationSoftware,KiCad,Pcbnew,(5.1.5)-3*
G04 #@! TF.CreationDate,2020-04-26T13:57:47+03:00*
G04 #@! TF.ProjectId,livecam,6c697665-6361-46d2-9e6b-696361645f70,rev?*
G04 #@! TF.SameCoordinates,Original*
G04 #@! TF.FileFunction,Copper,L1,Top*
G04 #@! TF.FilePolarity,Positive*
%FSLAX46Y46*%
G04 Gerber Fmt 4.6, Leading zero omitted, Abs format (unit mm)*
G04 Created by KiCad (PCBNEW (5.1.5)-3) date 2020-04-26 13:57:47*
%MOMM*%
%LPD*%
G04 APERTURE LIST*
%ADD10O,1.600000X1.600000*%
%ADD11R,1.600000X1.600000*%
%ADD12O,1.727200X2.032000*%
%ADD13R,1.727200X2.032000*%
%ADD14R,1.700000X2.000000*%
%ADD15O,1.727200X1.727200*%
%ADD16R,1.727200X1.727200*%
%ADD17O,2.032000X2.032000*%
%ADD18R,2.032000X2.032000*%
%ADD19R,2.000000X1.600000*%
%ADD20R,1.600000X2.000000*%
%ADD21C,0.800000*%
%ADD22C,0.250000*%
%ADD23C,1.000000*%
%ADD24C,0.254000*%
G04 APERTURE END LIST*
D10*
X169240000Y-44450000D03*
X169240000Y-59690000D03*
X133680000Y-44450000D03*
X166700000Y-59690000D03*
X136220000Y-44450000D03*
X164160000Y-59690000D03*
X138760000Y-44450000D03*
X161620000Y-59690000D03*
X141300000Y-44450000D03*
X159080000Y-59690000D03*
X143840000Y-44450000D03*
X156540000Y-59690000D03*
X146380000Y-44450000D03*
X154000000Y-59690000D03*
X148920000Y-44450000D03*
X151460000Y-59690000D03*
X151460000Y-44450000D03*
X148920000Y-59690000D03*
X154000000Y-44450000D03*
X146380000Y-59690000D03*
X156540000Y-44450000D03*
X143840000Y-59690000D03*
X159080000Y-44450000D03*
X141300000Y-59690000D03*
X161620000Y-44450000D03*
X138760000Y-59690000D03*
X164160000Y-44450000D03*
X136220000Y-59690000D03*
X166700000Y-44450000D03*
D11*
X133680000Y-59690000D03*
D12*
X151440000Y-72100000D03*
X148900000Y-72100000D03*
X146360000Y-72100000D03*
X143820000Y-72100000D03*
X141280000Y-72100000D03*
X138740000Y-72100000D03*
X136200000Y-72100000D03*
D13*
X133660000Y-72100000D03*
D14*
X165010000Y-75140000D03*
X165010000Y-71140000D03*
X164990000Y-67210000D03*
X164990000Y-63210000D03*
X160170000Y-75140000D03*
X160170000Y-71140000D03*
X160150000Y-67200000D03*
X160150000Y-63200000D03*
X155270000Y-75130000D03*
X155270000Y-71130000D03*
X155250000Y-67190000D03*
X155250000Y-63190000D03*
D15*
X133670000Y-50780000D03*
X133670000Y-53320000D03*
X136210000Y-50780000D03*
X136210000Y-53320000D03*
X138750000Y-50780000D03*
X138750000Y-53320000D03*
X141290000Y-50780000D03*
X141290000Y-53320000D03*
X143830000Y-50780000D03*
X143830000Y-53320000D03*
X146370000Y-50780000D03*
X146370000Y-53320000D03*
X148910000Y-50780000D03*
X148910000Y-53320000D03*
X151450000Y-50780000D03*
X151450000Y-53320000D03*
X153990000Y-50780000D03*
D16*
X153990000Y-53320000D03*
D17*
X169250000Y-78370000D03*
D18*
X169250000Y-75830000D03*
D17*
X169310000Y-68240000D03*
D18*
X169310000Y-65700000D03*
D12*
X133650000Y-68220000D03*
X133650000Y-75820000D03*
X151250000Y-78320000D03*
D13*
X151210000Y-65720000D03*
D19*
X137640000Y-64150000D03*
X133640000Y-64150000D03*
X142210000Y-64100000D03*
X146210000Y-64100000D03*
D20*
X141120000Y-80670000D03*
X141120000Y-76670000D03*
X137190000Y-80670000D03*
X137190000Y-76670000D03*
D21*
X162610000Y-63200000D03*
X135730000Y-65930000D03*
X139020000Y-80670000D03*
X164990000Y-75220000D03*
X160170000Y-75140000D03*
X155240000Y-75130000D03*
X155820000Y-50790000D03*
X158160000Y-48460000D03*
X157730000Y-63200000D03*
X164380000Y-54490000D03*
X152400000Y-45829957D03*
X149190000Y-45829957D03*
X144270000Y-48280000D03*
X133800000Y-48280000D03*
X146360000Y-69890000D03*
X146360000Y-66120000D03*
X159240000Y-54420000D03*
X155600000Y-48320000D03*
X161210000Y-47090000D03*
X164310000Y-50560000D03*
X153070000Y-68070000D03*
X153475607Y-74015010D03*
D22*
X170365001Y-45575001D02*
X169240000Y-44450000D01*
X164990000Y-63210000D02*
X167385002Y-63210000D01*
X170365001Y-60230001D02*
X170365001Y-45575001D01*
X167385002Y-63210000D02*
X170365001Y-60230001D01*
D23*
X169310000Y-65690000D02*
X171740000Y-63260000D01*
X169310000Y-65700000D02*
X169310000Y-65690000D01*
X170290000Y-42030000D02*
X134800000Y-42030000D01*
X133680000Y-43150000D02*
X133680000Y-44450000D01*
X171740000Y-63260000D02*
X171740000Y-43480000D01*
X134800000Y-42030000D02*
X133680000Y-43150000D01*
X171740000Y-43480000D02*
X170290000Y-42030000D01*
D22*
X166700000Y-59690000D02*
X165180000Y-61210000D01*
X165180000Y-61210000D02*
X163860000Y-61210000D01*
X163860000Y-61210000D02*
X162610000Y-62460000D01*
X162610000Y-62460000D02*
X162610000Y-63200000D01*
D23*
X137640000Y-64150000D02*
X137510000Y-64150000D01*
X137510000Y-64150000D02*
X135730000Y-65930000D01*
X137190000Y-80670000D02*
X139020000Y-80670000D01*
X139020000Y-80670000D02*
X141120000Y-80670000D01*
D22*
X165010000Y-75140000D02*
X165010000Y-75200000D01*
X165010000Y-75200000D02*
X164990000Y-75220000D01*
X160260000Y-75140000D02*
X160170000Y-75140000D01*
X155270000Y-75130000D02*
X155240000Y-75130000D01*
D23*
X142160000Y-64150000D02*
X142210000Y-64100000D01*
X137640000Y-64150000D02*
X142160000Y-64150000D01*
X155820000Y-50790000D02*
X155830000Y-50790000D01*
X155830000Y-50790000D02*
X158160000Y-48460000D01*
D22*
X164160000Y-59690000D02*
X162690000Y-61160000D01*
X160150000Y-61950000D02*
X160150000Y-63200000D01*
X160940000Y-61160000D02*
X160150000Y-61950000D01*
X162690000Y-61160000D02*
X160940000Y-61160000D01*
X161620000Y-59690000D02*
X160000000Y-61310000D01*
X160000000Y-61310000D02*
X158770000Y-61310000D01*
X158770000Y-61310000D02*
X157730000Y-62350000D01*
X157730000Y-62350000D02*
X157730000Y-63200000D01*
D23*
X131786400Y-75820000D02*
X133650000Y-75820000D01*
X139070000Y-46680000D02*
X131470000Y-46680000D01*
X130410000Y-74443600D02*
X131786400Y-75820000D01*
X141300000Y-44450000D02*
X139070000Y-46680000D01*
X130410000Y-47740000D02*
X130410000Y-74443600D01*
X131470000Y-46680000D02*
X130410000Y-47740000D01*
X136340000Y-75820000D02*
X137190000Y-76670000D01*
X133650000Y-75820000D02*
X136340000Y-75820000D01*
X137190000Y-76670000D02*
X141120000Y-76670000D01*
D22*
X159080000Y-59690000D02*
X157580000Y-61190000D01*
X155250000Y-61940000D02*
X155250000Y-63190000D01*
X156000000Y-61190000D02*
X155250000Y-61940000D01*
X157580000Y-61190000D02*
X156000000Y-61190000D01*
X137430000Y-52000000D02*
X137430000Y-50290000D01*
X138604999Y-49115001D02*
X139315436Y-49115001D01*
X153026403Y-46554967D02*
X154000000Y-45581370D01*
X139315436Y-49115001D02*
X141875470Y-46554967D01*
X141875470Y-46554967D02*
X153026403Y-46554967D01*
X138750000Y-53320000D02*
X137430000Y-52000000D01*
X154000000Y-45581370D02*
X154000000Y-44450000D01*
X137430000Y-50290000D02*
X138604999Y-49115001D01*
X146380000Y-59690000D02*
X148190000Y-57880000D01*
X148190000Y-57880000D02*
X162790000Y-57880000D01*
X162790000Y-57880000D02*
X164380000Y-56290000D01*
X164380000Y-56290000D02*
X164380000Y-54490000D01*
X138750000Y-50780000D02*
X142525022Y-47004978D01*
X153985022Y-47004978D02*
X155740001Y-45249999D01*
X155740001Y-45249999D02*
X156540000Y-44450000D01*
X142525022Y-47004978D02*
X153985022Y-47004978D01*
X148910000Y-54620000D02*
X143840000Y-59690000D01*
X148910000Y-53320000D02*
X148910000Y-54620000D01*
X136210000Y-53320000D02*
X137820000Y-54930000D01*
X137820000Y-54930000D02*
X141540000Y-54930000D01*
X141540000Y-54930000D02*
X142484989Y-53985011D01*
X156075011Y-47454989D02*
X158280001Y-45249999D01*
X158280001Y-45249999D02*
X159080000Y-44450000D01*
X142484989Y-48898270D02*
X143928270Y-47454989D01*
X143928270Y-47454989D02*
X156075011Y-47454989D01*
X142484989Y-53985011D02*
X142484989Y-48898270D01*
X149190000Y-45829957D02*
X149755685Y-45829957D01*
X149755685Y-45829957D02*
X152400000Y-45829957D01*
D23*
X146360000Y-70240000D02*
X146410000Y-70290000D01*
X146360000Y-69890000D02*
X146360000Y-70240000D01*
D22*
X146360000Y-69890000D02*
X146360000Y-72100000D01*
D23*
X144270000Y-48279999D02*
X144270000Y-48280000D01*
D22*
X132250000Y-53320000D02*
X133670000Y-53320000D01*
X131900000Y-49614315D02*
X131900000Y-52970000D01*
X133800000Y-48280000D02*
X133234315Y-48280000D01*
X131900000Y-52970000D02*
X132250000Y-53320000D01*
X133234315Y-48280000D02*
X131900000Y-49614315D01*
X131900000Y-60610000D02*
X133640000Y-62350000D01*
X131900000Y-52970000D02*
X131900000Y-60610000D01*
D23*
X133800000Y-48280000D02*
X132840000Y-48280000D01*
X131900000Y-49220000D02*
X131900000Y-60610000D01*
X132840000Y-48280000D02*
X131900000Y-49220000D01*
D22*
X133640000Y-62350000D02*
X133640000Y-64150000D01*
D23*
X146770000Y-66120000D02*
X146810000Y-66080000D01*
X146360000Y-66120000D02*
X146770000Y-66120000D01*
X144270000Y-48280000D02*
X155560000Y-48280000D01*
X155560000Y-48280000D02*
X155600000Y-48320000D01*
D22*
X162901399Y-51968601D02*
X164310000Y-50560000D01*
X146370000Y-50780000D02*
X147558601Y-51968601D01*
X147558601Y-51968601D02*
X162901399Y-51968601D01*
X155250000Y-71110000D02*
X155270000Y-71130000D01*
X138740000Y-70834000D02*
X138740000Y-72100000D01*
X140544000Y-69030000D02*
X138740000Y-70834000D01*
X155250000Y-67190000D02*
X155250000Y-69030000D01*
X155250000Y-69030000D02*
X140544000Y-69030000D01*
X155250000Y-69030000D02*
X155250000Y-71110000D01*
X136200000Y-70834000D02*
X136200000Y-72100000D01*
X138964000Y-68070000D02*
X136200000Y-70834000D01*
X153070000Y-68070000D02*
X138964000Y-68070000D01*
X160150000Y-71120000D02*
X160170000Y-71140000D01*
X160150000Y-67200000D02*
X160150000Y-69090000D01*
X160150000Y-69090000D02*
X160150000Y-71120000D01*
X154194998Y-65810000D02*
X152584998Y-67420000D01*
X156305002Y-65810000D02*
X154194998Y-65810000D01*
X133660000Y-70834000D02*
X133660000Y-72100000D01*
X137074000Y-67420000D02*
X133660000Y-70834000D01*
X152584998Y-67420000D02*
X137074000Y-67420000D01*
X156305002Y-65810000D02*
X157660000Y-67164998D01*
X157660000Y-67164998D02*
X157660000Y-68070000D01*
X158680000Y-69090000D02*
X160150000Y-69090000D01*
X157660000Y-68070000D02*
X158680000Y-69090000D01*
X153075608Y-74415009D02*
X153475607Y-74015010D01*
X141280000Y-72100000D02*
X141280000Y-73366000D01*
X142329009Y-74415009D02*
X153075608Y-74415009D01*
X141280000Y-73366000D02*
X142329009Y-74415009D01*
X164990000Y-71120000D02*
X165010000Y-71140000D01*
X164990000Y-67210000D02*
X164990000Y-69270000D01*
X164990000Y-69270000D02*
X164990000Y-71120000D01*
X162600000Y-70190000D02*
X163520000Y-69270000D01*
X163520000Y-69270000D02*
X164990000Y-69270000D01*
X162600000Y-71740000D02*
X162600000Y-70190000D01*
X161050000Y-73290000D02*
X162600000Y-71740000D01*
X143820000Y-72100000D02*
X143820000Y-73366000D01*
X144334000Y-73880000D02*
X152530000Y-73880000D01*
X143820000Y-73366000D02*
X144334000Y-73880000D01*
X152530000Y-73880000D02*
X153120000Y-73290000D01*
X153120000Y-73290000D02*
X161050000Y-73290000D01*
D24*
G36*
X139000635Y-48355001D02*
G01*
X138642332Y-48355001D01*
X138604999Y-48351324D01*
X138567666Y-48355001D01*
X138456013Y-48365998D01*
X138312752Y-48409455D01*
X138180723Y-48480027D01*
X138064998Y-48575000D01*
X138041200Y-48603998D01*
X137083737Y-49561461D01*
X136919853Y-49451958D01*
X136647125Y-49338990D01*
X136357599Y-49281400D01*
X136062401Y-49281400D01*
X135772875Y-49338990D01*
X135500147Y-49451958D01*
X135254698Y-49615961D01*
X135045961Y-49824698D01*
X134940000Y-49983281D01*
X134834039Y-49824698D01*
X134625302Y-49615961D01*
X134379853Y-49451958D01*
X134107125Y-49338990D01*
X133817599Y-49281400D01*
X133522401Y-49281400D01*
X133232875Y-49338990D01*
X132960147Y-49451958D01*
X132714698Y-49615961D01*
X132505961Y-49824698D01*
X132341958Y-50070147D01*
X132228990Y-50342875D01*
X132171400Y-50632401D01*
X132171400Y-50927599D01*
X132228990Y-51217125D01*
X132341958Y-51489853D01*
X132505961Y-51735302D01*
X132714698Y-51944039D01*
X132875813Y-52051692D01*
X132659707Y-52213146D01*
X132463183Y-52431512D01*
X132313036Y-52684022D01*
X132215037Y-52960973D01*
X132335536Y-53193000D01*
X133543000Y-53193000D01*
X133543000Y-53173000D01*
X133797000Y-53173000D01*
X133797000Y-53193000D01*
X133817000Y-53193000D01*
X133817000Y-53447000D01*
X133797000Y-53447000D01*
X133797000Y-54653817D01*
X134029026Y-54774958D01*
X134179814Y-54729222D01*
X134444944Y-54602684D01*
X134680293Y-54426854D01*
X134876817Y-54208488D01*
X134935441Y-54109897D01*
X135045961Y-54275302D01*
X135254698Y-54484039D01*
X135500147Y-54648042D01*
X135772875Y-54761010D01*
X136062401Y-54818600D01*
X136357599Y-54818600D01*
X136587974Y-54772776D01*
X137256201Y-55441003D01*
X137279999Y-55470001D01*
X137395724Y-55564974D01*
X137527753Y-55635546D01*
X137671014Y-55679003D01*
X137782667Y-55690000D01*
X137782677Y-55690000D01*
X137820000Y-55693676D01*
X137857323Y-55690000D01*
X141502678Y-55690000D01*
X141540000Y-55693676D01*
X141577322Y-55690000D01*
X141577333Y-55690000D01*
X141688986Y-55679003D01*
X141832247Y-55635546D01*
X141964276Y-55564974D01*
X142080001Y-55470001D01*
X142103804Y-55440998D01*
X142986236Y-54558566D01*
X143120147Y-54648042D01*
X143392875Y-54761010D01*
X143682401Y-54818600D01*
X143977599Y-54818600D01*
X144267125Y-54761010D01*
X144539853Y-54648042D01*
X144785302Y-54484039D01*
X144994039Y-54275302D01*
X145100000Y-54116719D01*
X145205961Y-54275302D01*
X145414698Y-54484039D01*
X145660147Y-54648042D01*
X145932875Y-54761010D01*
X146222401Y-54818600D01*
X146517599Y-54818600D01*
X146807125Y-54761010D01*
X147079853Y-54648042D01*
X147325302Y-54484039D01*
X147534039Y-54275302D01*
X147640000Y-54116719D01*
X147745961Y-54275302D01*
X147954698Y-54484039D01*
X147964566Y-54490632D01*
X144163887Y-58291312D01*
X143981335Y-58255000D01*
X143698665Y-58255000D01*
X143421426Y-58310147D01*
X143160273Y-58418320D01*
X142925241Y-58575363D01*
X142725363Y-58775241D01*
X142570000Y-59007759D01*
X142414637Y-58775241D01*
X142214759Y-58575363D01*
X141979727Y-58418320D01*
X141718574Y-58310147D01*
X141441335Y-58255000D01*
X141158665Y-58255000D01*
X140881426Y-58310147D01*
X140620273Y-58418320D01*
X140385241Y-58575363D01*
X140185363Y-58775241D01*
X140030000Y-59007759D01*
X139874637Y-58775241D01*
X139674759Y-58575363D01*
X139439727Y-58418320D01*
X139178574Y-58310147D01*
X138901335Y-58255000D01*
X138618665Y-58255000D01*
X138341426Y-58310147D01*
X138080273Y-58418320D01*
X137845241Y-58575363D01*
X137645363Y-58775241D01*
X137490000Y-59007759D01*
X137334637Y-58775241D01*
X137134759Y-58575363D01*
X136899727Y-58418320D01*
X136638574Y-58310147D01*
X136361335Y-58255000D01*
X136078665Y-58255000D01*
X135801426Y-58310147D01*
X135540273Y-58418320D01*
X135305241Y-58575363D01*
X135106643Y-58773961D01*
X135105812Y-58765518D01*
X135069502Y-58645820D01*
X135010537Y-58535506D01*
X134931185Y-58438815D01*
X134834494Y-58359463D01*
X134724180Y-58300498D01*
X134604482Y-58264188D01*
X134480000Y-58251928D01*
X132880000Y-58251928D01*
X132755518Y-58264188D01*
X132635820Y-58300498D01*
X132525506Y-58359463D01*
X132428815Y-58438815D01*
X132349463Y-58535506D01*
X132290498Y-58645820D01*
X132254188Y-58765518D01*
X132241928Y-58890000D01*
X132241928Y-60490000D01*
X132254188Y-60614482D01*
X132290498Y-60734180D01*
X132349463Y-60844494D01*
X132428815Y-60941185D01*
X132525506Y-61020537D01*
X132635820Y-61079502D01*
X132755518Y-61115812D01*
X132880000Y-61128072D01*
X134480000Y-61128072D01*
X134604482Y-61115812D01*
X134724180Y-61079502D01*
X134834494Y-61020537D01*
X134931185Y-60941185D01*
X135010537Y-60844494D01*
X135069502Y-60734180D01*
X135105812Y-60614482D01*
X135106643Y-60606039D01*
X135305241Y-60804637D01*
X135540273Y-60961680D01*
X135801426Y-61069853D01*
X136078665Y-61125000D01*
X136361335Y-61125000D01*
X136638574Y-61069853D01*
X136899727Y-60961680D01*
X137134759Y-60804637D01*
X137334637Y-60604759D01*
X137490000Y-60372241D01*
X137645363Y-60604759D01*
X137845241Y-60804637D01*
X138080273Y-60961680D01*
X138341426Y-61069853D01*
X138618665Y-61125000D01*
X138901335Y-61125000D01*
X139178574Y-61069853D01*
X139439727Y-60961680D01*
X139674759Y-60804637D01*
X139874637Y-60604759D01*
X140030000Y-60372241D01*
X140185363Y-60604759D01*
X140385241Y-60804637D01*
X140620273Y-60961680D01*
X140881426Y-61069853D01*
X141158665Y-61125000D01*
X141441335Y-61125000D01*
X141718574Y-61069853D01*
X141979727Y-60961680D01*
X142214759Y-60804637D01*
X142414637Y-60604759D01*
X142570000Y-60372241D01*
X142725363Y-60604759D01*
X142925241Y-60804637D01*
X143160273Y-60961680D01*
X143421426Y-61069853D01*
X143698665Y-61125000D01*
X143981335Y-61125000D01*
X144258574Y-61069853D01*
X144519727Y-60961680D01*
X144754759Y-60804637D01*
X144954637Y-60604759D01*
X145110000Y-60372241D01*
X145265363Y-60604759D01*
X145465241Y-60804637D01*
X145700273Y-60961680D01*
X145961426Y-61069853D01*
X146238665Y-61125000D01*
X146521335Y-61125000D01*
X146798574Y-61069853D01*
X147059727Y-60961680D01*
X147294759Y-60804637D01*
X147494637Y-60604759D01*
X147650000Y-60372241D01*
X147805363Y-60604759D01*
X148005241Y-60804637D01*
X148240273Y-60961680D01*
X148501426Y-61069853D01*
X148778665Y-61125000D01*
X149061335Y-61125000D01*
X149338574Y-61069853D01*
X149599727Y-60961680D01*
X149834759Y-60804637D01*
X150034637Y-60604759D01*
X150190000Y-60372241D01*
X150345363Y-60604759D01*
X150545241Y-60804637D01*
X150780273Y-60961680D01*
X151041426Y-61069853D01*
X151318665Y-61125000D01*
X151601335Y-61125000D01*
X151878574Y-61069853D01*
X152139727Y-60961680D01*
X152374759Y-60804637D01*
X152574637Y-60604759D01*
X152730000Y-60372241D01*
X152885363Y-60604759D01*
X153085241Y-60804637D01*
X153320273Y-60961680D01*
X153581426Y-61069853D01*
X153858665Y-61125000D01*
X154141335Y-61125000D01*
X154418574Y-61069853D01*
X154679727Y-60961680D01*
X154914759Y-60804637D01*
X155114637Y-60604759D01*
X155270000Y-60372241D01*
X155425363Y-60604759D01*
X155465823Y-60645219D01*
X155459999Y-60649999D01*
X155436201Y-60678998D01*
X154739002Y-61376197D01*
X154709999Y-61399999D01*
X154667121Y-61452247D01*
X154615026Y-61515724D01*
X154595674Y-61551928D01*
X154400000Y-61551928D01*
X154275518Y-61564188D01*
X154155820Y-61600498D01*
X154045506Y-61659463D01*
X153948815Y-61738815D01*
X153869463Y-61835506D01*
X153810498Y-61945820D01*
X153774188Y-62065518D01*
X153761928Y-62190000D01*
X153761928Y-64190000D01*
X153774188Y-64314482D01*
X153810498Y-64434180D01*
X153869463Y-64544494D01*
X153948815Y-64641185D01*
X154045506Y-64720537D01*
X154155820Y-64779502D01*
X154275518Y-64815812D01*
X154400000Y-64828072D01*
X156100000Y-64828072D01*
X156224482Y-64815812D01*
X156344180Y-64779502D01*
X156454494Y-64720537D01*
X156551185Y-64641185D01*
X156630537Y-64544494D01*
X156689502Y-64434180D01*
X156725812Y-64314482D01*
X156738072Y-64190000D01*
X156738072Y-63509860D01*
X156812795Y-63690256D01*
X156926063Y-63859774D01*
X157070226Y-64003937D01*
X157239744Y-64117205D01*
X157428102Y-64195226D01*
X157628061Y-64235000D01*
X157831939Y-64235000D01*
X158031898Y-64195226D01*
X158220256Y-64117205D01*
X158389774Y-64003937D01*
X158533937Y-63859774D01*
X158647205Y-63690256D01*
X158661928Y-63654712D01*
X158661928Y-64200000D01*
X158674188Y-64324482D01*
X158710498Y-64444180D01*
X158769463Y-64554494D01*
X158848815Y-64651185D01*
X158945506Y-64730537D01*
X159055820Y-64789502D01*
X159175518Y-64825812D01*
X159300000Y-64838072D01*
X161000000Y-64838072D01*
X161124482Y-64825812D01*
X161244180Y-64789502D01*
X161354494Y-64730537D01*
X161451185Y-64651185D01*
X161530537Y-64554494D01*
X161589502Y-64444180D01*
X161625812Y-64324482D01*
X161638072Y-64200000D01*
X161638072Y-63558144D01*
X161692795Y-63690256D01*
X161806063Y-63859774D01*
X161950226Y-64003937D01*
X162119744Y-64117205D01*
X162308102Y-64195226D01*
X162508061Y-64235000D01*
X162711939Y-64235000D01*
X162911898Y-64195226D01*
X163100256Y-64117205D01*
X163269774Y-64003937D01*
X163413937Y-63859774D01*
X163501928Y-63728086D01*
X163501928Y-64210000D01*
X163514188Y-64334482D01*
X163550498Y-64454180D01*
X163609463Y-64564494D01*
X163688815Y-64661185D01*
X163785506Y-64740537D01*
X163895820Y-64799502D01*
X164015518Y-64835812D01*
X164140000Y-64848072D01*
X165840000Y-64848072D01*
X165964482Y-64835812D01*
X166084180Y-64799502D01*
X166194494Y-64740537D01*
X166291185Y-64661185D01*
X166370537Y-64564494D01*
X166429502Y-64454180D01*
X166465812Y-64334482D01*
X166478072Y-64210000D01*
X166478072Y-63970000D01*
X167347680Y-63970000D01*
X167385002Y-63973676D01*
X167422324Y-63970000D01*
X167422335Y-63970000D01*
X167533988Y-63959003D01*
X167677249Y-63915546D01*
X167809278Y-63844974D01*
X167925003Y-63750001D01*
X167948806Y-63720997D01*
X170605000Y-61064804D01*
X170605000Y-62789868D01*
X169348941Y-64045928D01*
X168294000Y-64045928D01*
X168169518Y-64058188D01*
X168049820Y-64094498D01*
X167939506Y-64153463D01*
X167842815Y-64232815D01*
X167763463Y-64329506D01*
X167704498Y-64439820D01*
X167668188Y-64559518D01*
X167655928Y-64684000D01*
X167655928Y-66716000D01*
X167668188Y-66840482D01*
X167704498Y-66960180D01*
X167763463Y-67070494D01*
X167842815Y-67167185D01*
X167939506Y-67246537D01*
X167975364Y-67265704D01*
X167846903Y-67457958D01*
X167722447Y-67758421D01*
X167659000Y-68077391D01*
X167659000Y-68402609D01*
X167722447Y-68721579D01*
X167846903Y-69022042D01*
X168027585Y-69292451D01*
X168257549Y-69522415D01*
X168527958Y-69703097D01*
X168828421Y-69827553D01*
X169147391Y-69891000D01*
X169472609Y-69891000D01*
X169791579Y-69827553D01*
X170092042Y-69703097D01*
X170362451Y-69522415D01*
X170592415Y-69292451D01*
X170773097Y-69022042D01*
X170897553Y-68721579D01*
X170961000Y-68402609D01*
X170961000Y-68077391D01*
X170897553Y-67758421D01*
X170773097Y-67457958D01*
X170644636Y-67265704D01*
X170680494Y-67246537D01*
X170777185Y-67167185D01*
X170856537Y-67070494D01*
X170915502Y-66960180D01*
X170951812Y-66840482D01*
X170964072Y-66716000D01*
X170964072Y-65641059D01*
X172023000Y-64582132D01*
X172023000Y-81753000D01*
X142549897Y-81753000D01*
X142558072Y-81670000D01*
X142558072Y-79670000D01*
X142545812Y-79545518D01*
X142509502Y-79425820D01*
X142450537Y-79315506D01*
X142371185Y-79218815D01*
X142274494Y-79139463D01*
X142164180Y-79080498D01*
X142044482Y-79044188D01*
X141920000Y-79031928D01*
X140320000Y-79031928D01*
X140195518Y-79044188D01*
X140075820Y-79080498D01*
X139965506Y-79139463D01*
X139868815Y-79218815D01*
X139789463Y-79315506D01*
X139730498Y-79425820D01*
X139697379Y-79535000D01*
X138612621Y-79535000D01*
X138579502Y-79425820D01*
X138520537Y-79315506D01*
X138441185Y-79218815D01*
X138344494Y-79139463D01*
X138234180Y-79080498D01*
X138114482Y-79044188D01*
X137990000Y-79031928D01*
X136390000Y-79031928D01*
X136265518Y-79044188D01*
X136145820Y-79080498D01*
X136035506Y-79139463D01*
X135938815Y-79218815D01*
X135859463Y-79315506D01*
X135800498Y-79425820D01*
X135764188Y-79545518D01*
X135751928Y-79670000D01*
X135751928Y-81670000D01*
X135760103Y-81753000D01*
X130086558Y-81753000D01*
X130065466Y-75704198D01*
X130944413Y-76583146D01*
X130979951Y-76626449D01*
X131023254Y-76661987D01*
X131023256Y-76661989D01*
X131152777Y-76768284D01*
X131349953Y-76873676D01*
X131563901Y-76938577D01*
X131786400Y-76960491D01*
X131842152Y-76955000D01*
X132517746Y-76955000D01*
X132585203Y-77037197D01*
X132813394Y-77224469D01*
X133073736Y-77363625D01*
X133356223Y-77449316D01*
X133650000Y-77478251D01*
X133943776Y-77449316D01*
X134226263Y-77363625D01*
X134486605Y-77224469D01*
X134714797Y-77037197D01*
X134782255Y-76955000D01*
X135751928Y-76955000D01*
X135751928Y-77670000D01*
X135764188Y-77794482D01*
X135800498Y-77914180D01*
X135859463Y-78024494D01*
X135938815Y-78121185D01*
X136035506Y-78200537D01*
X136145820Y-78259502D01*
X136265518Y-78295812D01*
X136390000Y-78308072D01*
X137990000Y-78308072D01*
X138114482Y-78295812D01*
X138234180Y-78259502D01*
X138344494Y-78200537D01*
X138441185Y-78121185D01*
X138520537Y-78024494D01*
X138579502Y-77914180D01*
X138612621Y-77805000D01*
X139697379Y-77805000D01*
X139730498Y-77914180D01*
X139789463Y-78024494D01*
X139868815Y-78121185D01*
X139965506Y-78200537D01*
X140075820Y-78259502D01*
X140195518Y-78295812D01*
X140320000Y-78308072D01*
X141920000Y-78308072D01*
X142044482Y-78295812D01*
X142164180Y-78259502D01*
X142274494Y-78200537D01*
X142371185Y-78121185D01*
X142393510Y-78093981D01*
X149751400Y-78093981D01*
X149751400Y-78546018D01*
X149773084Y-78766176D01*
X149858775Y-79048663D01*
X149997931Y-79309005D01*
X150185203Y-79537197D01*
X150413394Y-79724469D01*
X150673736Y-79863625D01*
X150956223Y-79949316D01*
X151250000Y-79978251D01*
X151543776Y-79949316D01*
X151826263Y-79863625D01*
X152086605Y-79724469D01*
X152314797Y-79537197D01*
X152502069Y-79309006D01*
X152641225Y-79048664D01*
X152726916Y-78766177D01*
X152748600Y-78546019D01*
X152748600Y-78093982D01*
X152726916Y-77873824D01*
X152641225Y-77591337D01*
X152502069Y-77330994D01*
X152314797Y-77102803D01*
X152086606Y-76915531D01*
X151826264Y-76776375D01*
X151543777Y-76690684D01*
X151250000Y-76661749D01*
X150956224Y-76690684D01*
X150673737Y-76776375D01*
X150413395Y-76915531D01*
X150185203Y-77102803D01*
X149997931Y-77330994D01*
X149858775Y-77591336D01*
X149773084Y-77873823D01*
X149751400Y-78093981D01*
X142393510Y-78093981D01*
X142450537Y-78024494D01*
X142509502Y-77914180D01*
X142545812Y-77794482D01*
X142558072Y-77670000D01*
X142558072Y-75670000D01*
X142545812Y-75545518D01*
X142509502Y-75425820D01*
X142450537Y-75315506D01*
X142371185Y-75218815D01*
X142321370Y-75177933D01*
X142329009Y-75178685D01*
X142366334Y-75175009D01*
X153038286Y-75175009D01*
X153075608Y-75178685D01*
X153112930Y-75175009D01*
X153112941Y-75175009D01*
X153224594Y-75164012D01*
X153367855Y-75120555D01*
X153499833Y-75050010D01*
X153577546Y-75050010D01*
X153777505Y-75010236D01*
X153781928Y-75008404D01*
X153781928Y-76130000D01*
X153794188Y-76254482D01*
X153830498Y-76374180D01*
X153889463Y-76484494D01*
X153968815Y-76581185D01*
X154065506Y-76660537D01*
X154175820Y-76719502D01*
X154295518Y-76755812D01*
X154420000Y-76768072D01*
X156120000Y-76768072D01*
X156244482Y-76755812D01*
X156364180Y-76719502D01*
X156474494Y-76660537D01*
X156571185Y-76581185D01*
X156650537Y-76484494D01*
X156709502Y-76374180D01*
X156745812Y-76254482D01*
X156758072Y-76130000D01*
X156758072Y-74130000D01*
X156750193Y-74050000D01*
X158690792Y-74050000D01*
X158681928Y-74140000D01*
X158681928Y-76140000D01*
X158694188Y-76264482D01*
X158730498Y-76384180D01*
X158789463Y-76494494D01*
X158868815Y-76591185D01*
X158965506Y-76670537D01*
X159075820Y-76729502D01*
X159195518Y-76765812D01*
X159320000Y-76778072D01*
X161020000Y-76778072D01*
X161144482Y-76765812D01*
X161264180Y-76729502D01*
X161374494Y-76670537D01*
X161471185Y-76591185D01*
X161550537Y-76494494D01*
X161609502Y-76384180D01*
X161645812Y-76264482D01*
X161658072Y-76140000D01*
X161658072Y-74140000D01*
X163521928Y-74140000D01*
X163521928Y-76140000D01*
X163534188Y-76264482D01*
X163570498Y-76384180D01*
X163629463Y-76494494D01*
X163708815Y-76591185D01*
X163805506Y-76670537D01*
X163915820Y-76729502D01*
X164035518Y-76765812D01*
X164160000Y-76778072D01*
X165860000Y-76778072D01*
X165984482Y-76765812D01*
X166104180Y-76729502D01*
X166214494Y-76670537D01*
X166311185Y-76591185D01*
X166390537Y-76494494D01*
X166449502Y-76384180D01*
X166485812Y-76264482D01*
X166498072Y-76140000D01*
X166498072Y-74814000D01*
X167595928Y-74814000D01*
X167595928Y-76846000D01*
X167608188Y-76970482D01*
X167644498Y-77090180D01*
X167703463Y-77200494D01*
X167782815Y-77297185D01*
X167879506Y-77376537D01*
X167915364Y-77395704D01*
X167786903Y-77587958D01*
X167662447Y-77888421D01*
X167599000Y-78207391D01*
X167599000Y-78532609D01*
X167662447Y-78851579D01*
X167786903Y-79152042D01*
X167967585Y-79422451D01*
X168197549Y-79652415D01*
X168467958Y-79833097D01*
X168768421Y-79957553D01*
X169087391Y-80021000D01*
X169412609Y-80021000D01*
X169731579Y-79957553D01*
X170032042Y-79833097D01*
X170302451Y-79652415D01*
X170532415Y-79422451D01*
X170713097Y-79152042D01*
X170837553Y-78851579D01*
X170901000Y-78532609D01*
X170901000Y-78207391D01*
X170837553Y-77888421D01*
X170713097Y-77587958D01*
X170584636Y-77395704D01*
X170620494Y-77376537D01*
X170717185Y-77297185D01*
X170796537Y-77200494D01*
X170855502Y-77090180D01*
X170891812Y-76970482D01*
X170904072Y-76846000D01*
X170904072Y-74814000D01*
X170891812Y-74689518D01*
X170855502Y-74569820D01*
X170796537Y-74459506D01*
X170717185Y-74362815D01*
X170620494Y-74283463D01*
X170510180Y-74224498D01*
X170390482Y-74188188D01*
X170266000Y-74175928D01*
X168234000Y-74175928D01*
X168109518Y-74188188D01*
X167989820Y-74224498D01*
X167879506Y-74283463D01*
X167782815Y-74362815D01*
X167703463Y-74459506D01*
X167644498Y-74569820D01*
X167608188Y-74689518D01*
X167595928Y-74814000D01*
X166498072Y-74814000D01*
X166498072Y-74140000D01*
X166485812Y-74015518D01*
X166449502Y-73895820D01*
X166390537Y-73785506D01*
X166311185Y-73688815D01*
X166214494Y-73609463D01*
X166104180Y-73550498D01*
X165984482Y-73514188D01*
X165860000Y-73501928D01*
X164160000Y-73501928D01*
X164035518Y-73514188D01*
X163915820Y-73550498D01*
X163805506Y-73609463D01*
X163708815Y-73688815D01*
X163629463Y-73785506D01*
X163570498Y-73895820D01*
X163534188Y-74015518D01*
X163521928Y-74140000D01*
X161658072Y-74140000D01*
X161645812Y-74015518D01*
X161609502Y-73895820D01*
X161579102Y-73838946D01*
X161590001Y-73830001D01*
X161613804Y-73800997D01*
X163111004Y-72303798D01*
X163140001Y-72280001D01*
X163183498Y-72227000D01*
X163234974Y-72164277D01*
X163305546Y-72032247D01*
X163323518Y-71973000D01*
X163349003Y-71888986D01*
X163360000Y-71777333D01*
X163360000Y-71777323D01*
X163363676Y-71740001D01*
X163360000Y-71702678D01*
X163360000Y-70504802D01*
X163521928Y-70342874D01*
X163521928Y-72140000D01*
X163534188Y-72264482D01*
X163570498Y-72384180D01*
X163629463Y-72494494D01*
X163708815Y-72591185D01*
X163805506Y-72670537D01*
X163915820Y-72729502D01*
X164035518Y-72765812D01*
X164160000Y-72778072D01*
X165860000Y-72778072D01*
X165984482Y-72765812D01*
X166104180Y-72729502D01*
X166214494Y-72670537D01*
X166311185Y-72591185D01*
X166390537Y-72494494D01*
X166449502Y-72384180D01*
X166485812Y-72264482D01*
X166498072Y-72140000D01*
X166498072Y-70140000D01*
X166485812Y-70015518D01*
X166449502Y-69895820D01*
X166390537Y-69785506D01*
X166311185Y-69688815D01*
X166214494Y-69609463D01*
X166104180Y-69550498D01*
X165984482Y-69514188D01*
X165860000Y-69501928D01*
X165750000Y-69501928D01*
X165750000Y-69307333D01*
X165753677Y-69270000D01*
X165750000Y-69232667D01*
X165750000Y-68848072D01*
X165840000Y-68848072D01*
X165964482Y-68835812D01*
X166084180Y-68799502D01*
X166194494Y-68740537D01*
X166291185Y-68661185D01*
X166370537Y-68564494D01*
X166429502Y-68454180D01*
X166465812Y-68334482D01*
X166478072Y-68210000D01*
X166478072Y-66210000D01*
X166465812Y-66085518D01*
X166429502Y-65965820D01*
X166370537Y-65855506D01*
X166291185Y-65758815D01*
X166194494Y-65679463D01*
X166084180Y-65620498D01*
X165964482Y-65584188D01*
X165840000Y-65571928D01*
X164140000Y-65571928D01*
X164015518Y-65584188D01*
X163895820Y-65620498D01*
X163785506Y-65679463D01*
X163688815Y-65758815D01*
X163609463Y-65855506D01*
X163550498Y-65965820D01*
X163514188Y-66085518D01*
X163501928Y-66210000D01*
X163501928Y-68210000D01*
X163514188Y-68334482D01*
X163550498Y-68454180D01*
X163580335Y-68510000D01*
X163557322Y-68510000D01*
X163519999Y-68506324D01*
X163482676Y-68510000D01*
X163482667Y-68510000D01*
X163371014Y-68520997D01*
X163227753Y-68564454D01*
X163095724Y-68635026D01*
X163095722Y-68635027D01*
X163095723Y-68635027D01*
X163008996Y-68706201D01*
X163008992Y-68706205D01*
X162979999Y-68729999D01*
X162956205Y-68758992D01*
X162088998Y-69626201D01*
X162060000Y-69649999D01*
X162036202Y-69678997D01*
X162036201Y-69678998D01*
X161965026Y-69765724D01*
X161894454Y-69897754D01*
X161850998Y-70041015D01*
X161836324Y-70190000D01*
X161840001Y-70227332D01*
X161840000Y-71425198D01*
X161658072Y-71607126D01*
X161658072Y-70140000D01*
X161645812Y-70015518D01*
X161609502Y-69895820D01*
X161550537Y-69785506D01*
X161471185Y-69688815D01*
X161374494Y-69609463D01*
X161264180Y-69550498D01*
X161144482Y-69514188D01*
X161020000Y-69501928D01*
X160910000Y-69501928D01*
X160910000Y-69127333D01*
X160913677Y-69090000D01*
X160910000Y-69052667D01*
X160910000Y-68838072D01*
X161000000Y-68838072D01*
X161124482Y-68825812D01*
X161244180Y-68789502D01*
X161354494Y-68730537D01*
X161451185Y-68651185D01*
X161530537Y-68554494D01*
X161589502Y-68444180D01*
X161625812Y-68324482D01*
X161638072Y-68200000D01*
X161638072Y-66200000D01*
X161625812Y-66075518D01*
X161589502Y-65955820D01*
X161530537Y-65845506D01*
X161451185Y-65748815D01*
X161354494Y-65669463D01*
X161244180Y-65610498D01*
X161124482Y-65574188D01*
X161000000Y-65561928D01*
X159300000Y-65561928D01*
X159175518Y-65574188D01*
X159055820Y-65610498D01*
X158945506Y-65669463D01*
X158848815Y-65748815D01*
X158769463Y-65845506D01*
X158710498Y-65955820D01*
X158674188Y-66075518D01*
X158661928Y-66200000D01*
X158661928Y-67997127D01*
X158420000Y-67755199D01*
X158420000Y-67202331D01*
X158423677Y-67164998D01*
X158409003Y-67016012D01*
X158365546Y-66872751D01*
X158294974Y-66740722D01*
X158223799Y-66653995D01*
X158200001Y-66624997D01*
X158171004Y-66601200D01*
X156868806Y-65299003D01*
X156845003Y-65269999D01*
X156729278Y-65175026D01*
X156597249Y-65104454D01*
X156453988Y-65060997D01*
X156342335Y-65050000D01*
X156342324Y-65050000D01*
X156305002Y-65046324D01*
X156267680Y-65050000D01*
X154232321Y-65050000D01*
X154194998Y-65046324D01*
X154157675Y-65050000D01*
X154157665Y-65050000D01*
X154046012Y-65060997D01*
X153902751Y-65104454D01*
X153770722Y-65175026D01*
X153654997Y-65269999D01*
X153631199Y-65298997D01*
X152711672Y-66218525D01*
X152711672Y-64704000D01*
X152699412Y-64579518D01*
X152663102Y-64459820D01*
X152604137Y-64349506D01*
X152524785Y-64252815D01*
X152428094Y-64173463D01*
X152317780Y-64114498D01*
X152198082Y-64078188D01*
X152073600Y-64065928D01*
X150346400Y-64065928D01*
X150221918Y-64078188D01*
X150102220Y-64114498D01*
X149991906Y-64173463D01*
X149895215Y-64252815D01*
X149815863Y-64349506D01*
X149756898Y-64459820D01*
X149720588Y-64579518D01*
X149708328Y-64704000D01*
X149708328Y-66660000D01*
X137111322Y-66660000D01*
X137073999Y-66656324D01*
X137036676Y-66660000D01*
X137036667Y-66660000D01*
X136925014Y-66670997D01*
X136781753Y-66714454D01*
X136649723Y-66785026D01*
X136573959Y-66847205D01*
X136533999Y-66879999D01*
X136510201Y-66908997D01*
X135148600Y-68270598D01*
X135148600Y-67993982D01*
X135126916Y-67773824D01*
X135041225Y-67491337D01*
X134902069Y-67230994D01*
X134714797Y-67002803D01*
X134486606Y-66815531D01*
X134226264Y-66676375D01*
X133943777Y-66590684D01*
X133650000Y-66561749D01*
X133356224Y-66590684D01*
X133073737Y-66676375D01*
X132813395Y-66815531D01*
X132585203Y-67002803D01*
X132397931Y-67230994D01*
X132258775Y-67491336D01*
X132173084Y-67773823D01*
X132151400Y-67993981D01*
X132151400Y-68446018D01*
X132173084Y-68666176D01*
X132258775Y-68948663D01*
X132397931Y-69209005D01*
X132585203Y-69437197D01*
X132813394Y-69624469D01*
X133073736Y-69763625D01*
X133356223Y-69849316D01*
X133550726Y-69868473D01*
X133149003Y-70270196D01*
X133119999Y-70293999D01*
X133068851Y-70356324D01*
X133025026Y-70409724D01*
X133005674Y-70445928D01*
X132796400Y-70445928D01*
X132671918Y-70458188D01*
X132552220Y-70494498D01*
X132441906Y-70553463D01*
X132345215Y-70632815D01*
X132265863Y-70729506D01*
X132206898Y-70839820D01*
X132170588Y-70959518D01*
X132158328Y-71084000D01*
X132158328Y-73116000D01*
X132170588Y-73240482D01*
X132206898Y-73360180D01*
X132265863Y-73470494D01*
X132345215Y-73567185D01*
X132441906Y-73646537D01*
X132552220Y-73705502D01*
X132671918Y-73741812D01*
X132796400Y-73754072D01*
X134523600Y-73754072D01*
X134648082Y-73741812D01*
X134767780Y-73705502D01*
X134878094Y-73646537D01*
X134974785Y-73567185D01*
X135054137Y-73470494D01*
X135113102Y-73360180D01*
X135128586Y-73309135D01*
X135135203Y-73317197D01*
X135363395Y-73504469D01*
X135623737Y-73643625D01*
X135906224Y-73729316D01*
X136200000Y-73758251D01*
X136493777Y-73729316D01*
X136776264Y-73643625D01*
X137036606Y-73504469D01*
X137264797Y-73317197D01*
X137452069Y-73089006D01*
X137470000Y-73055459D01*
X137487931Y-73089006D01*
X137675203Y-73317197D01*
X137903395Y-73504469D01*
X138163737Y-73643625D01*
X138446224Y-73729316D01*
X138740000Y-73758251D01*
X139033777Y-73729316D01*
X139316264Y-73643625D01*
X139576606Y-73504469D01*
X139804797Y-73317197D01*
X139992069Y-73089006D01*
X140010000Y-73055459D01*
X140027931Y-73089006D01*
X140215203Y-73317197D01*
X140443395Y-73504469D01*
X140544143Y-73558320D01*
X140574454Y-73658246D01*
X140645026Y-73790276D01*
X140714565Y-73875008D01*
X140740000Y-73906001D01*
X140768998Y-73929799D01*
X141765210Y-74926012D01*
X141789008Y-74955010D01*
X141882733Y-75031928D01*
X140320000Y-75031928D01*
X140195518Y-75044188D01*
X140075820Y-75080498D01*
X139965506Y-75139463D01*
X139868815Y-75218815D01*
X139789463Y-75315506D01*
X139730498Y-75425820D01*
X139697379Y-75535000D01*
X138612621Y-75535000D01*
X138579502Y-75425820D01*
X138520537Y-75315506D01*
X138441185Y-75218815D01*
X138344494Y-75139463D01*
X138234180Y-75080498D01*
X138114482Y-75044188D01*
X137990000Y-75031928D01*
X137161531Y-75031928D01*
X137146449Y-75013551D01*
X136973623Y-74871716D01*
X136776447Y-74766324D01*
X136562499Y-74701423D01*
X136395752Y-74685000D01*
X136395751Y-74685000D01*
X136340000Y-74679509D01*
X136284249Y-74685000D01*
X134782255Y-74685000D01*
X134714797Y-74602803D01*
X134486606Y-74415531D01*
X134226264Y-74276375D01*
X133943777Y-74190684D01*
X133650000Y-74161749D01*
X133356224Y-74190684D01*
X133073737Y-74276375D01*
X132813395Y-74415531D01*
X132585203Y-74602803D01*
X132517745Y-74685000D01*
X132256532Y-74685000D01*
X131545000Y-73973468D01*
X131545000Y-64950000D01*
X132001928Y-64950000D01*
X132014188Y-65074482D01*
X132050498Y-65194180D01*
X132109463Y-65304494D01*
X132188815Y-65401185D01*
X132285506Y-65480537D01*
X132395820Y-65539502D01*
X132515518Y-65575812D01*
X132640000Y-65588072D01*
X133354250Y-65585000D01*
X133513000Y-65426250D01*
X133513000Y-64277000D01*
X133767000Y-64277000D01*
X133767000Y-65426250D01*
X133925750Y-65585000D01*
X134640000Y-65588072D01*
X134647888Y-65587295D01*
X134611423Y-65707502D01*
X134589509Y-65930000D01*
X134611423Y-66152498D01*
X134676324Y-66366446D01*
X134781717Y-66563622D01*
X134923552Y-66736448D01*
X135096378Y-66878283D01*
X135293554Y-66983676D01*
X135507502Y-67048577D01*
X135730000Y-67070491D01*
X135952498Y-67048577D01*
X136166446Y-66983676D01*
X136363622Y-66878283D01*
X136493143Y-66771988D01*
X137677060Y-65588072D01*
X138640000Y-65588072D01*
X138764482Y-65575812D01*
X138884180Y-65539502D01*
X138994494Y-65480537D01*
X139091185Y-65401185D01*
X139170537Y-65304494D01*
X139180957Y-65285000D01*
X140704499Y-65285000D01*
X140758815Y-65351185D01*
X140855506Y-65430537D01*
X140965820Y-65489502D01*
X141085518Y-65525812D01*
X141210000Y-65538072D01*
X143210000Y-65538072D01*
X143334482Y-65525812D01*
X143454180Y-65489502D01*
X143564494Y-65430537D01*
X143661185Y-65351185D01*
X143740537Y-65254494D01*
X143799502Y-65144180D01*
X143835812Y-65024482D01*
X143848072Y-64900000D01*
X144571928Y-64900000D01*
X144584188Y-65024482D01*
X144620498Y-65144180D01*
X144679463Y-65254494D01*
X144758815Y-65351185D01*
X144855506Y-65430537D01*
X144965820Y-65489502D01*
X145085518Y-65525812D01*
X145210000Y-65538072D01*
X145924250Y-65535000D01*
X146083000Y-65376250D01*
X146083000Y-64227000D01*
X146337000Y-64227000D01*
X146337000Y-65376250D01*
X146495750Y-65535000D01*
X147210000Y-65538072D01*
X147334482Y-65525812D01*
X147454180Y-65489502D01*
X147564494Y-65430537D01*
X147661185Y-65351185D01*
X147740537Y-65254494D01*
X147799502Y-65144180D01*
X147835812Y-65024482D01*
X147848072Y-64900000D01*
X147845000Y-64385750D01*
X147686250Y-64227000D01*
X146337000Y-64227000D01*
X146083000Y-64227000D01*
X144733750Y-64227000D01*
X144575000Y-64385750D01*
X144571928Y-64900000D01*
X143848072Y-64900000D01*
X143848072Y-63300000D01*
X144571928Y-63300000D01*
X144575000Y-63814250D01*
X144733750Y-63973000D01*
X146083000Y-63973000D01*
X146083000Y-62823750D01*
X146337000Y-62823750D01*
X146337000Y-63973000D01*
X147686250Y-63973000D01*
X147845000Y-63814250D01*
X147848072Y-63300000D01*
X147835812Y-63175518D01*
X147799502Y-63055820D01*
X147740537Y-62945506D01*
X147661185Y-62848815D01*
X147564494Y-62769463D01*
X147454180Y-62710498D01*
X147334482Y-62674188D01*
X147210000Y-62661928D01*
X146495750Y-62665000D01*
X146337000Y-62823750D01*
X146083000Y-62823750D01*
X145924250Y-62665000D01*
X145210000Y-62661928D01*
X145085518Y-62674188D01*
X144965820Y-62710498D01*
X144855506Y-62769463D01*
X144758815Y-62848815D01*
X144679463Y-62945506D01*
X144620498Y-63055820D01*
X144584188Y-63175518D01*
X144571928Y-63300000D01*
X143848072Y-63300000D01*
X143835812Y-63175518D01*
X143799502Y-63055820D01*
X143740537Y-62945506D01*
X143661185Y-62848815D01*
X143564494Y-62769463D01*
X143454180Y-62710498D01*
X143334482Y-62674188D01*
X143210000Y-62661928D01*
X141210000Y-62661928D01*
X141085518Y-62674188D01*
X140965820Y-62710498D01*
X140855506Y-62769463D01*
X140758815Y-62848815D01*
X140679463Y-62945506D01*
X140642317Y-63015000D01*
X139180957Y-63015000D01*
X139170537Y-62995506D01*
X139091185Y-62898815D01*
X138994494Y-62819463D01*
X138884180Y-62760498D01*
X138764482Y-62724188D01*
X138640000Y-62711928D01*
X136640000Y-62711928D01*
X136515518Y-62724188D01*
X136395820Y-62760498D01*
X136285506Y-62819463D01*
X136188815Y-62898815D01*
X136109463Y-62995506D01*
X136050498Y-63105820D01*
X136014188Y-63225518D01*
X136001928Y-63350000D01*
X136001928Y-64052940D01*
X135277043Y-64777825D01*
X135275000Y-64435750D01*
X135116250Y-64277000D01*
X133767000Y-64277000D01*
X133513000Y-64277000D01*
X132163750Y-64277000D01*
X132005000Y-64435750D01*
X132001928Y-64950000D01*
X131545000Y-64950000D01*
X131545000Y-63350000D01*
X132001928Y-63350000D01*
X132005000Y-63864250D01*
X132163750Y-64023000D01*
X133513000Y-64023000D01*
X133513000Y-62873750D01*
X133767000Y-62873750D01*
X133767000Y-64023000D01*
X135116250Y-64023000D01*
X135275000Y-63864250D01*
X135278072Y-63350000D01*
X135265812Y-63225518D01*
X135229502Y-63105820D01*
X135170537Y-62995506D01*
X135091185Y-62898815D01*
X134994494Y-62819463D01*
X134884180Y-62760498D01*
X134764482Y-62724188D01*
X134640000Y-62711928D01*
X133925750Y-62715000D01*
X133767000Y-62873750D01*
X133513000Y-62873750D01*
X133354250Y-62715000D01*
X132640000Y-62711928D01*
X132515518Y-62724188D01*
X132395820Y-62760498D01*
X132285506Y-62819463D01*
X132188815Y-62898815D01*
X132109463Y-62995506D01*
X132050498Y-63105820D01*
X132014188Y-63225518D01*
X132001928Y-63350000D01*
X131545000Y-63350000D01*
X131545000Y-53679027D01*
X132215037Y-53679027D01*
X132313036Y-53955978D01*
X132463183Y-54208488D01*
X132659707Y-54426854D01*
X132895056Y-54602684D01*
X133160186Y-54729222D01*
X133310974Y-54774958D01*
X133543000Y-54653817D01*
X133543000Y-53447000D01*
X132335536Y-53447000D01*
X132215037Y-53679027D01*
X131545000Y-53679027D01*
X131545000Y-48210131D01*
X131940132Y-47815000D01*
X139014249Y-47815000D01*
X139070000Y-47820491D01*
X139125751Y-47815000D01*
X139125752Y-47815000D01*
X139292499Y-47798577D01*
X139506447Y-47733676D01*
X139703623Y-47628284D01*
X139835949Y-47519687D01*
X139000635Y-48355001D01*
G37*
X139000635Y-48355001D02*
X138642332Y-48355001D01*
X138604999Y-48351324D01*
X138567666Y-48355001D01*
X138456013Y-48365998D01*
X138312752Y-48409455D01*
X138180723Y-48480027D01*
X138064998Y-48575000D01*
X138041200Y-48603998D01*
X137083737Y-49561461D01*
X136919853Y-49451958D01*
X136647125Y-49338990D01*
X136357599Y-49281400D01*
X136062401Y-49281400D01*
X135772875Y-49338990D01*
X135500147Y-49451958D01*
X135254698Y-49615961D01*
X135045961Y-49824698D01*
X134940000Y-49983281D01*
X134834039Y-49824698D01*
X134625302Y-49615961D01*
X134379853Y-49451958D01*
X134107125Y-49338990D01*
X133817599Y-49281400D01*
X133522401Y-49281400D01*
X133232875Y-49338990D01*
X132960147Y-49451958D01*
X132714698Y-49615961D01*
X132505961Y-49824698D01*
X132341958Y-50070147D01*
X132228990Y-50342875D01*
X132171400Y-50632401D01*
X132171400Y-50927599D01*
X132228990Y-51217125D01*
X132341958Y-51489853D01*
X132505961Y-51735302D01*
X132714698Y-51944039D01*
X132875813Y-52051692D01*
X132659707Y-52213146D01*
X132463183Y-52431512D01*
X132313036Y-52684022D01*
X132215037Y-52960973D01*
X132335536Y-53193000D01*
X133543000Y-53193000D01*
X133543000Y-53173000D01*
X133797000Y-53173000D01*
X133797000Y-53193000D01*
X133817000Y-53193000D01*
X133817000Y-53447000D01*
X133797000Y-53447000D01*
X133797000Y-54653817D01*
X134029026Y-54774958D01*
X134179814Y-54729222D01*
X134444944Y-54602684D01*
X134680293Y-54426854D01*
X134876817Y-54208488D01*
X134935441Y-54109897D01*
X135045961Y-54275302D01*
X135254698Y-54484039D01*
X135500147Y-54648042D01*
X135772875Y-54761010D01*
X136062401Y-54818600D01*
X136357599Y-54818600D01*
X136587974Y-54772776D01*
X137256201Y-55441003D01*
X137279999Y-55470001D01*
X137395724Y-55564974D01*
X137527753Y-55635546D01*
X137671014Y-55679003D01*
X137782667Y-55690000D01*
X137782677Y-55690000D01*
X137820000Y-55693676D01*
X137857323Y-55690000D01*
X141502678Y-55690000D01*
X141540000Y-55693676D01*
X141577322Y-55690000D01*
X141577333Y-55690000D01*
X141688986Y-55679003D01*
X141832247Y-55635546D01*
X141964276Y-55564974D01*
X142080001Y-55470001D01*
X142103804Y-55440998D01*
X142986236Y-54558566D01*
X143120147Y-54648042D01*
X143392875Y-54761010D01*
X143682401Y-54818600D01*
X143977599Y-54818600D01*
X144267125Y-54761010D01*
X144539853Y-54648042D01*
X144785302Y-54484039D01*
X144994039Y-54275302D01*
X145100000Y-54116719D01*
X145205961Y-54275302D01*
X145414698Y-54484039D01*
X145660147Y-54648042D01*
X145932875Y-54761010D01*
X146222401Y-54818600D01*
X146517599Y-54818600D01*
X146807125Y-54761010D01*
X147079853Y-54648042D01*
X147325302Y-54484039D01*
X147534039Y-54275302D01*
X147640000Y-54116719D01*
X147745961Y-54275302D01*
X147954698Y-54484039D01*
X147964566Y-54490632D01*
X144163887Y-58291312D01*
X143981335Y-58255000D01*
X143698665Y-58255000D01*
X143421426Y-58310147D01*
X143160273Y-58418320D01*
X142925241Y-58575363D01*
X142725363Y-58775241D01*
X142570000Y-59007759D01*
X142414637Y-58775241D01*
X142214759Y-58575363D01*
X141979727Y-58418320D01*
X141718574Y-58310147D01*
X141441335Y-58255000D01*
X141158665Y-58255000D01*
X140881426Y-58310147D01*
X140620273Y-58418320D01*
X140385241Y-58575363D01*
X140185363Y-58775241D01*
X140030000Y-59007759D01*
X139874637Y-58775241D01*
X139674759Y-58575363D01*
X139439727Y-58418320D01*
X139178574Y-58310147D01*
X138901335Y-58255000D01*
X138618665Y-58255000D01*
X138341426Y-58310147D01*
X138080273Y-58418320D01*
X137845241Y-58575363D01*
X137645363Y-58775241D01*
X137490000Y-59007759D01*
X137334637Y-58775241D01*
X137134759Y-58575363D01*
X136899727Y-58418320D01*
X136638574Y-58310147D01*
X136361335Y-58255000D01*
X136078665Y-58255000D01*
X135801426Y-58310147D01*
X135540273Y-58418320D01*
X135305241Y-58575363D01*
X135106643Y-58773961D01*
X135105812Y-58765518D01*
X135069502Y-58645820D01*
X135010537Y-58535506D01*
X134931185Y-58438815D01*
X134834494Y-58359463D01*
X134724180Y-58300498D01*
X134604482Y-58264188D01*
X134480000Y-58251928D01*
X132880000Y-58251928D01*
X132755518Y-58264188D01*
X132635820Y-58300498D01*
X132525506Y-58359463D01*
X132428815Y-58438815D01*
X132349463Y-58535506D01*
X132290498Y-58645820D01*
X132254188Y-58765518D01*
X132241928Y-58890000D01*
X132241928Y-60490000D01*
X132254188Y-60614482D01*
X132290498Y-60734180D01*
X132349463Y-60844494D01*
X132428815Y-60941185D01*
X132525506Y-61020537D01*
X132635820Y-61079502D01*
X132755518Y-61115812D01*
X132880000Y-61128072D01*
X134480000Y-61128072D01*
X134604482Y-61115812D01*
X134724180Y-61079502D01*
X134834494Y-61020537D01*
X134931185Y-60941185D01*
X135010537Y-60844494D01*
X135069502Y-60734180D01*
X135105812Y-60614482D01*
X135106643Y-60606039D01*
X135305241Y-60804637D01*
X135540273Y-60961680D01*
X135801426Y-61069853D01*
X136078665Y-61125000D01*
X136361335Y-61125000D01*
X136638574Y-61069853D01*
X136899727Y-60961680D01*
X137134759Y-60804637D01*
X137334637Y-60604759D01*
X137490000Y-60372241D01*
X137645363Y-60604759D01*
X137845241Y-60804637D01*
X138080273Y-60961680D01*
X138341426Y-61069853D01*
X138618665Y-61125000D01*
X138901335Y-61125000D01*
X139178574Y-61069853D01*
X139439727Y-60961680D01*
X139674759Y-60804637D01*
X139874637Y-60604759D01*
X140030000Y-60372241D01*
X140185363Y-60604759D01*
X140385241Y-60804637D01*
X140620273Y-60961680D01*
X140881426Y-61069853D01*
X141158665Y-61125000D01*
X141441335Y-61125000D01*
X141718574Y-61069853D01*
X141979727Y-60961680D01*
X142214759Y-60804637D01*
X142414637Y-60604759D01*
X142570000Y-60372241D01*
X142725363Y-60604759D01*
X142925241Y-60804637D01*
X143160273Y-60961680D01*
X143421426Y-61069853D01*
X143698665Y-61125000D01*
X143981335Y-61125000D01*
X144258574Y-61069853D01*
X144519727Y-60961680D01*
X144754759Y-60804637D01*
X144954637Y-60604759D01*
X145110000Y-60372241D01*
X145265363Y-60604759D01*
X145465241Y-60804637D01*
X145700273Y-60961680D01*
X145961426Y-61069853D01*
X146238665Y-61125000D01*
X146521335Y-61125000D01*
X146798574Y-61069853D01*
X147059727Y-60961680D01*
X147294759Y-60804637D01*
X147494637Y-60604759D01*
X147650000Y-60372241D01*
X147805363Y-60604759D01*
X148005241Y-60804637D01*
X148240273Y-60961680D01*
X148501426Y-61069853D01*
X148778665Y-61125000D01*
X149061335Y-61125000D01*
X149338574Y-61069853D01*
X149599727Y-60961680D01*
X149834759Y-60804637D01*
X150034637Y-60604759D01*
X150190000Y-60372241D01*
X150345363Y-60604759D01*
X150545241Y-60804637D01*
X150780273Y-60961680D01*
X151041426Y-61069853D01*
X151318665Y-61125000D01*
X151601335Y-61125000D01*
X151878574Y-61069853D01*
X152139727Y-60961680D01*
X152374759Y-60804637D01*
X152574637Y-60604759D01*
X152730000Y-60372241D01*
X152885363Y-60604759D01*
X153085241Y-60804637D01*
X153320273Y-60961680D01*
X153581426Y-61069853D01*
X153858665Y-61125000D01*
X154141335Y-61125000D01*
X154418574Y-61069853D01*
X154679727Y-60961680D01*
X154914759Y-60804637D01*
X155114637Y-60604759D01*
X155270000Y-60372241D01*
X155425363Y-60604759D01*
X155465823Y-60645219D01*
X155459999Y-60649999D01*
X155436201Y-60678998D01*
X154739002Y-61376197D01*
X154709999Y-61399999D01*
X154667121Y-61452247D01*
X154615026Y-61515724D01*
X154595674Y-61551928D01*
X154400000Y-61551928D01*
X154275518Y-61564188D01*
X154155820Y-61600498D01*
X154045506Y-61659463D01*
X153948815Y-61738815D01*
X153869463Y-61835506D01*
X153810498Y-61945820D01*
X153774188Y-62065518D01*
X153761928Y-62190000D01*
X153761928Y-64190000D01*
X153774188Y-64314482D01*
X153810498Y-64434180D01*
X153869463Y-64544494D01*
X153948815Y-64641185D01*
X154045506Y-64720537D01*
X154155820Y-64779502D01*
X154275518Y-64815812D01*
X154400000Y-64828072D01*
X156100000Y-64828072D01*
X156224482Y-64815812D01*
X156344180Y-64779502D01*
X156454494Y-64720537D01*
X156551185Y-64641185D01*
X156630537Y-64544494D01*
X156689502Y-64434180D01*
X156725812Y-64314482D01*
X156738072Y-64190000D01*
X156738072Y-63509860D01*
X156812795Y-63690256D01*
X156926063Y-63859774D01*
X157070226Y-64003937D01*
X157239744Y-64117205D01*
X157428102Y-64195226D01*
X157628061Y-64235000D01*
X157831939Y-64235000D01*
X158031898Y-64195226D01*
X158220256Y-64117205D01*
X158389774Y-64003937D01*
X158533937Y-63859774D01*
X158647205Y-63690256D01*
X158661928Y-63654712D01*
X158661928Y-64200000D01*
X158674188Y-64324482D01*
X158710498Y-64444180D01*
X158769463Y-64554494D01*
X158848815Y-64651185D01*
X158945506Y-64730537D01*
X159055820Y-64789502D01*
X159175518Y-64825812D01*
X159300000Y-64838072D01*
X161000000Y-64838072D01*
X161124482Y-64825812D01*
X161244180Y-64789502D01*
X161354494Y-64730537D01*
X161451185Y-64651185D01*
X161530537Y-64554494D01*
X161589502Y-64444180D01*
X161625812Y-64324482D01*
X161638072Y-64200000D01*
X161638072Y-63558144D01*
X161692795Y-63690256D01*
X161806063Y-63859774D01*
X161950226Y-64003937D01*
X162119744Y-64117205D01*
X162308102Y-64195226D01*
X162508061Y-64235000D01*
X162711939Y-64235000D01*
X162911898Y-64195226D01*
X163100256Y-64117205D01*
X163269774Y-64003937D01*
X163413937Y-63859774D01*
X163501928Y-63728086D01*
X163501928Y-64210000D01*
X163514188Y-64334482D01*
X163550498Y-64454180D01*
X163609463Y-64564494D01*
X163688815Y-64661185D01*
X163785506Y-64740537D01*
X163895820Y-64799502D01*
X164015518Y-64835812D01*
X164140000Y-64848072D01*
X165840000Y-64848072D01*
X165964482Y-64835812D01*
X166084180Y-64799502D01*
X166194494Y-64740537D01*
X166291185Y-64661185D01*
X166370537Y-64564494D01*
X166429502Y-64454180D01*
X166465812Y-64334482D01*
X166478072Y-64210000D01*
X166478072Y-63970000D01*
X167347680Y-63970000D01*
X167385002Y-63973676D01*
X167422324Y-63970000D01*
X167422335Y-63970000D01*
X167533988Y-63959003D01*
X167677249Y-63915546D01*
X167809278Y-63844974D01*
X167925003Y-63750001D01*
X167948806Y-63720997D01*
X170605000Y-61064804D01*
X170605000Y-62789868D01*
X169348941Y-64045928D01*
X168294000Y-64045928D01*
X168169518Y-64058188D01*
X168049820Y-64094498D01*
X167939506Y-64153463D01*
X167842815Y-64232815D01*
X167763463Y-64329506D01*
X167704498Y-64439820D01*
X167668188Y-64559518D01*
X167655928Y-64684000D01*
X167655928Y-66716000D01*
X167668188Y-66840482D01*
X167704498Y-66960180D01*
X167763463Y-67070494D01*
X167842815Y-67167185D01*
X167939506Y-67246537D01*
X167975364Y-67265704D01*
X167846903Y-67457958D01*
X167722447Y-67758421D01*
X167659000Y-68077391D01*
X167659000Y-68402609D01*
X167722447Y-68721579D01*
X167846903Y-69022042D01*
X168027585Y-69292451D01*
X168257549Y-69522415D01*
X168527958Y-69703097D01*
X168828421Y-69827553D01*
X169147391Y-69891000D01*
X169472609Y-69891000D01*
X169791579Y-69827553D01*
X170092042Y-69703097D01*
X170362451Y-69522415D01*
X170592415Y-69292451D01*
X170773097Y-69022042D01*
X170897553Y-68721579D01*
X170961000Y-68402609D01*
X170961000Y-68077391D01*
X170897553Y-67758421D01*
X170773097Y-67457958D01*
X170644636Y-67265704D01*
X170680494Y-67246537D01*
X170777185Y-67167185D01*
X170856537Y-67070494D01*
X170915502Y-66960180D01*
X170951812Y-66840482D01*
X170964072Y-66716000D01*
X170964072Y-65641059D01*
X172023000Y-64582132D01*
X172023000Y-81753000D01*
X142549897Y-81753000D01*
X142558072Y-81670000D01*
X142558072Y-79670000D01*
X142545812Y-79545518D01*
X142509502Y-79425820D01*
X142450537Y-79315506D01*
X142371185Y-79218815D01*
X142274494Y-79139463D01*
X142164180Y-79080498D01*
X142044482Y-79044188D01*
X141920000Y-79031928D01*
X140320000Y-79031928D01*
X140195518Y-79044188D01*
X140075820Y-79080498D01*
X139965506Y-79139463D01*
X139868815Y-79218815D01*
X139789463Y-79315506D01*
X139730498Y-79425820D01*
X139697379Y-79535000D01*
X138612621Y-79535000D01*
X138579502Y-79425820D01*
X138520537Y-79315506D01*
X138441185Y-79218815D01*
X138344494Y-79139463D01*
X138234180Y-79080498D01*
X138114482Y-79044188D01*
X137990000Y-79031928D01*
X136390000Y-79031928D01*
X136265518Y-79044188D01*
X136145820Y-79080498D01*
X136035506Y-79139463D01*
X135938815Y-79218815D01*
X135859463Y-79315506D01*
X135800498Y-79425820D01*
X135764188Y-79545518D01*
X135751928Y-79670000D01*
X135751928Y-81670000D01*
X135760103Y-81753000D01*
X130086558Y-81753000D01*
X130065466Y-75704198D01*
X130944413Y-76583146D01*
X130979951Y-76626449D01*
X131023254Y-76661987D01*
X131023256Y-76661989D01*
X131152777Y-76768284D01*
X131349953Y-76873676D01*
X131563901Y-76938577D01*
X131786400Y-76960491D01*
X131842152Y-76955000D01*
X132517746Y-76955000D01*
X132585203Y-77037197D01*
X132813394Y-77224469D01*
X133073736Y-77363625D01*
X133356223Y-77449316D01*
X133650000Y-77478251D01*
X133943776Y-77449316D01*
X134226263Y-77363625D01*
X134486605Y-77224469D01*
X134714797Y-77037197D01*
X134782255Y-76955000D01*
X135751928Y-76955000D01*
X135751928Y-77670000D01*
X135764188Y-77794482D01*
X135800498Y-77914180D01*
X135859463Y-78024494D01*
X135938815Y-78121185D01*
X136035506Y-78200537D01*
X136145820Y-78259502D01*
X136265518Y-78295812D01*
X136390000Y-78308072D01*
X137990000Y-78308072D01*
X138114482Y-78295812D01*
X138234180Y-78259502D01*
X138344494Y-78200537D01*
X138441185Y-78121185D01*
X138520537Y-78024494D01*
X138579502Y-77914180D01*
X138612621Y-77805000D01*
X139697379Y-77805000D01*
X139730498Y-77914180D01*
X139789463Y-78024494D01*
X139868815Y-78121185D01*
X139965506Y-78200537D01*
X140075820Y-78259502D01*
X140195518Y-78295812D01*
X140320000Y-78308072D01*
X141920000Y-78308072D01*
X142044482Y-78295812D01*
X142164180Y-78259502D01*
X142274494Y-78200537D01*
X142371185Y-78121185D01*
X142393510Y-78093981D01*
X149751400Y-78093981D01*
X149751400Y-78546018D01*
X149773084Y-78766176D01*
X149858775Y-79048663D01*
X149997931Y-79309005D01*
X150185203Y-79537197D01*
X150413394Y-79724469D01*
X150673736Y-79863625D01*
X150956223Y-79949316D01*
X151250000Y-79978251D01*
X151543776Y-79949316D01*
X151826263Y-79863625D01*
X152086605Y-79724469D01*
X152314797Y-79537197D01*
X152502069Y-79309006D01*
X152641225Y-79048664D01*
X152726916Y-78766177D01*
X152748600Y-78546019D01*
X152748600Y-78093982D01*
X152726916Y-77873824D01*
X152641225Y-77591337D01*
X152502069Y-77330994D01*
X152314797Y-77102803D01*
X152086606Y-76915531D01*
X151826264Y-76776375D01*
X151543777Y-76690684D01*
X151250000Y-76661749D01*
X150956224Y-76690684D01*
X150673737Y-76776375D01*
X150413395Y-76915531D01*
X150185203Y-77102803D01*
X149997931Y-77330994D01*
X149858775Y-77591336D01*
X149773084Y-77873823D01*
X149751400Y-78093981D01*
X142393510Y-78093981D01*
X142450537Y-78024494D01*
X142509502Y-77914180D01*
X142545812Y-77794482D01*
X142558072Y-77670000D01*
X142558072Y-75670000D01*
X142545812Y-75545518D01*
X142509502Y-75425820D01*
X142450537Y-75315506D01*
X142371185Y-75218815D01*
X142321370Y-75177933D01*
X142329009Y-75178685D01*
X142366334Y-75175009D01*
X153038286Y-75175009D01*
X153075608Y-75178685D01*
X153112930Y-75175009D01*
X153112941Y-75175009D01*
X153224594Y-75164012D01*
X153367855Y-75120555D01*
X153499833Y-75050010D01*
X153577546Y-75050010D01*
X153777505Y-75010236D01*
X153781928Y-75008404D01*
X153781928Y-76130000D01*
X153794188Y-76254482D01*
X153830498Y-76374180D01*
X153889463Y-76484494D01*
X153968815Y-76581185D01*
X154065506Y-76660537D01*
X154175820Y-76719502D01*
X154295518Y-76755812D01*
X154420000Y-76768072D01*
X156120000Y-76768072D01*
X156244482Y-76755812D01*
X156364180Y-76719502D01*
X156474494Y-76660537D01*
X156571185Y-76581185D01*
X156650537Y-76484494D01*
X156709502Y-76374180D01*
X156745812Y-76254482D01*
X156758072Y-76130000D01*
X156758072Y-74130000D01*
X156750193Y-74050000D01*
X158690792Y-74050000D01*
X158681928Y-74140000D01*
X158681928Y-76140000D01*
X158694188Y-76264482D01*
X158730498Y-76384180D01*
X158789463Y-76494494D01*
X158868815Y-76591185D01*
X158965506Y-76670537D01*
X159075820Y-76729502D01*
X159195518Y-76765812D01*
X159320000Y-76778072D01*
X161020000Y-76778072D01*
X161144482Y-76765812D01*
X161264180Y-76729502D01*
X161374494Y-76670537D01*
X161471185Y-76591185D01*
X161550537Y-76494494D01*
X161609502Y-76384180D01*
X161645812Y-76264482D01*
X161658072Y-76140000D01*
X161658072Y-74140000D01*
X163521928Y-74140000D01*
X163521928Y-76140000D01*
X163534188Y-76264482D01*
X163570498Y-76384180D01*
X163629463Y-76494494D01*
X163708815Y-76591185D01*
X163805506Y-76670537D01*
X163915820Y-76729502D01*
X164035518Y-76765812D01*
X164160000Y-76778072D01*
X165860000Y-76778072D01*
X165984482Y-76765812D01*
X166104180Y-76729502D01*
X166214494Y-76670537D01*
X166311185Y-76591185D01*
X166390537Y-76494494D01*
X166449502Y-76384180D01*
X166485812Y-76264482D01*
X166498072Y-76140000D01*
X166498072Y-74814000D01*
X167595928Y-74814000D01*
X167595928Y-76846000D01*
X167608188Y-76970482D01*
X167644498Y-77090180D01*
X167703463Y-77200494D01*
X167782815Y-77297185D01*
X167879506Y-77376537D01*
X167915364Y-77395704D01*
X167786903Y-77587958D01*
X167662447Y-77888421D01*
X167599000Y-78207391D01*
X167599000Y-78532609D01*
X167662447Y-78851579D01*
X167786903Y-79152042D01*
X167967585Y-79422451D01*
X168197549Y-79652415D01*
X168467958Y-79833097D01*
X168768421Y-79957553D01*
X169087391Y-80021000D01*
X169412609Y-80021000D01*
X169731579Y-79957553D01*
X170032042Y-79833097D01*
X170302451Y-79652415D01*
X170532415Y-79422451D01*
X170713097Y-79152042D01*
X170837553Y-78851579D01*
X170901000Y-78532609D01*
X170901000Y-78207391D01*
X170837553Y-77888421D01*
X170713097Y-77587958D01*
X170584636Y-77395704D01*
X170620494Y-77376537D01*
X170717185Y-77297185D01*
X170796537Y-77200494D01*
X170855502Y-77090180D01*
X170891812Y-76970482D01*
X170904072Y-76846000D01*
X170904072Y-74814000D01*
X170891812Y-74689518D01*
X170855502Y-74569820D01*
X170796537Y-74459506D01*
X170717185Y-74362815D01*
X170620494Y-74283463D01*
X170510180Y-74224498D01*
X170390482Y-74188188D01*
X170266000Y-74175928D01*
X168234000Y-74175928D01*
X168109518Y-74188188D01*
X167989820Y-74224498D01*
X167879506Y-74283463D01*
X167782815Y-74362815D01*
X167703463Y-74459506D01*
X167644498Y-74569820D01*
X167608188Y-74689518D01*
X167595928Y-74814000D01*
X166498072Y-74814000D01*
X166498072Y-74140000D01*
X166485812Y-74015518D01*
X166449502Y-73895820D01*
X166390537Y-73785506D01*
X166311185Y-73688815D01*
X166214494Y-73609463D01*
X166104180Y-73550498D01*
X165984482Y-73514188D01*
X165860000Y-73501928D01*
X164160000Y-73501928D01*
X164035518Y-73514188D01*
X163915820Y-73550498D01*
X163805506Y-73609463D01*
X163708815Y-73688815D01*
X163629463Y-73785506D01*
X163570498Y-73895820D01*
X163534188Y-74015518D01*
X163521928Y-74140000D01*
X161658072Y-74140000D01*
X161645812Y-74015518D01*
X161609502Y-73895820D01*
X161579102Y-73838946D01*
X161590001Y-73830001D01*
X161613804Y-73800997D01*
X163111004Y-72303798D01*
X163140001Y-72280001D01*
X163183498Y-72227000D01*
X163234974Y-72164277D01*
X163305546Y-72032247D01*
X163323518Y-71973000D01*
X163349003Y-71888986D01*
X163360000Y-71777333D01*
X163360000Y-71777323D01*
X163363676Y-71740001D01*
X163360000Y-71702678D01*
X163360000Y-70504802D01*
X163521928Y-70342874D01*
X163521928Y-72140000D01*
X163534188Y-72264482D01*
X163570498Y-72384180D01*
X163629463Y-72494494D01*
X163708815Y-72591185D01*
X163805506Y-72670537D01*
X163915820Y-72729502D01*
X164035518Y-72765812D01*
X164160000Y-72778072D01*
X165860000Y-72778072D01*
X165984482Y-72765812D01*
X166104180Y-72729502D01*
X166214494Y-72670537D01*
X166311185Y-72591185D01*
X166390537Y-72494494D01*
X166449502Y-72384180D01*
X166485812Y-72264482D01*
X166498072Y-72140000D01*
X166498072Y-70140000D01*
X166485812Y-70015518D01*
X166449502Y-69895820D01*
X166390537Y-69785506D01*
X166311185Y-69688815D01*
X166214494Y-69609463D01*
X166104180Y-69550498D01*
X165984482Y-69514188D01*
X165860000Y-69501928D01*
X165750000Y-69501928D01*
X165750000Y-69307333D01*
X165753677Y-69270000D01*
X165750000Y-69232667D01*
X165750000Y-68848072D01*
X165840000Y-68848072D01*
X165964482Y-68835812D01*
X166084180Y-68799502D01*
X166194494Y-68740537D01*
X166291185Y-68661185D01*
X166370537Y-68564494D01*
X166429502Y-68454180D01*
X166465812Y-68334482D01*
X166478072Y-68210000D01*
X166478072Y-66210000D01*
X166465812Y-66085518D01*
X166429502Y-65965820D01*
X166370537Y-65855506D01*
X166291185Y-65758815D01*
X166194494Y-65679463D01*
X166084180Y-65620498D01*
X165964482Y-65584188D01*
X165840000Y-65571928D01*
X164140000Y-65571928D01*
X164015518Y-65584188D01*
X163895820Y-65620498D01*
X163785506Y-65679463D01*
X163688815Y-65758815D01*
X163609463Y-65855506D01*
X163550498Y-65965820D01*
X163514188Y-66085518D01*
X163501928Y-66210000D01*
X163501928Y-68210000D01*
X163514188Y-68334482D01*
X163550498Y-68454180D01*
X163580335Y-68510000D01*
X163557322Y-68510000D01*
X163519999Y-68506324D01*
X163482676Y-68510000D01*
X163482667Y-68510000D01*
X163371014Y-68520997D01*
X163227753Y-68564454D01*
X163095724Y-68635026D01*
X163095722Y-68635027D01*
X163095723Y-68635027D01*
X163008996Y-68706201D01*
X163008992Y-68706205D01*
X162979999Y-68729999D01*
X162956205Y-68758992D01*
X162088998Y-69626201D01*
X162060000Y-69649999D01*
X162036202Y-69678997D01*
X162036201Y-69678998D01*
X161965026Y-69765724D01*
X161894454Y-69897754D01*
X161850998Y-70041015D01*
X161836324Y-70190000D01*
X161840001Y-70227332D01*
X161840000Y-71425198D01*
X161658072Y-71607126D01*
X161658072Y-70140000D01*
X161645812Y-70015518D01*
X161609502Y-69895820D01*
X161550537Y-69785506D01*
X161471185Y-69688815D01*
X161374494Y-69609463D01*
X161264180Y-69550498D01*
X161144482Y-69514188D01*
X161020000Y-69501928D01*
X160910000Y-69501928D01*
X160910000Y-69127333D01*
X160913677Y-69090000D01*
X160910000Y-69052667D01*
X160910000Y-68838072D01*
X161000000Y-68838072D01*
X161124482Y-68825812D01*
X161244180Y-68789502D01*
X161354494Y-68730537D01*
X161451185Y-68651185D01*
X161530537Y-68554494D01*
X161589502Y-68444180D01*
X161625812Y-68324482D01*
X161638072Y-68200000D01*
X161638072Y-66200000D01*
X161625812Y-66075518D01*
X161589502Y-65955820D01*
X161530537Y-65845506D01*
X161451185Y-65748815D01*
X161354494Y-65669463D01*
X161244180Y-65610498D01*
X161124482Y-65574188D01*
X161000000Y-65561928D01*
X159300000Y-65561928D01*
X159175518Y-65574188D01*
X159055820Y-65610498D01*
X158945506Y-65669463D01*
X158848815Y-65748815D01*
X158769463Y-65845506D01*
X158710498Y-65955820D01*
X158674188Y-66075518D01*
X158661928Y-66200000D01*
X158661928Y-67997127D01*
X158420000Y-67755199D01*
X158420000Y-67202331D01*
X158423677Y-67164998D01*
X158409003Y-67016012D01*
X158365546Y-66872751D01*
X158294974Y-66740722D01*
X158223799Y-66653995D01*
X158200001Y-66624997D01*
X158171004Y-66601200D01*
X156868806Y-65299003D01*
X156845003Y-65269999D01*
X156729278Y-65175026D01*
X156597249Y-65104454D01*
X156453988Y-65060997D01*
X156342335Y-65050000D01*
X156342324Y-65050000D01*
X156305002Y-65046324D01*
X156267680Y-65050000D01*
X154232321Y-65050000D01*
X154194998Y-65046324D01*
X154157675Y-65050000D01*
X154157665Y-65050000D01*
X154046012Y-65060997D01*
X153902751Y-65104454D01*
X153770722Y-65175026D01*
X153654997Y-65269999D01*
X153631199Y-65298997D01*
X152711672Y-66218525D01*
X152711672Y-64704000D01*
X152699412Y-64579518D01*
X152663102Y-64459820D01*
X152604137Y-64349506D01*
X152524785Y-64252815D01*
X152428094Y-64173463D01*
X152317780Y-64114498D01*
X152198082Y-64078188D01*
X152073600Y-64065928D01*
X150346400Y-64065928D01*
X150221918Y-64078188D01*
X150102220Y-64114498D01*
X149991906Y-64173463D01*
X149895215Y-64252815D01*
X149815863Y-64349506D01*
X149756898Y-64459820D01*
X149720588Y-64579518D01*
X149708328Y-64704000D01*
X149708328Y-66660000D01*
X137111322Y-66660000D01*
X137073999Y-66656324D01*
X137036676Y-66660000D01*
X137036667Y-66660000D01*
X136925014Y-66670997D01*
X136781753Y-66714454D01*
X136649723Y-66785026D01*
X136573959Y-66847205D01*
X136533999Y-66879999D01*
X136510201Y-66908997D01*
X135148600Y-68270598D01*
X135148600Y-67993982D01*
X135126916Y-67773824D01*
X135041225Y-67491337D01*
X134902069Y-67230994D01*
X134714797Y-67002803D01*
X134486606Y-66815531D01*
X134226264Y-66676375D01*
X133943777Y-66590684D01*
X133650000Y-66561749D01*
X133356224Y-66590684D01*
X133073737Y-66676375D01*
X132813395Y-66815531D01*
X132585203Y-67002803D01*
X132397931Y-67230994D01*
X132258775Y-67491336D01*
X132173084Y-67773823D01*
X132151400Y-67993981D01*
X132151400Y-68446018D01*
X132173084Y-68666176D01*
X132258775Y-68948663D01*
X132397931Y-69209005D01*
X132585203Y-69437197D01*
X132813394Y-69624469D01*
X133073736Y-69763625D01*
X133356223Y-69849316D01*
X133550726Y-69868473D01*
X133149003Y-70270196D01*
X133119999Y-70293999D01*
X133068851Y-70356324D01*
X133025026Y-70409724D01*
X133005674Y-70445928D01*
X132796400Y-70445928D01*
X132671918Y-70458188D01*
X132552220Y-70494498D01*
X132441906Y-70553463D01*
X132345215Y-70632815D01*
X132265863Y-70729506D01*
X132206898Y-70839820D01*
X132170588Y-70959518D01*
X132158328Y-71084000D01*
X132158328Y-73116000D01*
X132170588Y-73240482D01*
X132206898Y-73360180D01*
X132265863Y-73470494D01*
X132345215Y-73567185D01*
X132441906Y-73646537D01*
X132552220Y-73705502D01*
X132671918Y-73741812D01*
X132796400Y-73754072D01*
X134523600Y-73754072D01*
X134648082Y-73741812D01*
X134767780Y-73705502D01*
X134878094Y-73646537D01*
X134974785Y-73567185D01*
X135054137Y-73470494D01*
X135113102Y-73360180D01*
X135128586Y-73309135D01*
X135135203Y-73317197D01*
X135363395Y-73504469D01*
X135623737Y-73643625D01*
X135906224Y-73729316D01*
X136200000Y-73758251D01*
X136493777Y-73729316D01*
X136776264Y-73643625D01*
X137036606Y-73504469D01*
X137264797Y-73317197D01*
X137452069Y-73089006D01*
X137470000Y-73055459D01*
X137487931Y-73089006D01*
X137675203Y-73317197D01*
X137903395Y-73504469D01*
X138163737Y-73643625D01*
X138446224Y-73729316D01*
X138740000Y-73758251D01*
X139033777Y-73729316D01*
X139316264Y-73643625D01*
X139576606Y-73504469D01*
X139804797Y-73317197D01*
X139992069Y-73089006D01*
X140010000Y-73055459D01*
X140027931Y-73089006D01*
X140215203Y-73317197D01*
X140443395Y-73504469D01*
X140544143Y-73558320D01*
X140574454Y-73658246D01*
X140645026Y-73790276D01*
X140714565Y-73875008D01*
X140740000Y-73906001D01*
X140768998Y-73929799D01*
X141765210Y-74926012D01*
X141789008Y-74955010D01*
X141882733Y-75031928D01*
X140320000Y-75031928D01*
X140195518Y-75044188D01*
X140075820Y-75080498D01*
X139965506Y-75139463D01*
X139868815Y-75218815D01*
X139789463Y-75315506D01*
X139730498Y-75425820D01*
X139697379Y-75535000D01*
X138612621Y-75535000D01*
X138579502Y-75425820D01*
X138520537Y-75315506D01*
X138441185Y-75218815D01*
X138344494Y-75139463D01*
X138234180Y-75080498D01*
X138114482Y-75044188D01*
X137990000Y-75031928D01*
X137161531Y-75031928D01*
X137146449Y-75013551D01*
X136973623Y-74871716D01*
X136776447Y-74766324D01*
X136562499Y-74701423D01*
X136395752Y-74685000D01*
X136395751Y-74685000D01*
X136340000Y-74679509D01*
X136284249Y-74685000D01*
X134782255Y-74685000D01*
X134714797Y-74602803D01*
X134486606Y-74415531D01*
X134226264Y-74276375D01*
X133943777Y-74190684D01*
X133650000Y-74161749D01*
X133356224Y-74190684D01*
X133073737Y-74276375D01*
X132813395Y-74415531D01*
X132585203Y-74602803D01*
X132517745Y-74685000D01*
X132256532Y-74685000D01*
X131545000Y-73973468D01*
X131545000Y-64950000D01*
X132001928Y-64950000D01*
X132014188Y-65074482D01*
X132050498Y-65194180D01*
X132109463Y-65304494D01*
X132188815Y-65401185D01*
X132285506Y-65480537D01*
X132395820Y-65539502D01*
X132515518Y-65575812D01*
X132640000Y-65588072D01*
X133354250Y-65585000D01*
X133513000Y-65426250D01*
X133513000Y-64277000D01*
X133767000Y-64277000D01*
X133767000Y-65426250D01*
X133925750Y-65585000D01*
X134640000Y-65588072D01*
X134647888Y-65587295D01*
X134611423Y-65707502D01*
X134589509Y-65930000D01*
X134611423Y-66152498D01*
X134676324Y-66366446D01*
X134781717Y-66563622D01*
X134923552Y-66736448D01*
X135096378Y-66878283D01*
X135293554Y-66983676D01*
X135507502Y-67048577D01*
X135730000Y-67070491D01*
X135952498Y-67048577D01*
X136166446Y-66983676D01*
X136363622Y-66878283D01*
X136493143Y-66771988D01*
X137677060Y-65588072D01*
X138640000Y-65588072D01*
X138764482Y-65575812D01*
X138884180Y-65539502D01*
X138994494Y-65480537D01*
X139091185Y-65401185D01*
X139170537Y-65304494D01*
X139180957Y-65285000D01*
X140704499Y-65285000D01*
X140758815Y-65351185D01*
X140855506Y-65430537D01*
X140965820Y-65489502D01*
X141085518Y-65525812D01*
X141210000Y-65538072D01*
X143210000Y-65538072D01*
X143334482Y-65525812D01*
X143454180Y-65489502D01*
X143564494Y-65430537D01*
X143661185Y-65351185D01*
X143740537Y-65254494D01*
X143799502Y-65144180D01*
X143835812Y-65024482D01*
X143848072Y-64900000D01*
X144571928Y-64900000D01*
X144584188Y-65024482D01*
X144620498Y-65144180D01*
X144679463Y-65254494D01*
X144758815Y-65351185D01*
X144855506Y-65430537D01*
X144965820Y-65489502D01*
X145085518Y-65525812D01*
X145210000Y-65538072D01*
X145924250Y-65535000D01*
X146083000Y-65376250D01*
X146083000Y-64227000D01*
X146337000Y-64227000D01*
X146337000Y-65376250D01*
X146495750Y-65535000D01*
X147210000Y-65538072D01*
X147334482Y-65525812D01*
X147454180Y-65489502D01*
X147564494Y-65430537D01*
X147661185Y-65351185D01*
X147740537Y-65254494D01*
X147799502Y-65144180D01*
X147835812Y-65024482D01*
X147848072Y-64900000D01*
X147845000Y-64385750D01*
X147686250Y-64227000D01*
X146337000Y-64227000D01*
X146083000Y-64227000D01*
X144733750Y-64227000D01*
X144575000Y-64385750D01*
X144571928Y-64900000D01*
X143848072Y-64900000D01*
X143848072Y-63300000D01*
X144571928Y-63300000D01*
X144575000Y-63814250D01*
X144733750Y-63973000D01*
X146083000Y-63973000D01*
X146083000Y-62823750D01*
X146337000Y-62823750D01*
X146337000Y-63973000D01*
X147686250Y-63973000D01*
X147845000Y-63814250D01*
X147848072Y-63300000D01*
X147835812Y-63175518D01*
X147799502Y-63055820D01*
X147740537Y-62945506D01*
X147661185Y-62848815D01*
X147564494Y-62769463D01*
X147454180Y-62710498D01*
X147334482Y-62674188D01*
X147210000Y-62661928D01*
X146495750Y-62665000D01*
X146337000Y-62823750D01*
X146083000Y-62823750D01*
X145924250Y-62665000D01*
X145210000Y-62661928D01*
X145085518Y-62674188D01*
X144965820Y-62710498D01*
X144855506Y-62769463D01*
X144758815Y-62848815D01*
X144679463Y-62945506D01*
X144620498Y-63055820D01*
X144584188Y-63175518D01*
X144571928Y-63300000D01*
X143848072Y-63300000D01*
X143835812Y-63175518D01*
X143799502Y-63055820D01*
X143740537Y-62945506D01*
X143661185Y-62848815D01*
X143564494Y-62769463D01*
X143454180Y-62710498D01*
X143334482Y-62674188D01*
X143210000Y-62661928D01*
X141210000Y-62661928D01*
X141085518Y-62674188D01*
X140965820Y-62710498D01*
X140855506Y-62769463D01*
X140758815Y-62848815D01*
X140679463Y-62945506D01*
X140642317Y-63015000D01*
X139180957Y-63015000D01*
X139170537Y-62995506D01*
X139091185Y-62898815D01*
X138994494Y-62819463D01*
X138884180Y-62760498D01*
X138764482Y-62724188D01*
X138640000Y-62711928D01*
X136640000Y-62711928D01*
X136515518Y-62724188D01*
X136395820Y-62760498D01*
X136285506Y-62819463D01*
X136188815Y-62898815D01*
X136109463Y-62995506D01*
X136050498Y-63105820D01*
X136014188Y-63225518D01*
X136001928Y-63350000D01*
X136001928Y-64052940D01*
X135277043Y-64777825D01*
X135275000Y-64435750D01*
X135116250Y-64277000D01*
X133767000Y-64277000D01*
X133513000Y-64277000D01*
X132163750Y-64277000D01*
X132005000Y-64435750D01*
X132001928Y-64950000D01*
X131545000Y-64950000D01*
X131545000Y-63350000D01*
X132001928Y-63350000D01*
X132005000Y-63864250D01*
X132163750Y-64023000D01*
X133513000Y-64023000D01*
X133513000Y-62873750D01*
X133767000Y-62873750D01*
X133767000Y-64023000D01*
X135116250Y-64023000D01*
X135275000Y-63864250D01*
X135278072Y-63350000D01*
X135265812Y-63225518D01*
X135229502Y-63105820D01*
X135170537Y-62995506D01*
X135091185Y-62898815D01*
X134994494Y-62819463D01*
X134884180Y-62760498D01*
X134764482Y-62724188D01*
X134640000Y-62711928D01*
X133925750Y-62715000D01*
X133767000Y-62873750D01*
X133513000Y-62873750D01*
X133354250Y-62715000D01*
X132640000Y-62711928D01*
X132515518Y-62724188D01*
X132395820Y-62760498D01*
X132285506Y-62819463D01*
X132188815Y-62898815D01*
X132109463Y-62995506D01*
X132050498Y-63105820D01*
X132014188Y-63225518D01*
X132001928Y-63350000D01*
X131545000Y-63350000D01*
X131545000Y-53679027D01*
X132215037Y-53679027D01*
X132313036Y-53955978D01*
X132463183Y-54208488D01*
X132659707Y-54426854D01*
X132895056Y-54602684D01*
X133160186Y-54729222D01*
X133310974Y-54774958D01*
X133543000Y-54653817D01*
X133543000Y-53447000D01*
X132335536Y-53447000D01*
X132215037Y-53679027D01*
X131545000Y-53679027D01*
X131545000Y-48210131D01*
X131940132Y-47815000D01*
X139014249Y-47815000D01*
X139070000Y-47820491D01*
X139125751Y-47815000D01*
X139125752Y-47815000D01*
X139292499Y-47798577D01*
X139506447Y-47733676D01*
X139703623Y-47628284D01*
X139835949Y-47519687D01*
X139000635Y-48355001D01*
G36*
X153830498Y-69885820D02*
G01*
X153794188Y-70005518D01*
X153781928Y-70130000D01*
X153781928Y-72130000D01*
X153794188Y-72254482D01*
X153830498Y-72374180D01*
X153889463Y-72484494D01*
X153926809Y-72530000D01*
X153157322Y-72530000D01*
X153119999Y-72526324D01*
X153082677Y-72530000D01*
X153082667Y-72530000D01*
X152971014Y-72540997D01*
X152913164Y-72558545D01*
X152916916Y-72546176D01*
X152938600Y-72326018D01*
X152938600Y-71873981D01*
X152916916Y-71653823D01*
X152831225Y-71371336D01*
X152692069Y-71110994D01*
X152504797Y-70882803D01*
X152276605Y-70695531D01*
X152016263Y-70556375D01*
X151733776Y-70470684D01*
X151440000Y-70441749D01*
X151146223Y-70470684D01*
X150863736Y-70556375D01*
X150603394Y-70695531D01*
X150375203Y-70882803D01*
X150187931Y-71110995D01*
X150166576Y-71150947D01*
X150018486Y-70948271D01*
X149802035Y-70749267D01*
X149550919Y-70596314D01*
X149274789Y-70495291D01*
X149259026Y-70492642D01*
X149027000Y-70613783D01*
X149027000Y-71973000D01*
X149047000Y-71973000D01*
X149047000Y-72227000D01*
X149027000Y-72227000D01*
X149027000Y-72247000D01*
X148773000Y-72247000D01*
X148773000Y-72227000D01*
X146487000Y-72227000D01*
X146487000Y-72247000D01*
X146233000Y-72247000D01*
X146233000Y-72227000D01*
X146213000Y-72227000D01*
X146213000Y-71973000D01*
X146233000Y-71973000D01*
X146233000Y-70613783D01*
X146487000Y-70613783D01*
X146487000Y-71973000D01*
X148773000Y-71973000D01*
X148773000Y-70613783D01*
X148540974Y-70492642D01*
X148525211Y-70495291D01*
X148249081Y-70596314D01*
X147997965Y-70749267D01*
X147781514Y-70948271D01*
X147630000Y-71155633D01*
X147478486Y-70948271D01*
X147262035Y-70749267D01*
X147010919Y-70596314D01*
X146734789Y-70495291D01*
X146719026Y-70492642D01*
X146487000Y-70613783D01*
X146233000Y-70613783D01*
X146000974Y-70492642D01*
X145985211Y-70495291D01*
X145709081Y-70596314D01*
X145457965Y-70749267D01*
X145241514Y-70948271D01*
X145093424Y-71150947D01*
X145072069Y-71110994D01*
X144884797Y-70882803D01*
X144656605Y-70695531D01*
X144396263Y-70556375D01*
X144113776Y-70470684D01*
X143820000Y-70441749D01*
X143526223Y-70470684D01*
X143243736Y-70556375D01*
X142983394Y-70695531D01*
X142755203Y-70882803D01*
X142567931Y-71110995D01*
X142550000Y-71144541D01*
X142532069Y-71110994D01*
X142344797Y-70882803D01*
X142116605Y-70695531D01*
X141856263Y-70556375D01*
X141573776Y-70470684D01*
X141280000Y-70441749D01*
X140986223Y-70470684D01*
X140703736Y-70556375D01*
X140443394Y-70695531D01*
X140215203Y-70882803D01*
X140027931Y-71110995D01*
X140010000Y-71144541D01*
X139992069Y-71110994D01*
X139804797Y-70882803D01*
X139783487Y-70865314D01*
X140858802Y-69790000D01*
X153881716Y-69790000D01*
X153830498Y-69885820D01*
G37*
X153830498Y-69885820D02*
X153794188Y-70005518D01*
X153781928Y-70130000D01*
X153781928Y-72130000D01*
X153794188Y-72254482D01*
X153830498Y-72374180D01*
X153889463Y-72484494D01*
X153926809Y-72530000D01*
X153157322Y-72530000D01*
X153119999Y-72526324D01*
X153082677Y-72530000D01*
X153082667Y-72530000D01*
X152971014Y-72540997D01*
X152913164Y-72558545D01*
X152916916Y-72546176D01*
X152938600Y-72326018D01*
X152938600Y-71873981D01*
X152916916Y-71653823D01*
X152831225Y-71371336D01*
X152692069Y-71110994D01*
X152504797Y-70882803D01*
X152276605Y-70695531D01*
X152016263Y-70556375D01*
X151733776Y-70470684D01*
X151440000Y-70441749D01*
X151146223Y-70470684D01*
X150863736Y-70556375D01*
X150603394Y-70695531D01*
X150375203Y-70882803D01*
X150187931Y-71110995D01*
X150166576Y-71150947D01*
X150018486Y-70948271D01*
X149802035Y-70749267D01*
X149550919Y-70596314D01*
X149274789Y-70495291D01*
X149259026Y-70492642D01*
X149027000Y-70613783D01*
X149027000Y-71973000D01*
X149047000Y-71973000D01*
X149047000Y-72227000D01*
X149027000Y-72227000D01*
X149027000Y-72247000D01*
X148773000Y-72247000D01*
X148773000Y-72227000D01*
X146487000Y-72227000D01*
X146487000Y-72247000D01*
X146233000Y-72247000D01*
X146233000Y-72227000D01*
X146213000Y-72227000D01*
X146213000Y-71973000D01*
X146233000Y-71973000D01*
X146233000Y-70613783D01*
X146487000Y-70613783D01*
X146487000Y-71973000D01*
X148773000Y-71973000D01*
X148773000Y-70613783D01*
X148540974Y-70492642D01*
X148525211Y-70495291D01*
X148249081Y-70596314D01*
X147997965Y-70749267D01*
X147781514Y-70948271D01*
X147630000Y-71155633D01*
X147478486Y-70948271D01*
X147262035Y-70749267D01*
X147010919Y-70596314D01*
X146734789Y-70495291D01*
X146719026Y-70492642D01*
X146487000Y-70613783D01*
X146233000Y-70613783D01*
X146000974Y-70492642D01*
X145985211Y-70495291D01*
X145709081Y-70596314D01*
X145457965Y-70749267D01*
X145241514Y-70948271D01*
X145093424Y-71150947D01*
X145072069Y-71110994D01*
X144884797Y-70882803D01*
X144656605Y-70695531D01*
X144396263Y-70556375D01*
X144113776Y-70470684D01*
X143820000Y-70441749D01*
X143526223Y-70470684D01*
X143243736Y-70556375D01*
X142983394Y-70695531D01*
X142755203Y-70882803D01*
X142567931Y-71110995D01*
X142550000Y-71144541D01*
X142532069Y-71110994D01*
X142344797Y-70882803D01*
X142116605Y-70695531D01*
X141856263Y-70556375D01*
X141573776Y-70470684D01*
X141280000Y-70441749D01*
X140986223Y-70470684D01*
X140703736Y-70556375D01*
X140443394Y-70695531D01*
X140215203Y-70882803D01*
X140027931Y-71110995D01*
X140010000Y-71144541D01*
X139992069Y-71110994D01*
X139804797Y-70882803D01*
X139783487Y-70865314D01*
X140858802Y-69790000D01*
X153881716Y-69790000D01*
X153830498Y-69885820D01*
G36*
X166827000Y-44323000D02*
G01*
X166847000Y-44323000D01*
X166847000Y-44577000D01*
X166827000Y-44577000D01*
X166827000Y-45719915D01*
X167049039Y-45841904D01*
X167183087Y-45801246D01*
X167437420Y-45681037D01*
X167663414Y-45513519D01*
X167852385Y-45305131D01*
X167963933Y-45119135D01*
X167968320Y-45129727D01*
X168125363Y-45364759D01*
X168325241Y-45564637D01*
X168560273Y-45721680D01*
X168821426Y-45829853D01*
X169098665Y-45885000D01*
X169381335Y-45885000D01*
X169563886Y-45848688D01*
X169605002Y-45889804D01*
X169605001Y-58299491D01*
X169381335Y-58255000D01*
X169098665Y-58255000D01*
X168821426Y-58310147D01*
X168560273Y-58418320D01*
X168325241Y-58575363D01*
X168125363Y-58775241D01*
X167970000Y-59007759D01*
X167814637Y-58775241D01*
X167614759Y-58575363D01*
X167379727Y-58418320D01*
X167118574Y-58310147D01*
X166841335Y-58255000D01*
X166558665Y-58255000D01*
X166281426Y-58310147D01*
X166020273Y-58418320D01*
X165785241Y-58575363D01*
X165585363Y-58775241D01*
X165430000Y-59007759D01*
X165274637Y-58775241D01*
X165074759Y-58575363D01*
X164839727Y-58418320D01*
X164578574Y-58310147D01*
X164301335Y-58255000D01*
X164018665Y-58255000D01*
X163741426Y-58310147D01*
X163480273Y-58418320D01*
X163245241Y-58575363D01*
X163045363Y-58775241D01*
X162890000Y-59007759D01*
X162734637Y-58775241D01*
X162599396Y-58640000D01*
X162752678Y-58640000D01*
X162790000Y-58643676D01*
X162827322Y-58640000D01*
X162827333Y-58640000D01*
X162938986Y-58629003D01*
X163082247Y-58585546D01*
X163214276Y-58514974D01*
X163330001Y-58420001D01*
X163353804Y-58390997D01*
X164891004Y-56853798D01*
X164920001Y-56830001D01*
X165014974Y-56714276D01*
X165085546Y-56582247D01*
X165129003Y-56438986D01*
X165140000Y-56327333D01*
X165140000Y-56327332D01*
X165143677Y-56290000D01*
X165140000Y-56252667D01*
X165140000Y-55193711D01*
X165183937Y-55149774D01*
X165297205Y-54980256D01*
X165375226Y-54791898D01*
X165415000Y-54591939D01*
X165415000Y-54388061D01*
X165375226Y-54188102D01*
X165297205Y-53999744D01*
X165183937Y-53830226D01*
X165039774Y-53686063D01*
X164870256Y-53572795D01*
X164681898Y-53494774D01*
X164481939Y-53455000D01*
X164278061Y-53455000D01*
X164078102Y-53494774D01*
X163889744Y-53572795D01*
X163720226Y-53686063D01*
X163576063Y-53830226D01*
X163462795Y-53999744D01*
X163384774Y-54188102D01*
X163345000Y-54388061D01*
X163345000Y-54591939D01*
X163384774Y-54791898D01*
X163462795Y-54980256D01*
X163576063Y-55149774D01*
X163620001Y-55193712D01*
X163620000Y-55975198D01*
X162475199Y-57120000D01*
X148227333Y-57120000D01*
X148190000Y-57116323D01*
X148152667Y-57120000D01*
X148041014Y-57130997D01*
X147897753Y-57174454D01*
X147765724Y-57245026D01*
X147649999Y-57339999D01*
X147626201Y-57368997D01*
X146703886Y-58291312D01*
X146521335Y-58255000D01*
X146349801Y-58255000D01*
X149421003Y-55183799D01*
X149450001Y-55160001D01*
X149544974Y-55044276D01*
X149615546Y-54912247D01*
X149659003Y-54768986D01*
X149670000Y-54657333D01*
X149670000Y-54657325D01*
X149673676Y-54620000D01*
X149672944Y-54612568D01*
X149865302Y-54484039D01*
X150074039Y-54275302D01*
X150180000Y-54116719D01*
X150285961Y-54275302D01*
X150494698Y-54484039D01*
X150740147Y-54648042D01*
X151012875Y-54761010D01*
X151302401Y-54818600D01*
X151597599Y-54818600D01*
X151887125Y-54761010D01*
X152159853Y-54648042D01*
X152405302Y-54484039D01*
X152519364Y-54369977D01*
X152536898Y-54427780D01*
X152595863Y-54538094D01*
X152675215Y-54634785D01*
X152771906Y-54714137D01*
X152882220Y-54773102D01*
X153001918Y-54809412D01*
X153126400Y-54821672D01*
X153704250Y-54818600D01*
X153863000Y-54659850D01*
X153863000Y-53447000D01*
X154117000Y-53447000D01*
X154117000Y-54659850D01*
X154275750Y-54818600D01*
X154853600Y-54821672D01*
X154978082Y-54809412D01*
X155097780Y-54773102D01*
X155208094Y-54714137D01*
X155304785Y-54634785D01*
X155384137Y-54538094D01*
X155443102Y-54427780D01*
X155479412Y-54308082D01*
X155491672Y-54183600D01*
X155488600Y-53605750D01*
X155329850Y-53447000D01*
X154117000Y-53447000D01*
X153863000Y-53447000D01*
X153843000Y-53447000D01*
X153843000Y-53193000D01*
X153863000Y-53193000D01*
X153863000Y-53173000D01*
X154117000Y-53173000D01*
X154117000Y-53193000D01*
X155329850Y-53193000D01*
X155488600Y-53034250D01*
X155490225Y-52728601D01*
X162864077Y-52728601D01*
X162901399Y-52732277D01*
X162938721Y-52728601D01*
X162938732Y-52728601D01*
X163050385Y-52717604D01*
X163193646Y-52674147D01*
X163325675Y-52603575D01*
X163441400Y-52508602D01*
X163465203Y-52479598D01*
X164349802Y-51595000D01*
X164411939Y-51595000D01*
X164611898Y-51555226D01*
X164800256Y-51477205D01*
X164969774Y-51363937D01*
X165113937Y-51219774D01*
X165227205Y-51050256D01*
X165305226Y-50861898D01*
X165345000Y-50661939D01*
X165345000Y-50458061D01*
X165305226Y-50258102D01*
X165227205Y-50069744D01*
X165113937Y-49900226D01*
X164969774Y-49756063D01*
X164800256Y-49642795D01*
X164611898Y-49564774D01*
X164411939Y-49525000D01*
X164208061Y-49525000D01*
X164008102Y-49564774D01*
X163819744Y-49642795D01*
X163650226Y-49756063D01*
X163506063Y-49900226D01*
X163392795Y-50069744D01*
X163314774Y-50258102D01*
X163275000Y-50458061D01*
X163275000Y-50520198D01*
X162586598Y-51208601D01*
X157016530Y-51208601D01*
X159001989Y-49223144D01*
X159108284Y-49093623D01*
X159213676Y-48896447D01*
X159278577Y-48682499D01*
X159300491Y-48460000D01*
X159278577Y-48237501D01*
X159213676Y-48023553D01*
X159108284Y-47826377D01*
X158966449Y-47653551D01*
X158793623Y-47511716D01*
X158596447Y-47406324D01*
X158382499Y-47341423D01*
X158160000Y-47319509D01*
X157937501Y-47341423D01*
X157723553Y-47406324D01*
X157526377Y-47511716D01*
X157396856Y-47618011D01*
X155168511Y-49846358D01*
X155154039Y-49824698D01*
X154945302Y-49615961D01*
X154699853Y-49451958D01*
X154427125Y-49338990D01*
X154137599Y-49281400D01*
X153842401Y-49281400D01*
X153552875Y-49338990D01*
X153280147Y-49451958D01*
X153034698Y-49615961D01*
X152825961Y-49824698D01*
X152720000Y-49983281D01*
X152614039Y-49824698D01*
X152405302Y-49615961D01*
X152159853Y-49451958D01*
X151887125Y-49338990D01*
X151597599Y-49281400D01*
X151302401Y-49281400D01*
X151012875Y-49338990D01*
X150740147Y-49451958D01*
X150494698Y-49615961D01*
X150285961Y-49824698D01*
X150180000Y-49983281D01*
X150074039Y-49824698D01*
X149865302Y-49615961D01*
X149619853Y-49451958D01*
X149347125Y-49338990D01*
X149057599Y-49281400D01*
X148762401Y-49281400D01*
X148472875Y-49338990D01*
X148200147Y-49451958D01*
X147954698Y-49615961D01*
X147745961Y-49824698D01*
X147640000Y-49983281D01*
X147534039Y-49824698D01*
X147325302Y-49615961D01*
X147079853Y-49451958D01*
X146807125Y-49338990D01*
X146517599Y-49281400D01*
X146222401Y-49281400D01*
X145932875Y-49338990D01*
X145660147Y-49451958D01*
X145414698Y-49615961D01*
X145205961Y-49824698D01*
X145100000Y-49983281D01*
X144994039Y-49824698D01*
X144785302Y-49615961D01*
X144539853Y-49451958D01*
X144267125Y-49338990D01*
X143977599Y-49281400D01*
X143682401Y-49281400D01*
X143392875Y-49338990D01*
X143244989Y-49400247D01*
X143244989Y-49213071D01*
X144243072Y-48214989D01*
X156037689Y-48214989D01*
X156075011Y-48218665D01*
X156112333Y-48214989D01*
X156112344Y-48214989D01*
X156223997Y-48203992D01*
X156367258Y-48160535D01*
X156499287Y-48089963D01*
X156615012Y-47994990D01*
X156638815Y-47965986D01*
X158756114Y-45848688D01*
X158938665Y-45885000D01*
X159221335Y-45885000D01*
X159498574Y-45829853D01*
X159759727Y-45721680D01*
X159994759Y-45564637D01*
X160194637Y-45364759D01*
X160350000Y-45132241D01*
X160505363Y-45364759D01*
X160705241Y-45564637D01*
X160940273Y-45721680D01*
X161201426Y-45829853D01*
X161478665Y-45885000D01*
X161761335Y-45885000D01*
X162038574Y-45829853D01*
X162299727Y-45721680D01*
X162534759Y-45564637D01*
X162734637Y-45364759D01*
X162890000Y-45132241D01*
X163045363Y-45364759D01*
X163245241Y-45564637D01*
X163480273Y-45721680D01*
X163741426Y-45829853D01*
X164018665Y-45885000D01*
X164301335Y-45885000D01*
X164578574Y-45829853D01*
X164839727Y-45721680D01*
X165074759Y-45564637D01*
X165274637Y-45364759D01*
X165431680Y-45129727D01*
X165436067Y-45119135D01*
X165547615Y-45305131D01*
X165736586Y-45513519D01*
X165962580Y-45681037D01*
X166216913Y-45801246D01*
X166350961Y-45841904D01*
X166573000Y-45719915D01*
X166573000Y-44577000D01*
X166553000Y-44577000D01*
X166553000Y-44323000D01*
X166573000Y-44323000D01*
X166573000Y-44303000D01*
X166827000Y-44303000D01*
X166827000Y-44323000D01*
G37*
X166827000Y-44323000D02*
X166847000Y-44323000D01*
X166847000Y-44577000D01*
X166827000Y-44577000D01*
X166827000Y-45719915D01*
X167049039Y-45841904D01*
X167183087Y-45801246D01*
X167437420Y-45681037D01*
X167663414Y-45513519D01*
X167852385Y-45305131D01*
X167963933Y-45119135D01*
X167968320Y-45129727D01*
X168125363Y-45364759D01*
X168325241Y-45564637D01*
X168560273Y-45721680D01*
X168821426Y-45829853D01*
X169098665Y-45885000D01*
X169381335Y-45885000D01*
X169563886Y-45848688D01*
X169605002Y-45889804D01*
X169605001Y-58299491D01*
X169381335Y-58255000D01*
X169098665Y-58255000D01*
X168821426Y-58310147D01*
X168560273Y-58418320D01*
X168325241Y-58575363D01*
X168125363Y-58775241D01*
X167970000Y-59007759D01*
X167814637Y-58775241D01*
X167614759Y-58575363D01*
X167379727Y-58418320D01*
X167118574Y-58310147D01*
X166841335Y-58255000D01*
X166558665Y-58255000D01*
X166281426Y-58310147D01*
X166020273Y-58418320D01*
X165785241Y-58575363D01*
X165585363Y-58775241D01*
X165430000Y-59007759D01*
X165274637Y-58775241D01*
X165074759Y-58575363D01*
X164839727Y-58418320D01*
X164578574Y-58310147D01*
X164301335Y-58255000D01*
X164018665Y-58255000D01*
X163741426Y-58310147D01*
X163480273Y-58418320D01*
X163245241Y-58575363D01*
X163045363Y-58775241D01*
X162890000Y-59007759D01*
X162734637Y-58775241D01*
X162599396Y-58640000D01*
X162752678Y-58640000D01*
X162790000Y-58643676D01*
X162827322Y-58640000D01*
X162827333Y-58640000D01*
X162938986Y-58629003D01*
X163082247Y-58585546D01*
X163214276Y-58514974D01*
X163330001Y-58420001D01*
X163353804Y-58390997D01*
X164891004Y-56853798D01*
X164920001Y-56830001D01*
X165014974Y-56714276D01*
X165085546Y-56582247D01*
X165129003Y-56438986D01*
X165140000Y-56327333D01*
X165140000Y-56327332D01*
X165143677Y-56290000D01*
X165140000Y-56252667D01*
X165140000Y-55193711D01*
X165183937Y-55149774D01*
X165297205Y-54980256D01*
X165375226Y-54791898D01*
X165415000Y-54591939D01*
X165415000Y-54388061D01*
X165375226Y-54188102D01*
X165297205Y-53999744D01*
X165183937Y-53830226D01*
X165039774Y-53686063D01*
X164870256Y-53572795D01*
X164681898Y-53494774D01*
X164481939Y-53455000D01*
X164278061Y-53455000D01*
X164078102Y-53494774D01*
X163889744Y-53572795D01*
X163720226Y-53686063D01*
X163576063Y-53830226D01*
X163462795Y-53999744D01*
X163384774Y-54188102D01*
X163345000Y-54388061D01*
X163345000Y-54591939D01*
X163384774Y-54791898D01*
X163462795Y-54980256D01*
X163576063Y-55149774D01*
X163620001Y-55193712D01*
X163620000Y-55975198D01*
X162475199Y-57120000D01*
X148227333Y-57120000D01*
X148190000Y-57116323D01*
X148152667Y-57120000D01*
X148041014Y-57130997D01*
X147897753Y-57174454D01*
X147765724Y-57245026D01*
X147649999Y-57339999D01*
X147626201Y-57368997D01*
X146703886Y-58291312D01*
X146521335Y-58255000D01*
X146349801Y-58255000D01*
X149421003Y-55183799D01*
X149450001Y-55160001D01*
X149544974Y-55044276D01*
X149615546Y-54912247D01*
X149659003Y-54768986D01*
X149670000Y-54657333D01*
X149670000Y-54657325D01*
X149673676Y-54620000D01*
X149672944Y-54612568D01*
X149865302Y-54484039D01*
X150074039Y-54275302D01*
X150180000Y-54116719D01*
X150285961Y-54275302D01*
X150494698Y-54484039D01*
X150740147Y-54648042D01*
X151012875Y-54761010D01*
X151302401Y-54818600D01*
X151597599Y-54818600D01*
X151887125Y-54761010D01*
X152159853Y-54648042D01*
X152405302Y-54484039D01*
X152519364Y-54369977D01*
X152536898Y-54427780D01*
X152595863Y-54538094D01*
X152675215Y-54634785D01*
X152771906Y-54714137D01*
X152882220Y-54773102D01*
X153001918Y-54809412D01*
X153126400Y-54821672D01*
X153704250Y-54818600D01*
X153863000Y-54659850D01*
X153863000Y-53447000D01*
X154117000Y-53447000D01*
X154117000Y-54659850D01*
X154275750Y-54818600D01*
X154853600Y-54821672D01*
X154978082Y-54809412D01*
X155097780Y-54773102D01*
X155208094Y-54714137D01*
X155304785Y-54634785D01*
X155384137Y-54538094D01*
X155443102Y-54427780D01*
X155479412Y-54308082D01*
X155491672Y-54183600D01*
X155488600Y-53605750D01*
X155329850Y-53447000D01*
X154117000Y-53447000D01*
X153863000Y-53447000D01*
X153843000Y-53447000D01*
X153843000Y-53193000D01*
X153863000Y-53193000D01*
X153863000Y-53173000D01*
X154117000Y-53173000D01*
X154117000Y-53193000D01*
X155329850Y-53193000D01*
X155488600Y-53034250D01*
X155490225Y-52728601D01*
X162864077Y-52728601D01*
X162901399Y-52732277D01*
X162938721Y-52728601D01*
X162938732Y-52728601D01*
X163050385Y-52717604D01*
X163193646Y-52674147D01*
X163325675Y-52603575D01*
X163441400Y-52508602D01*
X163465203Y-52479598D01*
X164349802Y-51595000D01*
X164411939Y-51595000D01*
X164611898Y-51555226D01*
X164800256Y-51477205D01*
X164969774Y-51363937D01*
X165113937Y-51219774D01*
X165227205Y-51050256D01*
X165305226Y-50861898D01*
X165345000Y-50661939D01*
X165345000Y-50458061D01*
X165305226Y-50258102D01*
X165227205Y-50069744D01*
X165113937Y-49900226D01*
X164969774Y-49756063D01*
X164800256Y-49642795D01*
X164611898Y-49564774D01*
X164411939Y-49525000D01*
X164208061Y-49525000D01*
X164008102Y-49564774D01*
X163819744Y-49642795D01*
X163650226Y-49756063D01*
X163506063Y-49900226D01*
X163392795Y-50069744D01*
X163314774Y-50258102D01*
X163275000Y-50458061D01*
X163275000Y-50520198D01*
X162586598Y-51208601D01*
X157016530Y-51208601D01*
X159001989Y-49223144D01*
X159108284Y-49093623D01*
X159213676Y-48896447D01*
X159278577Y-48682499D01*
X159300491Y-48460000D01*
X159278577Y-48237501D01*
X159213676Y-48023553D01*
X159108284Y-47826377D01*
X158966449Y-47653551D01*
X158793623Y-47511716D01*
X158596447Y-47406324D01*
X158382499Y-47341423D01*
X158160000Y-47319509D01*
X157937501Y-47341423D01*
X157723553Y-47406324D01*
X157526377Y-47511716D01*
X157396856Y-47618011D01*
X155168511Y-49846358D01*
X155154039Y-49824698D01*
X154945302Y-49615961D01*
X154699853Y-49451958D01*
X154427125Y-49338990D01*
X154137599Y-49281400D01*
X153842401Y-49281400D01*
X153552875Y-49338990D01*
X153280147Y-49451958D01*
X153034698Y-49615961D01*
X152825961Y-49824698D01*
X152720000Y-49983281D01*
X152614039Y-49824698D01*
X152405302Y-49615961D01*
X152159853Y-49451958D01*
X151887125Y-49338990D01*
X151597599Y-49281400D01*
X151302401Y-49281400D01*
X151012875Y-49338990D01*
X150740147Y-49451958D01*
X150494698Y-49615961D01*
X150285961Y-49824698D01*
X150180000Y-49983281D01*
X150074039Y-49824698D01*
X149865302Y-49615961D01*
X149619853Y-49451958D01*
X149347125Y-49338990D01*
X149057599Y-49281400D01*
X148762401Y-49281400D01*
X148472875Y-49338990D01*
X148200147Y-49451958D01*
X147954698Y-49615961D01*
X147745961Y-49824698D01*
X147640000Y-49983281D01*
X147534039Y-49824698D01*
X147325302Y-49615961D01*
X147079853Y-49451958D01*
X146807125Y-49338990D01*
X146517599Y-49281400D01*
X146222401Y-49281400D01*
X145932875Y-49338990D01*
X145660147Y-49451958D01*
X145414698Y-49615961D01*
X145205961Y-49824698D01*
X145100000Y-49983281D01*
X144994039Y-49824698D01*
X144785302Y-49615961D01*
X144539853Y-49451958D01*
X144267125Y-49338990D01*
X143977599Y-49281400D01*
X143682401Y-49281400D01*
X143392875Y-49338990D01*
X143244989Y-49400247D01*
X143244989Y-49213071D01*
X144243072Y-48214989D01*
X156037689Y-48214989D01*
X156075011Y-48218665D01*
X156112333Y-48214989D01*
X156112344Y-48214989D01*
X156223997Y-48203992D01*
X156367258Y-48160535D01*
X156499287Y-48089963D01*
X156615012Y-47994990D01*
X156638815Y-47965986D01*
X158756114Y-45848688D01*
X158938665Y-45885000D01*
X159221335Y-45885000D01*
X159498574Y-45829853D01*
X159759727Y-45721680D01*
X159994759Y-45564637D01*
X160194637Y-45364759D01*
X160350000Y-45132241D01*
X160505363Y-45364759D01*
X160705241Y-45564637D01*
X160940273Y-45721680D01*
X161201426Y-45829853D01*
X161478665Y-45885000D01*
X161761335Y-45885000D01*
X162038574Y-45829853D01*
X162299727Y-45721680D01*
X162534759Y-45564637D01*
X162734637Y-45364759D01*
X162890000Y-45132241D01*
X163045363Y-45364759D01*
X163245241Y-45564637D01*
X163480273Y-45721680D01*
X163741426Y-45829853D01*
X164018665Y-45885000D01*
X164301335Y-45885000D01*
X164578574Y-45829853D01*
X164839727Y-45721680D01*
X165074759Y-45564637D01*
X165274637Y-45364759D01*
X165431680Y-45129727D01*
X165436067Y-45119135D01*
X165547615Y-45305131D01*
X165736586Y-45513519D01*
X165962580Y-45681037D01*
X166216913Y-45801246D01*
X166350961Y-45841904D01*
X166573000Y-45719915D01*
X166573000Y-44577000D01*
X166553000Y-44577000D01*
X166553000Y-44323000D01*
X166573000Y-44323000D01*
X166573000Y-44303000D01*
X166827000Y-44303000D01*
X166827000Y-44323000D01*
M02*
