G04 #@! TF.GenerationSoftware,KiCad,Pcbnew,(5.1.5)-3*
G04 #@! TF.CreationDate,2020-04-26T13:57:47+03:00*
G04 #@! TF.ProjectId,livecam,6c697665-6361-46d2-9e6b-696361645f70,rev?*
G04 #@! TF.SameCoordinates,Original*
G04 #@! TF.FileFunction,Soldermask,Top*
G04 #@! TF.FilePolarity,Negative*
%FSLAX46Y46*%
G04 Gerber Fmt 4.6, Leading zero omitted, Abs format (unit mm)*
G04 Created by KiCad (PCBNEW (5.1.5)-3) date 2020-04-26 13:57:47*
%MOMM*%
%LPD*%
G04 APERTURE LIST*
%ADD10C,0.100000*%
G04 APERTURE END LIST*
D10*
G36*
X141971000Y-81721000D02*
G01*
X140269000Y-81721000D01*
X140269000Y-79619000D01*
X141971000Y-79619000D01*
X141971000Y-81721000D01*
G37*
G36*
X138041000Y-81721000D02*
G01*
X136339000Y-81721000D01*
X136339000Y-79619000D01*
X138041000Y-79619000D01*
X138041000Y-81721000D01*
G37*
G36*
X169561231Y-77344003D02*
G01*
X169704769Y-77403459D01*
X169755414Y-77424437D01*
X169930173Y-77541207D01*
X170078793Y-77689827D01*
X170163035Y-77815905D01*
X170195564Y-77864588D01*
X170275997Y-78058769D01*
X170317000Y-78264908D01*
X170317000Y-78475092D01*
X170275997Y-78681231D01*
X170216820Y-78824095D01*
X170195563Y-78875414D01*
X170078793Y-79050173D01*
X169930173Y-79198793D01*
X169755414Y-79315563D01*
X169755413Y-79315564D01*
X169755412Y-79315564D01*
X169561231Y-79395997D01*
X169355092Y-79437000D01*
X169144908Y-79437000D01*
X168938769Y-79395997D01*
X168744588Y-79315564D01*
X168744587Y-79315564D01*
X168744586Y-79315563D01*
X168569827Y-79198793D01*
X168421207Y-79050173D01*
X168304437Y-78875414D01*
X168283180Y-78824095D01*
X168224003Y-78681231D01*
X168183000Y-78475092D01*
X168183000Y-78264908D01*
X168224003Y-78058769D01*
X168304436Y-77864588D01*
X168336965Y-77815905D01*
X168421207Y-77689827D01*
X168569827Y-77541207D01*
X168744586Y-77424437D01*
X168795231Y-77403459D01*
X168938769Y-77344003D01*
X169144908Y-77303000D01*
X169355092Y-77303000D01*
X169561231Y-77344003D01*
G37*
G36*
X151429294Y-77266233D02*
G01*
X151601695Y-77318531D01*
X151760583Y-77403458D01*
X151899849Y-77517751D01*
X152014142Y-77657017D01*
X152099069Y-77815906D01*
X152151367Y-77988307D01*
X152164600Y-78122670D01*
X152164600Y-78517331D01*
X152151367Y-78651694D01*
X152099069Y-78824095D01*
X152014142Y-78982983D01*
X151899849Y-79122249D01*
X151760583Y-79236542D01*
X151601694Y-79321469D01*
X151429293Y-79373767D01*
X151250000Y-79391425D01*
X151070706Y-79373767D01*
X150898305Y-79321469D01*
X150739417Y-79236542D01*
X150600151Y-79122249D01*
X150485858Y-78982983D01*
X150400931Y-78824094D01*
X150348633Y-78651693D01*
X150335400Y-78517330D01*
X150335400Y-78122669D01*
X150348633Y-77988306D01*
X150400931Y-77815905D01*
X150485858Y-77657018D01*
X150600152Y-77517751D01*
X150739418Y-77403458D01*
X150898306Y-77318531D01*
X151070707Y-77266233D01*
X151250000Y-77248575D01*
X151429294Y-77266233D01*
G37*
G36*
X138041000Y-77721000D02*
G01*
X136339000Y-77721000D01*
X136339000Y-75619000D01*
X138041000Y-75619000D01*
X138041000Y-77721000D01*
G37*
G36*
X141971000Y-77721000D02*
G01*
X140269000Y-77721000D01*
X140269000Y-75619000D01*
X141971000Y-75619000D01*
X141971000Y-77721000D01*
G37*
G36*
X170317000Y-76897000D02*
G01*
X168183000Y-76897000D01*
X168183000Y-74763000D01*
X170317000Y-74763000D01*
X170317000Y-76897000D01*
G37*
G36*
X133829294Y-74766233D02*
G01*
X134001695Y-74818531D01*
X134160583Y-74903458D01*
X134299849Y-75017751D01*
X134414142Y-75157017D01*
X134499069Y-75315906D01*
X134551367Y-75488307D01*
X134564600Y-75622670D01*
X134564600Y-76017331D01*
X134551367Y-76151694D01*
X134499069Y-76324095D01*
X134414142Y-76482983D01*
X134299849Y-76622249D01*
X134160583Y-76736542D01*
X134001694Y-76821469D01*
X133829293Y-76873767D01*
X133650000Y-76891425D01*
X133470706Y-76873767D01*
X133298305Y-76821469D01*
X133139417Y-76736542D01*
X133000151Y-76622249D01*
X132885858Y-76482983D01*
X132800931Y-76324094D01*
X132748633Y-76151693D01*
X132735400Y-76017330D01*
X132735400Y-75622669D01*
X132748633Y-75488306D01*
X132800931Y-75315905D01*
X132885858Y-75157018D01*
X133000152Y-75017751D01*
X133139418Y-74903458D01*
X133298306Y-74818531D01*
X133470707Y-74766233D01*
X133650000Y-74748575D01*
X133829294Y-74766233D01*
G37*
G36*
X165911000Y-76191000D02*
G01*
X164109000Y-76191000D01*
X164109000Y-74089000D01*
X165911000Y-74089000D01*
X165911000Y-76191000D01*
G37*
G36*
X161071000Y-76191000D02*
G01*
X159269000Y-76191000D01*
X159269000Y-74089000D01*
X161071000Y-74089000D01*
X161071000Y-76191000D01*
G37*
G36*
X156171000Y-76181000D02*
G01*
X154369000Y-76181000D01*
X154369000Y-74079000D01*
X156171000Y-74079000D01*
X156171000Y-76181000D01*
G37*
G36*
X138919293Y-71046233D02*
G01*
X139091694Y-71098531D01*
X139250583Y-71183458D01*
X139389849Y-71297751D01*
X139504142Y-71437017D01*
X139589069Y-71595905D01*
X139641367Y-71768306D01*
X139654600Y-71902669D01*
X139654600Y-72297330D01*
X139641367Y-72431693D01*
X139589069Y-72604094D01*
X139504142Y-72762983D01*
X139389849Y-72902249D01*
X139250583Y-73016542D01*
X139091695Y-73101469D01*
X138919294Y-73153767D01*
X138740000Y-73171425D01*
X138560707Y-73153767D01*
X138388306Y-73101469D01*
X138229418Y-73016542D01*
X138090152Y-72902249D01*
X137975858Y-72762982D01*
X137890931Y-72604095D01*
X137838633Y-72431694D01*
X137825400Y-72297331D01*
X137825400Y-71902670D01*
X137838633Y-71768307D01*
X137890931Y-71595906D01*
X137975858Y-71437017D01*
X138090151Y-71297751D01*
X138229417Y-71183458D01*
X138388305Y-71098531D01*
X138560706Y-71046233D01*
X138740000Y-71028575D01*
X138919293Y-71046233D01*
G37*
G36*
X151619293Y-71046233D02*
G01*
X151791694Y-71098531D01*
X151950583Y-71183458D01*
X152089849Y-71297751D01*
X152204142Y-71437017D01*
X152289069Y-71595905D01*
X152341367Y-71768306D01*
X152354600Y-71902669D01*
X152354600Y-72297330D01*
X152341367Y-72431693D01*
X152289069Y-72604094D01*
X152204142Y-72762983D01*
X152089849Y-72902249D01*
X151950583Y-73016542D01*
X151791695Y-73101469D01*
X151619294Y-73153767D01*
X151440000Y-73171425D01*
X151260707Y-73153767D01*
X151088306Y-73101469D01*
X150929418Y-73016542D01*
X150790152Y-72902249D01*
X150675858Y-72762982D01*
X150590931Y-72604095D01*
X150538633Y-72431694D01*
X150525400Y-72297331D01*
X150525400Y-71902670D01*
X150538633Y-71768307D01*
X150590931Y-71595906D01*
X150675858Y-71437017D01*
X150790151Y-71297751D01*
X150929417Y-71183458D01*
X151088305Y-71098531D01*
X151260706Y-71046233D01*
X151440000Y-71028575D01*
X151619293Y-71046233D01*
G37*
G36*
X149079293Y-71046233D02*
G01*
X149251694Y-71098531D01*
X149410583Y-71183458D01*
X149549849Y-71297751D01*
X149664142Y-71437017D01*
X149749069Y-71595905D01*
X149801367Y-71768306D01*
X149814600Y-71902669D01*
X149814600Y-72297330D01*
X149801367Y-72431693D01*
X149749069Y-72604094D01*
X149664142Y-72762983D01*
X149549849Y-72902249D01*
X149410583Y-73016542D01*
X149251695Y-73101469D01*
X149079294Y-73153767D01*
X148900000Y-73171425D01*
X148720707Y-73153767D01*
X148548306Y-73101469D01*
X148389418Y-73016542D01*
X148250152Y-72902249D01*
X148135858Y-72762982D01*
X148050931Y-72604095D01*
X147998633Y-72431694D01*
X147985400Y-72297331D01*
X147985400Y-71902670D01*
X147998633Y-71768307D01*
X148050931Y-71595906D01*
X148135858Y-71437017D01*
X148250151Y-71297751D01*
X148389417Y-71183458D01*
X148548305Y-71098531D01*
X148720706Y-71046233D01*
X148900000Y-71028575D01*
X149079293Y-71046233D01*
G37*
G36*
X146539293Y-71046233D02*
G01*
X146711694Y-71098531D01*
X146870583Y-71183458D01*
X147009849Y-71297751D01*
X147124142Y-71437017D01*
X147209069Y-71595905D01*
X147261367Y-71768306D01*
X147274600Y-71902669D01*
X147274600Y-72297330D01*
X147261367Y-72431693D01*
X147209069Y-72604094D01*
X147124142Y-72762983D01*
X147009849Y-72902249D01*
X146870583Y-73016542D01*
X146711695Y-73101469D01*
X146539294Y-73153767D01*
X146360000Y-73171425D01*
X146180707Y-73153767D01*
X146008306Y-73101469D01*
X145849418Y-73016542D01*
X145710152Y-72902249D01*
X145595858Y-72762982D01*
X145510931Y-72604095D01*
X145458633Y-72431694D01*
X145445400Y-72297331D01*
X145445400Y-71902670D01*
X145458633Y-71768307D01*
X145510931Y-71595906D01*
X145595858Y-71437017D01*
X145710151Y-71297751D01*
X145849417Y-71183458D01*
X146008305Y-71098531D01*
X146180706Y-71046233D01*
X146360000Y-71028575D01*
X146539293Y-71046233D01*
G37*
G36*
X143999293Y-71046233D02*
G01*
X144171694Y-71098531D01*
X144330583Y-71183458D01*
X144469849Y-71297751D01*
X144584142Y-71437017D01*
X144669069Y-71595905D01*
X144721367Y-71768306D01*
X144734600Y-71902669D01*
X144734600Y-72297330D01*
X144721367Y-72431693D01*
X144669069Y-72604094D01*
X144584142Y-72762983D01*
X144469849Y-72902249D01*
X144330583Y-73016542D01*
X144171695Y-73101469D01*
X143999294Y-73153767D01*
X143820000Y-73171425D01*
X143640707Y-73153767D01*
X143468306Y-73101469D01*
X143309418Y-73016542D01*
X143170152Y-72902249D01*
X143055858Y-72762982D01*
X142970931Y-72604095D01*
X142918633Y-72431694D01*
X142905400Y-72297331D01*
X142905400Y-71902670D01*
X142918633Y-71768307D01*
X142970931Y-71595906D01*
X143055858Y-71437017D01*
X143170151Y-71297751D01*
X143309417Y-71183458D01*
X143468305Y-71098531D01*
X143640706Y-71046233D01*
X143820000Y-71028575D01*
X143999293Y-71046233D01*
G37*
G36*
X141459293Y-71046233D02*
G01*
X141631694Y-71098531D01*
X141790583Y-71183458D01*
X141929849Y-71297751D01*
X142044142Y-71437017D01*
X142129069Y-71595905D01*
X142181367Y-71768306D01*
X142194600Y-71902669D01*
X142194600Y-72297330D01*
X142181367Y-72431693D01*
X142129069Y-72604094D01*
X142044142Y-72762983D01*
X141929849Y-72902249D01*
X141790583Y-73016542D01*
X141631695Y-73101469D01*
X141459294Y-73153767D01*
X141280000Y-73171425D01*
X141100707Y-73153767D01*
X140928306Y-73101469D01*
X140769418Y-73016542D01*
X140630152Y-72902249D01*
X140515858Y-72762982D01*
X140430931Y-72604095D01*
X140378633Y-72431694D01*
X140365400Y-72297331D01*
X140365400Y-71902670D01*
X140378633Y-71768307D01*
X140430931Y-71595906D01*
X140515858Y-71437017D01*
X140630151Y-71297751D01*
X140769417Y-71183458D01*
X140928305Y-71098531D01*
X141100706Y-71046233D01*
X141280000Y-71028575D01*
X141459293Y-71046233D01*
G37*
G36*
X136379293Y-71046233D02*
G01*
X136551694Y-71098531D01*
X136710583Y-71183458D01*
X136849849Y-71297751D01*
X136964142Y-71437017D01*
X137049069Y-71595905D01*
X137101367Y-71768306D01*
X137114600Y-71902669D01*
X137114600Y-72297330D01*
X137101367Y-72431693D01*
X137049069Y-72604094D01*
X136964142Y-72762983D01*
X136849849Y-72902249D01*
X136710583Y-73016542D01*
X136551695Y-73101469D01*
X136379294Y-73153767D01*
X136200000Y-73171425D01*
X136020707Y-73153767D01*
X135848306Y-73101469D01*
X135689418Y-73016542D01*
X135550152Y-72902249D01*
X135435858Y-72762982D01*
X135350931Y-72604095D01*
X135298633Y-72431694D01*
X135285400Y-72297331D01*
X135285400Y-71902670D01*
X135298633Y-71768307D01*
X135350931Y-71595906D01*
X135435858Y-71437017D01*
X135550151Y-71297751D01*
X135689417Y-71183458D01*
X135848305Y-71098531D01*
X136020706Y-71046233D01*
X136200000Y-71028575D01*
X136379293Y-71046233D01*
G37*
G36*
X134574600Y-73167000D02*
G01*
X132745400Y-73167000D01*
X132745400Y-71033000D01*
X134574600Y-71033000D01*
X134574600Y-73167000D01*
G37*
G36*
X161071000Y-72191000D02*
G01*
X159269000Y-72191000D01*
X159269000Y-70089000D01*
X161071000Y-70089000D01*
X161071000Y-72191000D01*
G37*
G36*
X165911000Y-72191000D02*
G01*
X164109000Y-72191000D01*
X164109000Y-70089000D01*
X165911000Y-70089000D01*
X165911000Y-72191000D01*
G37*
G36*
X156171000Y-72181000D02*
G01*
X154369000Y-72181000D01*
X154369000Y-70079000D01*
X156171000Y-70079000D01*
X156171000Y-72181000D01*
G37*
G36*
X169621231Y-67214003D02*
G01*
X169815412Y-67294436D01*
X169815414Y-67294437D01*
X169990173Y-67411207D01*
X170138793Y-67559827D01*
X170243081Y-67715906D01*
X170255564Y-67734588D01*
X170335997Y-67928769D01*
X170377000Y-68134908D01*
X170377000Y-68345092D01*
X170335997Y-68551231D01*
X170335805Y-68551694D01*
X170255563Y-68745414D01*
X170138793Y-68920173D01*
X169990173Y-69068793D01*
X169815414Y-69185563D01*
X169815413Y-69185564D01*
X169815412Y-69185564D01*
X169621231Y-69265997D01*
X169415092Y-69307000D01*
X169204908Y-69307000D01*
X168998769Y-69265997D01*
X168804588Y-69185564D01*
X168804587Y-69185564D01*
X168804586Y-69185563D01*
X168629827Y-69068793D01*
X168481207Y-68920173D01*
X168364437Y-68745414D01*
X168284195Y-68551694D01*
X168284003Y-68551231D01*
X168243000Y-68345092D01*
X168243000Y-68134908D01*
X168284003Y-67928769D01*
X168364436Y-67734588D01*
X168376919Y-67715906D01*
X168481207Y-67559827D01*
X168629827Y-67411207D01*
X168804586Y-67294437D01*
X168804588Y-67294436D01*
X168998769Y-67214003D01*
X169204908Y-67173000D01*
X169415092Y-67173000D01*
X169621231Y-67214003D01*
G37*
G36*
X133829294Y-67166233D02*
G01*
X134001695Y-67218531D01*
X134160583Y-67303458D01*
X134299849Y-67417751D01*
X134414142Y-67557017D01*
X134499069Y-67715906D01*
X134551367Y-67888307D01*
X134564600Y-68022670D01*
X134564600Y-68417331D01*
X134551367Y-68551694D01*
X134499069Y-68724095D01*
X134414142Y-68882983D01*
X134299849Y-69022249D01*
X134160583Y-69136542D01*
X134001694Y-69221469D01*
X133829293Y-69273767D01*
X133650000Y-69291425D01*
X133470706Y-69273767D01*
X133298305Y-69221469D01*
X133139417Y-69136542D01*
X133000151Y-69022249D01*
X132885858Y-68882983D01*
X132800931Y-68724094D01*
X132748633Y-68551693D01*
X132735400Y-68417330D01*
X132735400Y-68022669D01*
X132748633Y-67888306D01*
X132800931Y-67715905D01*
X132885858Y-67557018D01*
X133000152Y-67417751D01*
X133139418Y-67303458D01*
X133298306Y-67218531D01*
X133470707Y-67166233D01*
X133650000Y-67148575D01*
X133829294Y-67166233D01*
G37*
G36*
X165891000Y-68261000D02*
G01*
X164089000Y-68261000D01*
X164089000Y-66159000D01*
X165891000Y-66159000D01*
X165891000Y-68261000D01*
G37*
G36*
X161051000Y-68251000D02*
G01*
X159249000Y-68251000D01*
X159249000Y-66149000D01*
X161051000Y-66149000D01*
X161051000Y-68251000D01*
G37*
G36*
X156151000Y-68241000D02*
G01*
X154349000Y-68241000D01*
X154349000Y-66139000D01*
X156151000Y-66139000D01*
X156151000Y-68241000D01*
G37*
G36*
X152124600Y-66787000D02*
G01*
X150295400Y-66787000D01*
X150295400Y-64653000D01*
X152124600Y-64653000D01*
X152124600Y-66787000D01*
G37*
G36*
X170377000Y-66767000D02*
G01*
X168243000Y-66767000D01*
X168243000Y-64633000D01*
X170377000Y-64633000D01*
X170377000Y-66767000D01*
G37*
G36*
X138691000Y-65001000D02*
G01*
X136589000Y-65001000D01*
X136589000Y-63299000D01*
X138691000Y-63299000D01*
X138691000Y-65001000D01*
G37*
G36*
X134691000Y-65001000D02*
G01*
X132589000Y-65001000D01*
X132589000Y-63299000D01*
X134691000Y-63299000D01*
X134691000Y-65001000D01*
G37*
G36*
X143261000Y-64951000D02*
G01*
X141159000Y-64951000D01*
X141159000Y-63249000D01*
X143261000Y-63249000D01*
X143261000Y-64951000D01*
G37*
G36*
X147261000Y-64951000D02*
G01*
X145159000Y-64951000D01*
X145159000Y-63249000D01*
X147261000Y-63249000D01*
X147261000Y-64951000D01*
G37*
G36*
X165891000Y-64261000D02*
G01*
X164089000Y-64261000D01*
X164089000Y-62159000D01*
X165891000Y-62159000D01*
X165891000Y-64261000D01*
G37*
G36*
X161051000Y-64251000D02*
G01*
X159249000Y-64251000D01*
X159249000Y-62149000D01*
X161051000Y-62149000D01*
X161051000Y-64251000D01*
G37*
G36*
X156151000Y-64241000D02*
G01*
X154349000Y-64241000D01*
X154349000Y-62139000D01*
X156151000Y-62139000D01*
X156151000Y-64241000D01*
G37*
G36*
X166948228Y-58871703D02*
G01*
X167103100Y-58935853D01*
X167242481Y-59028985D01*
X167361015Y-59147519D01*
X167454147Y-59286900D01*
X167518297Y-59441772D01*
X167551000Y-59606184D01*
X167551000Y-59773816D01*
X167518297Y-59938228D01*
X167454147Y-60093100D01*
X167361015Y-60232481D01*
X167242481Y-60351015D01*
X167103100Y-60444147D01*
X166948228Y-60508297D01*
X166783816Y-60541000D01*
X166616184Y-60541000D01*
X166451772Y-60508297D01*
X166296900Y-60444147D01*
X166157519Y-60351015D01*
X166038985Y-60232481D01*
X165945853Y-60093100D01*
X165881703Y-59938228D01*
X165849000Y-59773816D01*
X165849000Y-59606184D01*
X165881703Y-59441772D01*
X165945853Y-59286900D01*
X166038985Y-59147519D01*
X166157519Y-59028985D01*
X166296900Y-58935853D01*
X166451772Y-58871703D01*
X166616184Y-58839000D01*
X166783816Y-58839000D01*
X166948228Y-58871703D01*
G37*
G36*
X134531000Y-60541000D02*
G01*
X132829000Y-60541000D01*
X132829000Y-58839000D01*
X134531000Y-58839000D01*
X134531000Y-60541000D01*
G37*
G36*
X136468228Y-58871703D02*
G01*
X136623100Y-58935853D01*
X136762481Y-59028985D01*
X136881015Y-59147519D01*
X136974147Y-59286900D01*
X137038297Y-59441772D01*
X137071000Y-59606184D01*
X137071000Y-59773816D01*
X137038297Y-59938228D01*
X136974147Y-60093100D01*
X136881015Y-60232481D01*
X136762481Y-60351015D01*
X136623100Y-60444147D01*
X136468228Y-60508297D01*
X136303816Y-60541000D01*
X136136184Y-60541000D01*
X135971772Y-60508297D01*
X135816900Y-60444147D01*
X135677519Y-60351015D01*
X135558985Y-60232481D01*
X135465853Y-60093100D01*
X135401703Y-59938228D01*
X135369000Y-59773816D01*
X135369000Y-59606184D01*
X135401703Y-59441772D01*
X135465853Y-59286900D01*
X135558985Y-59147519D01*
X135677519Y-59028985D01*
X135816900Y-58935853D01*
X135971772Y-58871703D01*
X136136184Y-58839000D01*
X136303816Y-58839000D01*
X136468228Y-58871703D01*
G37*
G36*
X139008228Y-58871703D02*
G01*
X139163100Y-58935853D01*
X139302481Y-59028985D01*
X139421015Y-59147519D01*
X139514147Y-59286900D01*
X139578297Y-59441772D01*
X139611000Y-59606184D01*
X139611000Y-59773816D01*
X139578297Y-59938228D01*
X139514147Y-60093100D01*
X139421015Y-60232481D01*
X139302481Y-60351015D01*
X139163100Y-60444147D01*
X139008228Y-60508297D01*
X138843816Y-60541000D01*
X138676184Y-60541000D01*
X138511772Y-60508297D01*
X138356900Y-60444147D01*
X138217519Y-60351015D01*
X138098985Y-60232481D01*
X138005853Y-60093100D01*
X137941703Y-59938228D01*
X137909000Y-59773816D01*
X137909000Y-59606184D01*
X137941703Y-59441772D01*
X138005853Y-59286900D01*
X138098985Y-59147519D01*
X138217519Y-59028985D01*
X138356900Y-58935853D01*
X138511772Y-58871703D01*
X138676184Y-58839000D01*
X138843816Y-58839000D01*
X139008228Y-58871703D01*
G37*
G36*
X141548228Y-58871703D02*
G01*
X141703100Y-58935853D01*
X141842481Y-59028985D01*
X141961015Y-59147519D01*
X142054147Y-59286900D01*
X142118297Y-59441772D01*
X142151000Y-59606184D01*
X142151000Y-59773816D01*
X142118297Y-59938228D01*
X142054147Y-60093100D01*
X141961015Y-60232481D01*
X141842481Y-60351015D01*
X141703100Y-60444147D01*
X141548228Y-60508297D01*
X141383816Y-60541000D01*
X141216184Y-60541000D01*
X141051772Y-60508297D01*
X140896900Y-60444147D01*
X140757519Y-60351015D01*
X140638985Y-60232481D01*
X140545853Y-60093100D01*
X140481703Y-59938228D01*
X140449000Y-59773816D01*
X140449000Y-59606184D01*
X140481703Y-59441772D01*
X140545853Y-59286900D01*
X140638985Y-59147519D01*
X140757519Y-59028985D01*
X140896900Y-58935853D01*
X141051772Y-58871703D01*
X141216184Y-58839000D01*
X141383816Y-58839000D01*
X141548228Y-58871703D01*
G37*
G36*
X144088228Y-58871703D02*
G01*
X144243100Y-58935853D01*
X144382481Y-59028985D01*
X144501015Y-59147519D01*
X144594147Y-59286900D01*
X144658297Y-59441772D01*
X144691000Y-59606184D01*
X144691000Y-59773816D01*
X144658297Y-59938228D01*
X144594147Y-60093100D01*
X144501015Y-60232481D01*
X144382481Y-60351015D01*
X144243100Y-60444147D01*
X144088228Y-60508297D01*
X143923816Y-60541000D01*
X143756184Y-60541000D01*
X143591772Y-60508297D01*
X143436900Y-60444147D01*
X143297519Y-60351015D01*
X143178985Y-60232481D01*
X143085853Y-60093100D01*
X143021703Y-59938228D01*
X142989000Y-59773816D01*
X142989000Y-59606184D01*
X143021703Y-59441772D01*
X143085853Y-59286900D01*
X143178985Y-59147519D01*
X143297519Y-59028985D01*
X143436900Y-58935853D01*
X143591772Y-58871703D01*
X143756184Y-58839000D01*
X143923816Y-58839000D01*
X144088228Y-58871703D01*
G37*
G36*
X151708228Y-58871703D02*
G01*
X151863100Y-58935853D01*
X152002481Y-59028985D01*
X152121015Y-59147519D01*
X152214147Y-59286900D01*
X152278297Y-59441772D01*
X152311000Y-59606184D01*
X152311000Y-59773816D01*
X152278297Y-59938228D01*
X152214147Y-60093100D01*
X152121015Y-60232481D01*
X152002481Y-60351015D01*
X151863100Y-60444147D01*
X151708228Y-60508297D01*
X151543816Y-60541000D01*
X151376184Y-60541000D01*
X151211772Y-60508297D01*
X151056900Y-60444147D01*
X150917519Y-60351015D01*
X150798985Y-60232481D01*
X150705853Y-60093100D01*
X150641703Y-59938228D01*
X150609000Y-59773816D01*
X150609000Y-59606184D01*
X150641703Y-59441772D01*
X150705853Y-59286900D01*
X150798985Y-59147519D01*
X150917519Y-59028985D01*
X151056900Y-58935853D01*
X151211772Y-58871703D01*
X151376184Y-58839000D01*
X151543816Y-58839000D01*
X151708228Y-58871703D01*
G37*
G36*
X146628228Y-58871703D02*
G01*
X146783100Y-58935853D01*
X146922481Y-59028985D01*
X147041015Y-59147519D01*
X147134147Y-59286900D01*
X147198297Y-59441772D01*
X147231000Y-59606184D01*
X147231000Y-59773816D01*
X147198297Y-59938228D01*
X147134147Y-60093100D01*
X147041015Y-60232481D01*
X146922481Y-60351015D01*
X146783100Y-60444147D01*
X146628228Y-60508297D01*
X146463816Y-60541000D01*
X146296184Y-60541000D01*
X146131772Y-60508297D01*
X145976900Y-60444147D01*
X145837519Y-60351015D01*
X145718985Y-60232481D01*
X145625853Y-60093100D01*
X145561703Y-59938228D01*
X145529000Y-59773816D01*
X145529000Y-59606184D01*
X145561703Y-59441772D01*
X145625853Y-59286900D01*
X145718985Y-59147519D01*
X145837519Y-59028985D01*
X145976900Y-58935853D01*
X146131772Y-58871703D01*
X146296184Y-58839000D01*
X146463816Y-58839000D01*
X146628228Y-58871703D01*
G37*
G36*
X154248228Y-58871703D02*
G01*
X154403100Y-58935853D01*
X154542481Y-59028985D01*
X154661015Y-59147519D01*
X154754147Y-59286900D01*
X154818297Y-59441772D01*
X154851000Y-59606184D01*
X154851000Y-59773816D01*
X154818297Y-59938228D01*
X154754147Y-60093100D01*
X154661015Y-60232481D01*
X154542481Y-60351015D01*
X154403100Y-60444147D01*
X154248228Y-60508297D01*
X154083816Y-60541000D01*
X153916184Y-60541000D01*
X153751772Y-60508297D01*
X153596900Y-60444147D01*
X153457519Y-60351015D01*
X153338985Y-60232481D01*
X153245853Y-60093100D01*
X153181703Y-59938228D01*
X153149000Y-59773816D01*
X153149000Y-59606184D01*
X153181703Y-59441772D01*
X153245853Y-59286900D01*
X153338985Y-59147519D01*
X153457519Y-59028985D01*
X153596900Y-58935853D01*
X153751772Y-58871703D01*
X153916184Y-58839000D01*
X154083816Y-58839000D01*
X154248228Y-58871703D01*
G37*
G36*
X149168228Y-58871703D02*
G01*
X149323100Y-58935853D01*
X149462481Y-59028985D01*
X149581015Y-59147519D01*
X149674147Y-59286900D01*
X149738297Y-59441772D01*
X149771000Y-59606184D01*
X149771000Y-59773816D01*
X149738297Y-59938228D01*
X149674147Y-60093100D01*
X149581015Y-60232481D01*
X149462481Y-60351015D01*
X149323100Y-60444147D01*
X149168228Y-60508297D01*
X149003816Y-60541000D01*
X148836184Y-60541000D01*
X148671772Y-60508297D01*
X148516900Y-60444147D01*
X148377519Y-60351015D01*
X148258985Y-60232481D01*
X148165853Y-60093100D01*
X148101703Y-59938228D01*
X148069000Y-59773816D01*
X148069000Y-59606184D01*
X148101703Y-59441772D01*
X148165853Y-59286900D01*
X148258985Y-59147519D01*
X148377519Y-59028985D01*
X148516900Y-58935853D01*
X148671772Y-58871703D01*
X148836184Y-58839000D01*
X149003816Y-58839000D01*
X149168228Y-58871703D01*
G37*
G36*
X164408228Y-58871703D02*
G01*
X164563100Y-58935853D01*
X164702481Y-59028985D01*
X164821015Y-59147519D01*
X164914147Y-59286900D01*
X164978297Y-59441772D01*
X165011000Y-59606184D01*
X165011000Y-59773816D01*
X164978297Y-59938228D01*
X164914147Y-60093100D01*
X164821015Y-60232481D01*
X164702481Y-60351015D01*
X164563100Y-60444147D01*
X164408228Y-60508297D01*
X164243816Y-60541000D01*
X164076184Y-60541000D01*
X163911772Y-60508297D01*
X163756900Y-60444147D01*
X163617519Y-60351015D01*
X163498985Y-60232481D01*
X163405853Y-60093100D01*
X163341703Y-59938228D01*
X163309000Y-59773816D01*
X163309000Y-59606184D01*
X163341703Y-59441772D01*
X163405853Y-59286900D01*
X163498985Y-59147519D01*
X163617519Y-59028985D01*
X163756900Y-58935853D01*
X163911772Y-58871703D01*
X164076184Y-58839000D01*
X164243816Y-58839000D01*
X164408228Y-58871703D01*
G37*
G36*
X169488228Y-58871703D02*
G01*
X169643100Y-58935853D01*
X169782481Y-59028985D01*
X169901015Y-59147519D01*
X169994147Y-59286900D01*
X170058297Y-59441772D01*
X170091000Y-59606184D01*
X170091000Y-59773816D01*
X170058297Y-59938228D01*
X169994147Y-60093100D01*
X169901015Y-60232481D01*
X169782481Y-60351015D01*
X169643100Y-60444147D01*
X169488228Y-60508297D01*
X169323816Y-60541000D01*
X169156184Y-60541000D01*
X168991772Y-60508297D01*
X168836900Y-60444147D01*
X168697519Y-60351015D01*
X168578985Y-60232481D01*
X168485853Y-60093100D01*
X168421703Y-59938228D01*
X168389000Y-59773816D01*
X168389000Y-59606184D01*
X168421703Y-59441772D01*
X168485853Y-59286900D01*
X168578985Y-59147519D01*
X168697519Y-59028985D01*
X168836900Y-58935853D01*
X168991772Y-58871703D01*
X169156184Y-58839000D01*
X169323816Y-58839000D01*
X169488228Y-58871703D01*
G37*
G36*
X159328228Y-58871703D02*
G01*
X159483100Y-58935853D01*
X159622481Y-59028985D01*
X159741015Y-59147519D01*
X159834147Y-59286900D01*
X159898297Y-59441772D01*
X159931000Y-59606184D01*
X159931000Y-59773816D01*
X159898297Y-59938228D01*
X159834147Y-60093100D01*
X159741015Y-60232481D01*
X159622481Y-60351015D01*
X159483100Y-60444147D01*
X159328228Y-60508297D01*
X159163816Y-60541000D01*
X158996184Y-60541000D01*
X158831772Y-60508297D01*
X158676900Y-60444147D01*
X158537519Y-60351015D01*
X158418985Y-60232481D01*
X158325853Y-60093100D01*
X158261703Y-59938228D01*
X158229000Y-59773816D01*
X158229000Y-59606184D01*
X158261703Y-59441772D01*
X158325853Y-59286900D01*
X158418985Y-59147519D01*
X158537519Y-59028985D01*
X158676900Y-58935853D01*
X158831772Y-58871703D01*
X158996184Y-58839000D01*
X159163816Y-58839000D01*
X159328228Y-58871703D01*
G37*
G36*
X156788228Y-58871703D02*
G01*
X156943100Y-58935853D01*
X157082481Y-59028985D01*
X157201015Y-59147519D01*
X157294147Y-59286900D01*
X157358297Y-59441772D01*
X157391000Y-59606184D01*
X157391000Y-59773816D01*
X157358297Y-59938228D01*
X157294147Y-60093100D01*
X157201015Y-60232481D01*
X157082481Y-60351015D01*
X156943100Y-60444147D01*
X156788228Y-60508297D01*
X156623816Y-60541000D01*
X156456184Y-60541000D01*
X156291772Y-60508297D01*
X156136900Y-60444147D01*
X155997519Y-60351015D01*
X155878985Y-60232481D01*
X155785853Y-60093100D01*
X155721703Y-59938228D01*
X155689000Y-59773816D01*
X155689000Y-59606184D01*
X155721703Y-59441772D01*
X155785853Y-59286900D01*
X155878985Y-59147519D01*
X155997519Y-59028985D01*
X156136900Y-58935853D01*
X156291772Y-58871703D01*
X156456184Y-58839000D01*
X156623816Y-58839000D01*
X156788228Y-58871703D01*
G37*
G36*
X161868228Y-58871703D02*
G01*
X162023100Y-58935853D01*
X162162481Y-59028985D01*
X162281015Y-59147519D01*
X162374147Y-59286900D01*
X162438297Y-59441772D01*
X162471000Y-59606184D01*
X162471000Y-59773816D01*
X162438297Y-59938228D01*
X162374147Y-60093100D01*
X162281015Y-60232481D01*
X162162481Y-60351015D01*
X162023100Y-60444147D01*
X161868228Y-60508297D01*
X161703816Y-60541000D01*
X161536184Y-60541000D01*
X161371772Y-60508297D01*
X161216900Y-60444147D01*
X161077519Y-60351015D01*
X160958985Y-60232481D01*
X160865853Y-60093100D01*
X160801703Y-59938228D01*
X160769000Y-59773816D01*
X160769000Y-59606184D01*
X160801703Y-59441772D01*
X160865853Y-59286900D01*
X160958985Y-59147519D01*
X161077519Y-59028985D01*
X161216900Y-58935853D01*
X161371772Y-58871703D01*
X161536184Y-58839000D01*
X161703816Y-58839000D01*
X161868228Y-58871703D01*
G37*
G36*
X146636778Y-52440547D02*
G01*
X146803224Y-52509491D01*
X146953022Y-52609583D01*
X147080417Y-52736978D01*
X147180509Y-52886776D01*
X147249453Y-53053222D01*
X147284600Y-53229918D01*
X147284600Y-53410082D01*
X147249453Y-53586778D01*
X147180509Y-53753224D01*
X147080417Y-53903022D01*
X146953022Y-54030417D01*
X146803224Y-54130509D01*
X146636778Y-54199453D01*
X146460082Y-54234600D01*
X146279918Y-54234600D01*
X146103222Y-54199453D01*
X145936776Y-54130509D01*
X145786978Y-54030417D01*
X145659583Y-53903022D01*
X145559491Y-53753224D01*
X145490547Y-53586778D01*
X145455400Y-53410082D01*
X145455400Y-53229918D01*
X145490547Y-53053222D01*
X145559491Y-52886776D01*
X145659583Y-52736978D01*
X145786978Y-52609583D01*
X145936776Y-52509491D01*
X146103222Y-52440547D01*
X146279918Y-52405400D01*
X146460082Y-52405400D01*
X146636778Y-52440547D01*
G37*
G36*
X151716778Y-52440547D02*
G01*
X151883224Y-52509491D01*
X152033022Y-52609583D01*
X152160417Y-52736978D01*
X152260509Y-52886776D01*
X152329453Y-53053222D01*
X152364600Y-53229918D01*
X152364600Y-53410082D01*
X152329453Y-53586778D01*
X152260509Y-53753224D01*
X152160417Y-53903022D01*
X152033022Y-54030417D01*
X151883224Y-54130509D01*
X151716778Y-54199453D01*
X151540082Y-54234600D01*
X151359918Y-54234600D01*
X151183222Y-54199453D01*
X151016776Y-54130509D01*
X150866978Y-54030417D01*
X150739583Y-53903022D01*
X150639491Y-53753224D01*
X150570547Y-53586778D01*
X150535400Y-53410082D01*
X150535400Y-53229918D01*
X150570547Y-53053222D01*
X150639491Y-52886776D01*
X150739583Y-52736978D01*
X150866978Y-52609583D01*
X151016776Y-52509491D01*
X151183222Y-52440547D01*
X151359918Y-52405400D01*
X151540082Y-52405400D01*
X151716778Y-52440547D01*
G37*
G36*
X149176778Y-52440547D02*
G01*
X149343224Y-52509491D01*
X149493022Y-52609583D01*
X149620417Y-52736978D01*
X149720509Y-52886776D01*
X149789453Y-53053222D01*
X149824600Y-53229918D01*
X149824600Y-53410082D01*
X149789453Y-53586778D01*
X149720509Y-53753224D01*
X149620417Y-53903022D01*
X149493022Y-54030417D01*
X149343224Y-54130509D01*
X149176778Y-54199453D01*
X149000082Y-54234600D01*
X148819918Y-54234600D01*
X148643222Y-54199453D01*
X148476776Y-54130509D01*
X148326978Y-54030417D01*
X148199583Y-53903022D01*
X148099491Y-53753224D01*
X148030547Y-53586778D01*
X147995400Y-53410082D01*
X147995400Y-53229918D01*
X148030547Y-53053222D01*
X148099491Y-52886776D01*
X148199583Y-52736978D01*
X148326978Y-52609583D01*
X148476776Y-52509491D01*
X148643222Y-52440547D01*
X148819918Y-52405400D01*
X149000082Y-52405400D01*
X149176778Y-52440547D01*
G37*
G36*
X154904600Y-54234600D02*
G01*
X153075400Y-54234600D01*
X153075400Y-52405400D01*
X154904600Y-52405400D01*
X154904600Y-54234600D01*
G37*
G36*
X144096778Y-52440547D02*
G01*
X144263224Y-52509491D01*
X144413022Y-52609583D01*
X144540417Y-52736978D01*
X144640509Y-52886776D01*
X144709453Y-53053222D01*
X144744600Y-53229918D01*
X144744600Y-53410082D01*
X144709453Y-53586778D01*
X144640509Y-53753224D01*
X144540417Y-53903022D01*
X144413022Y-54030417D01*
X144263224Y-54130509D01*
X144096778Y-54199453D01*
X143920082Y-54234600D01*
X143739918Y-54234600D01*
X143563222Y-54199453D01*
X143396776Y-54130509D01*
X143246978Y-54030417D01*
X143119583Y-53903022D01*
X143019491Y-53753224D01*
X142950547Y-53586778D01*
X142915400Y-53410082D01*
X142915400Y-53229918D01*
X142950547Y-53053222D01*
X143019491Y-52886776D01*
X143119583Y-52736978D01*
X143246978Y-52609583D01*
X143396776Y-52509491D01*
X143563222Y-52440547D01*
X143739918Y-52405400D01*
X143920082Y-52405400D01*
X144096778Y-52440547D01*
G37*
G36*
X141556778Y-52440547D02*
G01*
X141723224Y-52509491D01*
X141873022Y-52609583D01*
X142000417Y-52736978D01*
X142100509Y-52886776D01*
X142169453Y-53053222D01*
X142204600Y-53229918D01*
X142204600Y-53410082D01*
X142169453Y-53586778D01*
X142100509Y-53753224D01*
X142000417Y-53903022D01*
X141873022Y-54030417D01*
X141723224Y-54130509D01*
X141556778Y-54199453D01*
X141380082Y-54234600D01*
X141199918Y-54234600D01*
X141023222Y-54199453D01*
X140856776Y-54130509D01*
X140706978Y-54030417D01*
X140579583Y-53903022D01*
X140479491Y-53753224D01*
X140410547Y-53586778D01*
X140375400Y-53410082D01*
X140375400Y-53229918D01*
X140410547Y-53053222D01*
X140479491Y-52886776D01*
X140579583Y-52736978D01*
X140706978Y-52609583D01*
X140856776Y-52509491D01*
X141023222Y-52440547D01*
X141199918Y-52405400D01*
X141380082Y-52405400D01*
X141556778Y-52440547D01*
G37*
G36*
X133936778Y-52440547D02*
G01*
X134103224Y-52509491D01*
X134253022Y-52609583D01*
X134380417Y-52736978D01*
X134480509Y-52886776D01*
X134549453Y-53053222D01*
X134584600Y-53229918D01*
X134584600Y-53410082D01*
X134549453Y-53586778D01*
X134480509Y-53753224D01*
X134380417Y-53903022D01*
X134253022Y-54030417D01*
X134103224Y-54130509D01*
X133936778Y-54199453D01*
X133760082Y-54234600D01*
X133579918Y-54234600D01*
X133403222Y-54199453D01*
X133236776Y-54130509D01*
X133086978Y-54030417D01*
X132959583Y-53903022D01*
X132859491Y-53753224D01*
X132790547Y-53586778D01*
X132755400Y-53410082D01*
X132755400Y-53229918D01*
X132790547Y-53053222D01*
X132859491Y-52886776D01*
X132959583Y-52736978D01*
X133086978Y-52609583D01*
X133236776Y-52509491D01*
X133403222Y-52440547D01*
X133579918Y-52405400D01*
X133760082Y-52405400D01*
X133936778Y-52440547D01*
G37*
G36*
X136476778Y-52440547D02*
G01*
X136643224Y-52509491D01*
X136793022Y-52609583D01*
X136920417Y-52736978D01*
X137020509Y-52886776D01*
X137089453Y-53053222D01*
X137124600Y-53229918D01*
X137124600Y-53410082D01*
X137089453Y-53586778D01*
X137020509Y-53753224D01*
X136920417Y-53903022D01*
X136793022Y-54030417D01*
X136643224Y-54130509D01*
X136476778Y-54199453D01*
X136300082Y-54234600D01*
X136119918Y-54234600D01*
X135943222Y-54199453D01*
X135776776Y-54130509D01*
X135626978Y-54030417D01*
X135499583Y-53903022D01*
X135399491Y-53753224D01*
X135330547Y-53586778D01*
X135295400Y-53410082D01*
X135295400Y-53229918D01*
X135330547Y-53053222D01*
X135399491Y-52886776D01*
X135499583Y-52736978D01*
X135626978Y-52609583D01*
X135776776Y-52509491D01*
X135943222Y-52440547D01*
X136119918Y-52405400D01*
X136300082Y-52405400D01*
X136476778Y-52440547D01*
G37*
G36*
X139016778Y-52440547D02*
G01*
X139183224Y-52509491D01*
X139333022Y-52609583D01*
X139460417Y-52736978D01*
X139560509Y-52886776D01*
X139629453Y-53053222D01*
X139664600Y-53229918D01*
X139664600Y-53410082D01*
X139629453Y-53586778D01*
X139560509Y-53753224D01*
X139460417Y-53903022D01*
X139333022Y-54030417D01*
X139183224Y-54130509D01*
X139016778Y-54199453D01*
X138840082Y-54234600D01*
X138659918Y-54234600D01*
X138483222Y-54199453D01*
X138316776Y-54130509D01*
X138166978Y-54030417D01*
X138039583Y-53903022D01*
X137939491Y-53753224D01*
X137870547Y-53586778D01*
X137835400Y-53410082D01*
X137835400Y-53229918D01*
X137870547Y-53053222D01*
X137939491Y-52886776D01*
X138039583Y-52736978D01*
X138166978Y-52609583D01*
X138316776Y-52509491D01*
X138483222Y-52440547D01*
X138659918Y-52405400D01*
X138840082Y-52405400D01*
X139016778Y-52440547D01*
G37*
G36*
X151716778Y-49900547D02*
G01*
X151883224Y-49969491D01*
X152033022Y-50069583D01*
X152160417Y-50196978D01*
X152260509Y-50346776D01*
X152329453Y-50513222D01*
X152364600Y-50689918D01*
X152364600Y-50870082D01*
X152329453Y-51046778D01*
X152260509Y-51213224D01*
X152160417Y-51363022D01*
X152033022Y-51490417D01*
X151883224Y-51590509D01*
X151716778Y-51659453D01*
X151540082Y-51694600D01*
X151359918Y-51694600D01*
X151183222Y-51659453D01*
X151016776Y-51590509D01*
X150866978Y-51490417D01*
X150739583Y-51363022D01*
X150639491Y-51213224D01*
X150570547Y-51046778D01*
X150535400Y-50870082D01*
X150535400Y-50689918D01*
X150570547Y-50513222D01*
X150639491Y-50346776D01*
X150739583Y-50196978D01*
X150866978Y-50069583D01*
X151016776Y-49969491D01*
X151183222Y-49900547D01*
X151359918Y-49865400D01*
X151540082Y-49865400D01*
X151716778Y-49900547D01*
G37*
G36*
X146636778Y-49900547D02*
G01*
X146803224Y-49969491D01*
X146953022Y-50069583D01*
X147080417Y-50196978D01*
X147180509Y-50346776D01*
X147249453Y-50513222D01*
X147284600Y-50689918D01*
X147284600Y-50870082D01*
X147249453Y-51046778D01*
X147180509Y-51213224D01*
X147080417Y-51363022D01*
X146953022Y-51490417D01*
X146803224Y-51590509D01*
X146636778Y-51659453D01*
X146460082Y-51694600D01*
X146279918Y-51694600D01*
X146103222Y-51659453D01*
X145936776Y-51590509D01*
X145786978Y-51490417D01*
X145659583Y-51363022D01*
X145559491Y-51213224D01*
X145490547Y-51046778D01*
X145455400Y-50870082D01*
X145455400Y-50689918D01*
X145490547Y-50513222D01*
X145559491Y-50346776D01*
X145659583Y-50196978D01*
X145786978Y-50069583D01*
X145936776Y-49969491D01*
X146103222Y-49900547D01*
X146279918Y-49865400D01*
X146460082Y-49865400D01*
X146636778Y-49900547D01*
G37*
G36*
X144096778Y-49900547D02*
G01*
X144263224Y-49969491D01*
X144413022Y-50069583D01*
X144540417Y-50196978D01*
X144640509Y-50346776D01*
X144709453Y-50513222D01*
X144744600Y-50689918D01*
X144744600Y-50870082D01*
X144709453Y-51046778D01*
X144640509Y-51213224D01*
X144540417Y-51363022D01*
X144413022Y-51490417D01*
X144263224Y-51590509D01*
X144096778Y-51659453D01*
X143920082Y-51694600D01*
X143739918Y-51694600D01*
X143563222Y-51659453D01*
X143396776Y-51590509D01*
X143246978Y-51490417D01*
X143119583Y-51363022D01*
X143019491Y-51213224D01*
X142950547Y-51046778D01*
X142915400Y-50870082D01*
X142915400Y-50689918D01*
X142950547Y-50513222D01*
X143019491Y-50346776D01*
X143119583Y-50196978D01*
X143246978Y-50069583D01*
X143396776Y-49969491D01*
X143563222Y-49900547D01*
X143739918Y-49865400D01*
X143920082Y-49865400D01*
X144096778Y-49900547D01*
G37*
G36*
X154256778Y-49900547D02*
G01*
X154423224Y-49969491D01*
X154573022Y-50069583D01*
X154700417Y-50196978D01*
X154800509Y-50346776D01*
X154869453Y-50513222D01*
X154904600Y-50689918D01*
X154904600Y-50870082D01*
X154869453Y-51046778D01*
X154800509Y-51213224D01*
X154700417Y-51363022D01*
X154573022Y-51490417D01*
X154423224Y-51590509D01*
X154256778Y-51659453D01*
X154080082Y-51694600D01*
X153899918Y-51694600D01*
X153723222Y-51659453D01*
X153556776Y-51590509D01*
X153406978Y-51490417D01*
X153279583Y-51363022D01*
X153179491Y-51213224D01*
X153110547Y-51046778D01*
X153075400Y-50870082D01*
X153075400Y-50689918D01*
X153110547Y-50513222D01*
X153179491Y-50346776D01*
X153279583Y-50196978D01*
X153406978Y-50069583D01*
X153556776Y-49969491D01*
X153723222Y-49900547D01*
X153899918Y-49865400D01*
X154080082Y-49865400D01*
X154256778Y-49900547D01*
G37*
G36*
X141556778Y-49900547D02*
G01*
X141723224Y-49969491D01*
X141873022Y-50069583D01*
X142000417Y-50196978D01*
X142100509Y-50346776D01*
X142169453Y-50513222D01*
X142204600Y-50689918D01*
X142204600Y-50870082D01*
X142169453Y-51046778D01*
X142100509Y-51213224D01*
X142000417Y-51363022D01*
X141873022Y-51490417D01*
X141723224Y-51590509D01*
X141556778Y-51659453D01*
X141380082Y-51694600D01*
X141199918Y-51694600D01*
X141023222Y-51659453D01*
X140856776Y-51590509D01*
X140706978Y-51490417D01*
X140579583Y-51363022D01*
X140479491Y-51213224D01*
X140410547Y-51046778D01*
X140375400Y-50870082D01*
X140375400Y-50689918D01*
X140410547Y-50513222D01*
X140479491Y-50346776D01*
X140579583Y-50196978D01*
X140706978Y-50069583D01*
X140856776Y-49969491D01*
X141023222Y-49900547D01*
X141199918Y-49865400D01*
X141380082Y-49865400D01*
X141556778Y-49900547D01*
G37*
G36*
X136476778Y-49900547D02*
G01*
X136643224Y-49969491D01*
X136793022Y-50069583D01*
X136920417Y-50196978D01*
X137020509Y-50346776D01*
X137089453Y-50513222D01*
X137124600Y-50689918D01*
X137124600Y-50870082D01*
X137089453Y-51046778D01*
X137020509Y-51213224D01*
X136920417Y-51363022D01*
X136793022Y-51490417D01*
X136643224Y-51590509D01*
X136476778Y-51659453D01*
X136300082Y-51694600D01*
X136119918Y-51694600D01*
X135943222Y-51659453D01*
X135776776Y-51590509D01*
X135626978Y-51490417D01*
X135499583Y-51363022D01*
X135399491Y-51213224D01*
X135330547Y-51046778D01*
X135295400Y-50870082D01*
X135295400Y-50689918D01*
X135330547Y-50513222D01*
X135399491Y-50346776D01*
X135499583Y-50196978D01*
X135626978Y-50069583D01*
X135776776Y-49969491D01*
X135943222Y-49900547D01*
X136119918Y-49865400D01*
X136300082Y-49865400D01*
X136476778Y-49900547D01*
G37*
G36*
X133936778Y-49900547D02*
G01*
X134103224Y-49969491D01*
X134253022Y-50069583D01*
X134380417Y-50196978D01*
X134480509Y-50346776D01*
X134549453Y-50513222D01*
X134584600Y-50689918D01*
X134584600Y-50870082D01*
X134549453Y-51046778D01*
X134480509Y-51213224D01*
X134380417Y-51363022D01*
X134253022Y-51490417D01*
X134103224Y-51590509D01*
X133936778Y-51659453D01*
X133760082Y-51694600D01*
X133579918Y-51694600D01*
X133403222Y-51659453D01*
X133236776Y-51590509D01*
X133086978Y-51490417D01*
X132959583Y-51363022D01*
X132859491Y-51213224D01*
X132790547Y-51046778D01*
X132755400Y-50870082D01*
X132755400Y-50689918D01*
X132790547Y-50513222D01*
X132859491Y-50346776D01*
X132959583Y-50196978D01*
X133086978Y-50069583D01*
X133236776Y-49969491D01*
X133403222Y-49900547D01*
X133579918Y-49865400D01*
X133760082Y-49865400D01*
X133936778Y-49900547D01*
G37*
G36*
X149176778Y-49900547D02*
G01*
X149343224Y-49969491D01*
X149493022Y-50069583D01*
X149620417Y-50196978D01*
X149720509Y-50346776D01*
X149789453Y-50513222D01*
X149824600Y-50689918D01*
X149824600Y-50870082D01*
X149789453Y-51046778D01*
X149720509Y-51213224D01*
X149620417Y-51363022D01*
X149493022Y-51490417D01*
X149343224Y-51590509D01*
X149176778Y-51659453D01*
X149000082Y-51694600D01*
X148819918Y-51694600D01*
X148643222Y-51659453D01*
X148476776Y-51590509D01*
X148326978Y-51490417D01*
X148199583Y-51363022D01*
X148099491Y-51213224D01*
X148030547Y-51046778D01*
X147995400Y-50870082D01*
X147995400Y-50689918D01*
X148030547Y-50513222D01*
X148099491Y-50346776D01*
X148199583Y-50196978D01*
X148326978Y-50069583D01*
X148476776Y-49969491D01*
X148643222Y-49900547D01*
X148819918Y-49865400D01*
X149000082Y-49865400D01*
X149176778Y-49900547D01*
G37*
G36*
X139016778Y-49900547D02*
G01*
X139183224Y-49969491D01*
X139333022Y-50069583D01*
X139460417Y-50196978D01*
X139560509Y-50346776D01*
X139629453Y-50513222D01*
X139664600Y-50689918D01*
X139664600Y-50870082D01*
X139629453Y-51046778D01*
X139560509Y-51213224D01*
X139460417Y-51363022D01*
X139333022Y-51490417D01*
X139183224Y-51590509D01*
X139016778Y-51659453D01*
X138840082Y-51694600D01*
X138659918Y-51694600D01*
X138483222Y-51659453D01*
X138316776Y-51590509D01*
X138166978Y-51490417D01*
X138039583Y-51363022D01*
X137939491Y-51213224D01*
X137870547Y-51046778D01*
X137835400Y-50870082D01*
X137835400Y-50689918D01*
X137870547Y-50513222D01*
X137939491Y-50346776D01*
X138039583Y-50196978D01*
X138166978Y-50069583D01*
X138316776Y-49969491D01*
X138483222Y-49900547D01*
X138659918Y-49865400D01*
X138840082Y-49865400D01*
X139016778Y-49900547D01*
G37*
G36*
X133928228Y-43631703D02*
G01*
X134083100Y-43695853D01*
X134222481Y-43788985D01*
X134341015Y-43907519D01*
X134434147Y-44046900D01*
X134498297Y-44201772D01*
X134531000Y-44366184D01*
X134531000Y-44533816D01*
X134498297Y-44698228D01*
X134434147Y-44853100D01*
X134341015Y-44992481D01*
X134222481Y-45111015D01*
X134083100Y-45204147D01*
X133928228Y-45268297D01*
X133763816Y-45301000D01*
X133596184Y-45301000D01*
X133431772Y-45268297D01*
X133276900Y-45204147D01*
X133137519Y-45111015D01*
X133018985Y-44992481D01*
X132925853Y-44853100D01*
X132861703Y-44698228D01*
X132829000Y-44533816D01*
X132829000Y-44366184D01*
X132861703Y-44201772D01*
X132925853Y-44046900D01*
X133018985Y-43907519D01*
X133137519Y-43788985D01*
X133276900Y-43695853D01*
X133431772Y-43631703D01*
X133596184Y-43599000D01*
X133763816Y-43599000D01*
X133928228Y-43631703D01*
G37*
G36*
X136468228Y-43631703D02*
G01*
X136623100Y-43695853D01*
X136762481Y-43788985D01*
X136881015Y-43907519D01*
X136974147Y-44046900D01*
X137038297Y-44201772D01*
X137071000Y-44366184D01*
X137071000Y-44533816D01*
X137038297Y-44698228D01*
X136974147Y-44853100D01*
X136881015Y-44992481D01*
X136762481Y-45111015D01*
X136623100Y-45204147D01*
X136468228Y-45268297D01*
X136303816Y-45301000D01*
X136136184Y-45301000D01*
X135971772Y-45268297D01*
X135816900Y-45204147D01*
X135677519Y-45111015D01*
X135558985Y-44992481D01*
X135465853Y-44853100D01*
X135401703Y-44698228D01*
X135369000Y-44533816D01*
X135369000Y-44366184D01*
X135401703Y-44201772D01*
X135465853Y-44046900D01*
X135558985Y-43907519D01*
X135677519Y-43788985D01*
X135816900Y-43695853D01*
X135971772Y-43631703D01*
X136136184Y-43599000D01*
X136303816Y-43599000D01*
X136468228Y-43631703D01*
G37*
G36*
X139008228Y-43631703D02*
G01*
X139163100Y-43695853D01*
X139302481Y-43788985D01*
X139421015Y-43907519D01*
X139514147Y-44046900D01*
X139578297Y-44201772D01*
X139611000Y-44366184D01*
X139611000Y-44533816D01*
X139578297Y-44698228D01*
X139514147Y-44853100D01*
X139421015Y-44992481D01*
X139302481Y-45111015D01*
X139163100Y-45204147D01*
X139008228Y-45268297D01*
X138843816Y-45301000D01*
X138676184Y-45301000D01*
X138511772Y-45268297D01*
X138356900Y-45204147D01*
X138217519Y-45111015D01*
X138098985Y-44992481D01*
X138005853Y-44853100D01*
X137941703Y-44698228D01*
X137909000Y-44533816D01*
X137909000Y-44366184D01*
X137941703Y-44201772D01*
X138005853Y-44046900D01*
X138098985Y-43907519D01*
X138217519Y-43788985D01*
X138356900Y-43695853D01*
X138511772Y-43631703D01*
X138676184Y-43599000D01*
X138843816Y-43599000D01*
X139008228Y-43631703D01*
G37*
G36*
X141548228Y-43631703D02*
G01*
X141703100Y-43695853D01*
X141842481Y-43788985D01*
X141961015Y-43907519D01*
X142054147Y-44046900D01*
X142118297Y-44201772D01*
X142151000Y-44366184D01*
X142151000Y-44533816D01*
X142118297Y-44698228D01*
X142054147Y-44853100D01*
X141961015Y-44992481D01*
X141842481Y-45111015D01*
X141703100Y-45204147D01*
X141548228Y-45268297D01*
X141383816Y-45301000D01*
X141216184Y-45301000D01*
X141051772Y-45268297D01*
X140896900Y-45204147D01*
X140757519Y-45111015D01*
X140638985Y-44992481D01*
X140545853Y-44853100D01*
X140481703Y-44698228D01*
X140449000Y-44533816D01*
X140449000Y-44366184D01*
X140481703Y-44201772D01*
X140545853Y-44046900D01*
X140638985Y-43907519D01*
X140757519Y-43788985D01*
X140896900Y-43695853D01*
X141051772Y-43631703D01*
X141216184Y-43599000D01*
X141383816Y-43599000D01*
X141548228Y-43631703D01*
G37*
G36*
X144088228Y-43631703D02*
G01*
X144243100Y-43695853D01*
X144382481Y-43788985D01*
X144501015Y-43907519D01*
X144594147Y-44046900D01*
X144658297Y-44201772D01*
X144691000Y-44366184D01*
X144691000Y-44533816D01*
X144658297Y-44698228D01*
X144594147Y-44853100D01*
X144501015Y-44992481D01*
X144382481Y-45111015D01*
X144243100Y-45204147D01*
X144088228Y-45268297D01*
X143923816Y-45301000D01*
X143756184Y-45301000D01*
X143591772Y-45268297D01*
X143436900Y-45204147D01*
X143297519Y-45111015D01*
X143178985Y-44992481D01*
X143085853Y-44853100D01*
X143021703Y-44698228D01*
X142989000Y-44533816D01*
X142989000Y-44366184D01*
X143021703Y-44201772D01*
X143085853Y-44046900D01*
X143178985Y-43907519D01*
X143297519Y-43788985D01*
X143436900Y-43695853D01*
X143591772Y-43631703D01*
X143756184Y-43599000D01*
X143923816Y-43599000D01*
X144088228Y-43631703D01*
G37*
G36*
X146628228Y-43631703D02*
G01*
X146783100Y-43695853D01*
X146922481Y-43788985D01*
X147041015Y-43907519D01*
X147134147Y-44046900D01*
X147198297Y-44201772D01*
X147231000Y-44366184D01*
X147231000Y-44533816D01*
X147198297Y-44698228D01*
X147134147Y-44853100D01*
X147041015Y-44992481D01*
X146922481Y-45111015D01*
X146783100Y-45204147D01*
X146628228Y-45268297D01*
X146463816Y-45301000D01*
X146296184Y-45301000D01*
X146131772Y-45268297D01*
X145976900Y-45204147D01*
X145837519Y-45111015D01*
X145718985Y-44992481D01*
X145625853Y-44853100D01*
X145561703Y-44698228D01*
X145529000Y-44533816D01*
X145529000Y-44366184D01*
X145561703Y-44201772D01*
X145625853Y-44046900D01*
X145718985Y-43907519D01*
X145837519Y-43788985D01*
X145976900Y-43695853D01*
X146131772Y-43631703D01*
X146296184Y-43599000D01*
X146463816Y-43599000D01*
X146628228Y-43631703D01*
G37*
G36*
X149168228Y-43631703D02*
G01*
X149323100Y-43695853D01*
X149462481Y-43788985D01*
X149581015Y-43907519D01*
X149674147Y-44046900D01*
X149738297Y-44201772D01*
X149771000Y-44366184D01*
X149771000Y-44533816D01*
X149738297Y-44698228D01*
X149674147Y-44853100D01*
X149581015Y-44992481D01*
X149462481Y-45111015D01*
X149323100Y-45204147D01*
X149168228Y-45268297D01*
X149003816Y-45301000D01*
X148836184Y-45301000D01*
X148671772Y-45268297D01*
X148516900Y-45204147D01*
X148377519Y-45111015D01*
X148258985Y-44992481D01*
X148165853Y-44853100D01*
X148101703Y-44698228D01*
X148069000Y-44533816D01*
X148069000Y-44366184D01*
X148101703Y-44201772D01*
X148165853Y-44046900D01*
X148258985Y-43907519D01*
X148377519Y-43788985D01*
X148516900Y-43695853D01*
X148671772Y-43631703D01*
X148836184Y-43599000D01*
X149003816Y-43599000D01*
X149168228Y-43631703D01*
G37*
G36*
X151708228Y-43631703D02*
G01*
X151863100Y-43695853D01*
X152002481Y-43788985D01*
X152121015Y-43907519D01*
X152214147Y-44046900D01*
X152278297Y-44201772D01*
X152311000Y-44366184D01*
X152311000Y-44533816D01*
X152278297Y-44698228D01*
X152214147Y-44853100D01*
X152121015Y-44992481D01*
X152002481Y-45111015D01*
X151863100Y-45204147D01*
X151708228Y-45268297D01*
X151543816Y-45301000D01*
X151376184Y-45301000D01*
X151211772Y-45268297D01*
X151056900Y-45204147D01*
X150917519Y-45111015D01*
X150798985Y-44992481D01*
X150705853Y-44853100D01*
X150641703Y-44698228D01*
X150609000Y-44533816D01*
X150609000Y-44366184D01*
X150641703Y-44201772D01*
X150705853Y-44046900D01*
X150798985Y-43907519D01*
X150917519Y-43788985D01*
X151056900Y-43695853D01*
X151211772Y-43631703D01*
X151376184Y-43599000D01*
X151543816Y-43599000D01*
X151708228Y-43631703D01*
G37*
G36*
X154248228Y-43631703D02*
G01*
X154403100Y-43695853D01*
X154542481Y-43788985D01*
X154661015Y-43907519D01*
X154754147Y-44046900D01*
X154818297Y-44201772D01*
X154851000Y-44366184D01*
X154851000Y-44533816D01*
X154818297Y-44698228D01*
X154754147Y-44853100D01*
X154661015Y-44992481D01*
X154542481Y-45111015D01*
X154403100Y-45204147D01*
X154248228Y-45268297D01*
X154083816Y-45301000D01*
X153916184Y-45301000D01*
X153751772Y-45268297D01*
X153596900Y-45204147D01*
X153457519Y-45111015D01*
X153338985Y-44992481D01*
X153245853Y-44853100D01*
X153181703Y-44698228D01*
X153149000Y-44533816D01*
X153149000Y-44366184D01*
X153181703Y-44201772D01*
X153245853Y-44046900D01*
X153338985Y-43907519D01*
X153457519Y-43788985D01*
X153596900Y-43695853D01*
X153751772Y-43631703D01*
X153916184Y-43599000D01*
X154083816Y-43599000D01*
X154248228Y-43631703D01*
G37*
G36*
X156788228Y-43631703D02*
G01*
X156943100Y-43695853D01*
X157082481Y-43788985D01*
X157201015Y-43907519D01*
X157294147Y-44046900D01*
X157358297Y-44201772D01*
X157391000Y-44366184D01*
X157391000Y-44533816D01*
X157358297Y-44698228D01*
X157294147Y-44853100D01*
X157201015Y-44992481D01*
X157082481Y-45111015D01*
X156943100Y-45204147D01*
X156788228Y-45268297D01*
X156623816Y-45301000D01*
X156456184Y-45301000D01*
X156291772Y-45268297D01*
X156136900Y-45204147D01*
X155997519Y-45111015D01*
X155878985Y-44992481D01*
X155785853Y-44853100D01*
X155721703Y-44698228D01*
X155689000Y-44533816D01*
X155689000Y-44366184D01*
X155721703Y-44201772D01*
X155785853Y-44046900D01*
X155878985Y-43907519D01*
X155997519Y-43788985D01*
X156136900Y-43695853D01*
X156291772Y-43631703D01*
X156456184Y-43599000D01*
X156623816Y-43599000D01*
X156788228Y-43631703D01*
G37*
G36*
X159328228Y-43631703D02*
G01*
X159483100Y-43695853D01*
X159622481Y-43788985D01*
X159741015Y-43907519D01*
X159834147Y-44046900D01*
X159898297Y-44201772D01*
X159931000Y-44366184D01*
X159931000Y-44533816D01*
X159898297Y-44698228D01*
X159834147Y-44853100D01*
X159741015Y-44992481D01*
X159622481Y-45111015D01*
X159483100Y-45204147D01*
X159328228Y-45268297D01*
X159163816Y-45301000D01*
X158996184Y-45301000D01*
X158831772Y-45268297D01*
X158676900Y-45204147D01*
X158537519Y-45111015D01*
X158418985Y-44992481D01*
X158325853Y-44853100D01*
X158261703Y-44698228D01*
X158229000Y-44533816D01*
X158229000Y-44366184D01*
X158261703Y-44201772D01*
X158325853Y-44046900D01*
X158418985Y-43907519D01*
X158537519Y-43788985D01*
X158676900Y-43695853D01*
X158831772Y-43631703D01*
X158996184Y-43599000D01*
X159163816Y-43599000D01*
X159328228Y-43631703D01*
G37*
G36*
X161868228Y-43631703D02*
G01*
X162023100Y-43695853D01*
X162162481Y-43788985D01*
X162281015Y-43907519D01*
X162374147Y-44046900D01*
X162438297Y-44201772D01*
X162471000Y-44366184D01*
X162471000Y-44533816D01*
X162438297Y-44698228D01*
X162374147Y-44853100D01*
X162281015Y-44992481D01*
X162162481Y-45111015D01*
X162023100Y-45204147D01*
X161868228Y-45268297D01*
X161703816Y-45301000D01*
X161536184Y-45301000D01*
X161371772Y-45268297D01*
X161216900Y-45204147D01*
X161077519Y-45111015D01*
X160958985Y-44992481D01*
X160865853Y-44853100D01*
X160801703Y-44698228D01*
X160769000Y-44533816D01*
X160769000Y-44366184D01*
X160801703Y-44201772D01*
X160865853Y-44046900D01*
X160958985Y-43907519D01*
X161077519Y-43788985D01*
X161216900Y-43695853D01*
X161371772Y-43631703D01*
X161536184Y-43599000D01*
X161703816Y-43599000D01*
X161868228Y-43631703D01*
G37*
G36*
X164408228Y-43631703D02*
G01*
X164563100Y-43695853D01*
X164702481Y-43788985D01*
X164821015Y-43907519D01*
X164914147Y-44046900D01*
X164978297Y-44201772D01*
X165011000Y-44366184D01*
X165011000Y-44533816D01*
X164978297Y-44698228D01*
X164914147Y-44853100D01*
X164821015Y-44992481D01*
X164702481Y-45111015D01*
X164563100Y-45204147D01*
X164408228Y-45268297D01*
X164243816Y-45301000D01*
X164076184Y-45301000D01*
X163911772Y-45268297D01*
X163756900Y-45204147D01*
X163617519Y-45111015D01*
X163498985Y-44992481D01*
X163405853Y-44853100D01*
X163341703Y-44698228D01*
X163309000Y-44533816D01*
X163309000Y-44366184D01*
X163341703Y-44201772D01*
X163405853Y-44046900D01*
X163498985Y-43907519D01*
X163617519Y-43788985D01*
X163756900Y-43695853D01*
X163911772Y-43631703D01*
X164076184Y-43599000D01*
X164243816Y-43599000D01*
X164408228Y-43631703D01*
G37*
G36*
X166948228Y-43631703D02*
G01*
X167103100Y-43695853D01*
X167242481Y-43788985D01*
X167361015Y-43907519D01*
X167454147Y-44046900D01*
X167518297Y-44201772D01*
X167551000Y-44366184D01*
X167551000Y-44533816D01*
X167518297Y-44698228D01*
X167454147Y-44853100D01*
X167361015Y-44992481D01*
X167242481Y-45111015D01*
X167103100Y-45204147D01*
X166948228Y-45268297D01*
X166783816Y-45301000D01*
X166616184Y-45301000D01*
X166451772Y-45268297D01*
X166296900Y-45204147D01*
X166157519Y-45111015D01*
X166038985Y-44992481D01*
X165945853Y-44853100D01*
X165881703Y-44698228D01*
X165849000Y-44533816D01*
X165849000Y-44366184D01*
X165881703Y-44201772D01*
X165945853Y-44046900D01*
X166038985Y-43907519D01*
X166157519Y-43788985D01*
X166296900Y-43695853D01*
X166451772Y-43631703D01*
X166616184Y-43599000D01*
X166783816Y-43599000D01*
X166948228Y-43631703D01*
G37*
G36*
X169488228Y-43631703D02*
G01*
X169643100Y-43695853D01*
X169782481Y-43788985D01*
X169901015Y-43907519D01*
X169994147Y-44046900D01*
X170058297Y-44201772D01*
X170091000Y-44366184D01*
X170091000Y-44533816D01*
X170058297Y-44698228D01*
X169994147Y-44853100D01*
X169901015Y-44992481D01*
X169782481Y-45111015D01*
X169643100Y-45204147D01*
X169488228Y-45268297D01*
X169323816Y-45301000D01*
X169156184Y-45301000D01*
X168991772Y-45268297D01*
X168836900Y-45204147D01*
X168697519Y-45111015D01*
X168578985Y-44992481D01*
X168485853Y-44853100D01*
X168421703Y-44698228D01*
X168389000Y-44533816D01*
X168389000Y-44366184D01*
X168421703Y-44201772D01*
X168485853Y-44046900D01*
X168578985Y-43907519D01*
X168697519Y-43788985D01*
X168836900Y-43695853D01*
X168991772Y-43631703D01*
X169156184Y-43599000D01*
X169323816Y-43599000D01*
X169488228Y-43631703D01*
G37*
M02*
