M48
METRIC,TZ
T1C0.400
T2C0.800
T3C1.016
%
G90
G05
T1
X133800Y-48280
X135730Y-65930
X139020Y-80670
X144270Y-48280
X146360Y-66120
X146360Y-69890
X149190Y-45830
X152400Y-45830
X153070Y-68070
X153476Y-74015
X155240Y-75130
X155600Y-48320
X155820Y-50790
X157730Y-63200
X158160Y-48460
X159240Y-54420
X160170Y-75140
X161210Y-47090
X162610Y-63200
X164310Y-50560
X164380Y-54490
X164990Y-75220
T2
X133680Y-44450
X133680Y-59690
X136220Y-44450
X136220Y-59690
X138760Y-44450
X138760Y-59690
X141300Y-44450
X141300Y-59690
X143840Y-44450
X143840Y-59690
X146380Y-44450
X146380Y-59690
X148920Y-44450
X148920Y-59690
X151460Y-44450
X151460Y-59690
X154000Y-44450
X154000Y-59690
X156540Y-44450
X156540Y-59690
X159080Y-44450
X159080Y-59690
X161620Y-44450
X161620Y-59690
X164160Y-44450
X164160Y-59690
X166700Y-44450
X166700Y-59690
X169240Y-44450
X169240Y-59690
T3
X133660Y-72100
X136200Y-72100
X138740Y-72100
X141280Y-72100
X143820Y-72100
X146360Y-72100
X148900Y-72100
X151440Y-72100
X133670Y-50780
X133670Y-53320
X136210Y-50780
X136210Y-53320
X138750Y-50780
X138750Y-53320
X141290Y-50780
X141290Y-53320
X143830Y-50780
X143830Y-53320
X146370Y-50780
X146370Y-53320
X148910Y-50780
X148910Y-53320
X151450Y-50780
X151450Y-53320
X153990Y-50780
X153990Y-53320
X169250Y-75830
X169250Y-78370
X169310Y-65700
X169310Y-68240
X133650Y-68220
X133650Y-75820
X151210Y-65720
X151250Y-78320
T0
M30
