G04 #@! TF.FileFunction,Legend,Bot*
%FSLAX46Y46*%
G04 Gerber Fmt 4.6, Leading zero omitted, Abs format (unit mm)*
G04 Created by KiCad (PCBNEW 4.0.2-stable) date 21.04.2016 21:16:34*
%MOMM*%
G01*
G04 APERTURE LIST*
%ADD10C,0.100000*%
%ADD11C,0.300000*%
%ADD12C,0.150000*%
G04 APERTURE END LIST*
D10*
D11*
X141001713Y-101477071D02*
X141715999Y-101477071D01*
X141787428Y-102191357D01*
X141715999Y-102119929D01*
X141573142Y-102048500D01*
X141215999Y-102048500D01*
X141073142Y-102119929D01*
X141001713Y-102191357D01*
X140930285Y-102334214D01*
X140930285Y-102691357D01*
X141001713Y-102834214D01*
X141073142Y-102905643D01*
X141215999Y-102977071D01*
X141573142Y-102977071D01*
X141715999Y-102905643D01*
X141787428Y-102834214D01*
X140501714Y-101477071D02*
X140001714Y-102977071D01*
X139501714Y-101477071D01*
X143057285Y-111764071D02*
X142128714Y-111764071D01*
X142628714Y-112335500D01*
X142414428Y-112335500D01*
X142271571Y-112406929D01*
X142200142Y-112478357D01*
X142128714Y-112621214D01*
X142128714Y-112978357D01*
X142200142Y-113121214D01*
X142271571Y-113192643D01*
X142414428Y-113264071D01*
X142843000Y-113264071D01*
X142985857Y-113192643D01*
X143057285Y-113121214D01*
X141485857Y-113121214D02*
X141414429Y-113192643D01*
X141485857Y-113264071D01*
X141557286Y-113192643D01*
X141485857Y-113121214D01*
X141485857Y-113264071D01*
X140914428Y-111764071D02*
X139985857Y-111764071D01*
X140485857Y-112335500D01*
X140271571Y-112335500D01*
X140128714Y-112406929D01*
X140057285Y-112478357D01*
X139985857Y-112621214D01*
X139985857Y-112978357D01*
X140057285Y-113121214D01*
X140128714Y-113192643D01*
X140271571Y-113264071D01*
X140700143Y-113264071D01*
X140843000Y-113192643D01*
X140914428Y-113121214D01*
X139557286Y-111764071D02*
X139057286Y-113264071D01*
X138557286Y-111764071D01*
D12*
X144500000Y-100812000D02*
X144500000Y-103912000D01*
X146050000Y-100812000D02*
X144500000Y-100812000D01*
X147320000Y-103632000D02*
X147320000Y-101092000D01*
X144500000Y-103912000D02*
X146050000Y-103912000D01*
X160020000Y-101092000D02*
X147320000Y-101092000D01*
X160020000Y-103632000D02*
X160020000Y-101092000D01*
X147320000Y-103632000D02*
X160020000Y-103632000D01*
X144780000Y-113792000D02*
X160020000Y-113792000D01*
X160020000Y-113792000D02*
X160020000Y-111252000D01*
X160020000Y-111252000D02*
X144780000Y-111252000D01*
X144780000Y-113792000D02*
X144780000Y-111252000D01*
X121894000Y-100812000D02*
X121894000Y-103912000D01*
X123444000Y-100812000D02*
X121894000Y-100812000D01*
X124714000Y-103632000D02*
X124714000Y-101092000D01*
X121894000Y-103912000D02*
X123444000Y-103912000D01*
X137414000Y-101092000D02*
X124714000Y-101092000D01*
X137414000Y-103632000D02*
X137414000Y-101092000D01*
X124714000Y-103632000D02*
X137414000Y-103632000D01*
X122174000Y-113792000D02*
X137414000Y-113792000D01*
X137414000Y-113792000D02*
X137414000Y-111252000D01*
X137414000Y-111252000D02*
X122174000Y-111252000D01*
X122174000Y-113792000D02*
X122174000Y-111252000D01*
X122174000Y-87122000D02*
X145034000Y-87122000D01*
X142494000Y-92202000D02*
X122174000Y-92202000D01*
X122174000Y-87122000D02*
X122174000Y-92202000D01*
X145034000Y-87122000D02*
X145034000Y-89662000D01*
X145314000Y-90932000D02*
X145314000Y-92482000D01*
X145034000Y-89662000D02*
X142494000Y-89662000D01*
X142494000Y-89662000D02*
X142494000Y-92202000D01*
X145314000Y-92482000D02*
X143764000Y-92482000D01*
X152162000Y-92515000D02*
X154162000Y-92515000D01*
X154162000Y-90365000D02*
X152162000Y-90365000D01*
X152162000Y-88959000D02*
X154162000Y-88959000D01*
X154162000Y-86809000D02*
X152162000Y-86809000D01*
X146923000Y-100274381D02*
X147399191Y-100274381D01*
X147399191Y-99274381D01*
X146732524Y-99274381D02*
X146399191Y-100274381D01*
X146065857Y-99274381D01*
X145256333Y-100274381D02*
X145732524Y-100274381D01*
X145732524Y-99274381D01*
X144399190Y-100274381D02*
X144970619Y-100274381D01*
X144684905Y-100274381D02*
X144684905Y-99274381D01*
X144780143Y-99417238D01*
X144875381Y-99512476D01*
X144970619Y-99560095D01*
X124253500Y-100274381D02*
X124729691Y-100274381D01*
X124729691Y-99274381D01*
X124063024Y-99274381D02*
X123729691Y-100274381D01*
X123396357Y-99274381D01*
X122586833Y-100274381D02*
X123063024Y-100274381D01*
X123063024Y-99274381D01*
X122301119Y-99369619D02*
X122253500Y-99322000D01*
X122158262Y-99274381D01*
X121920166Y-99274381D01*
X121824928Y-99322000D01*
X121777309Y-99369619D01*
X121729690Y-99464857D01*
X121729690Y-99560095D01*
X121777309Y-99702952D01*
X122348738Y-100274381D01*
X121729690Y-100274381D01*
X127872762Y-85304381D02*
X127682285Y-85304381D01*
X127587047Y-85352000D01*
X127491809Y-85447238D01*
X127444190Y-85637714D01*
X127444190Y-85971048D01*
X127491809Y-86161524D01*
X127587047Y-86256762D01*
X127682285Y-86304381D01*
X127872762Y-86304381D01*
X127968000Y-86256762D01*
X128063238Y-86161524D01*
X128110857Y-85971048D01*
X128110857Y-85637714D01*
X128063238Y-85447238D01*
X127968000Y-85352000D01*
X127872762Y-85304381D01*
X127158476Y-85304381D02*
X126825143Y-86304381D01*
X126491809Y-85304381D01*
X126253714Y-85304381D02*
X125587047Y-85304381D01*
X126015619Y-86304381D01*
X124777523Y-85304381D02*
X124968000Y-85304381D01*
X125063238Y-85352000D01*
X125110857Y-85399619D01*
X125206095Y-85542476D01*
X125253714Y-85732952D01*
X125253714Y-86113905D01*
X125206095Y-86209143D01*
X125158476Y-86256762D01*
X125063238Y-86304381D01*
X124872761Y-86304381D01*
X124777523Y-86256762D01*
X124729904Y-86209143D01*
X124682285Y-86113905D01*
X124682285Y-85875810D01*
X124729904Y-85780571D01*
X124777523Y-85732952D01*
X124872761Y-85685333D01*
X125063238Y-85685333D01*
X125158476Y-85732952D01*
X125206095Y-85780571D01*
X125253714Y-85875810D01*
X124348952Y-85304381D02*
X123682285Y-85304381D01*
X124110857Y-86304381D01*
X123110857Y-85304381D02*
X123015618Y-85304381D01*
X122920380Y-85352000D01*
X122872761Y-85399619D01*
X122825142Y-85494857D01*
X122777523Y-85685333D01*
X122777523Y-85923429D01*
X122825142Y-86113905D01*
X122872761Y-86209143D01*
X122920380Y-86256762D01*
X123015618Y-86304381D01*
X123110857Y-86304381D01*
X123206095Y-86256762D01*
X123253714Y-86209143D01*
X123301333Y-86113905D01*
X123348952Y-85923429D01*
X123348952Y-85685333D01*
X123301333Y-85494857D01*
X123253714Y-85399619D01*
X123206095Y-85352000D01*
X123110857Y-85304381D01*
X121825142Y-86304381D02*
X122396571Y-86304381D01*
X122110857Y-86304381D02*
X122110857Y-85304381D01*
X122206095Y-85447238D01*
X122301333Y-85542476D01*
X122396571Y-85590095D01*
X157900666Y-91892381D02*
X158234000Y-91416190D01*
X158472095Y-91892381D02*
X158472095Y-90892381D01*
X158091142Y-90892381D01*
X157995904Y-90940000D01*
X157948285Y-90987619D01*
X157900666Y-91082857D01*
X157900666Y-91225714D01*
X157948285Y-91320952D01*
X157995904Y-91368571D01*
X158091142Y-91416190D01*
X158472095Y-91416190D01*
X156948285Y-91892381D02*
X157519714Y-91892381D01*
X157234000Y-91892381D02*
X157234000Y-90892381D01*
X157329238Y-91035238D01*
X157424476Y-91130476D01*
X157519714Y-91178095D01*
X157900666Y-88336381D02*
X158234000Y-87860190D01*
X158472095Y-88336381D02*
X158472095Y-87336381D01*
X158091142Y-87336381D01*
X157995904Y-87384000D01*
X157948285Y-87431619D01*
X157900666Y-87526857D01*
X157900666Y-87669714D01*
X157948285Y-87764952D01*
X157995904Y-87812571D01*
X158091142Y-87860190D01*
X158472095Y-87860190D01*
X157519714Y-87431619D02*
X157472095Y-87384000D01*
X157376857Y-87336381D01*
X157138761Y-87336381D01*
X157043523Y-87384000D01*
X156995904Y-87431619D01*
X156948285Y-87526857D01*
X156948285Y-87622095D01*
X156995904Y-87764952D01*
X157567333Y-88336381D01*
X156948285Y-88336381D01*
M02*
