M48
METRIC,TZ
T1C0.400
T2C0.813
T3C1.016
%
G90
G05
T1
X121222Y-83122
X123317Y-85916
X146241Y-85979
X147511Y-98425
X149352Y-94679
X153162Y-86043
X154623Y-84836
T2
X123444Y-81534
X123444Y-96774
X125984Y-81534
X125984Y-96774
X128524Y-81534
X128524Y-96774
X131064Y-81534
X131064Y-96774
X133604Y-81534
X133604Y-96774
X136144Y-81534
X136144Y-96774
X138684Y-81534
X138684Y-96774
X141224Y-81534
X141224Y-96774
X143764Y-81534
X143764Y-96774
X146304Y-81534
X146304Y-96774
X148844Y-81534
X148844Y-96774
X151384Y-81534
X151384Y-96774
X153924Y-81534
X153924Y-96774
X156464Y-81534
X156464Y-96774
X159004Y-81534
X159004Y-96774
T3
X123444Y-88392
X123444Y-90932
X123444Y-102362
X123444Y-107442
X123444Y-112522
X125984Y-88392
X125984Y-90932
X125984Y-102362
X125984Y-107442
X125984Y-112522
X128524Y-88392
X128524Y-90932
X128524Y-102362
X128524Y-107442
X128524Y-112522
X131064Y-88392
X131064Y-90932
X131064Y-102362
X131064Y-107442
X131064Y-112522
X133604Y-88392
X133604Y-90932
X133604Y-102362
X133604Y-107442
X133604Y-112522
X136144Y-88392
X136144Y-90932
X136144Y-102362
X136144Y-107442
X136144Y-112522
X138684Y-88392
X138684Y-90932
X138684Y-107442
X141224Y-88392
X141224Y-90932
X141224Y-107442
X143764Y-88392
X143764Y-90932
X146050Y-102362
X146050Y-112522
X148590Y-102362
X148590Y-112522
X151130Y-102362
X151130Y-112522
X153670Y-102362
X153670Y-112522
X156210Y-102362
X156210Y-112522
X158750Y-102362
X158750Y-112522
T0
M30
