G04 #@! TF.FileFunction,Soldermask,Top*
%FSLAX46Y46*%
G04 Gerber Fmt 4.6, Leading zero omitted, Abs format (unit mm)*
G04 Created by KiCad (PCBNEW 4.0.2-stable) date 21.04.2016 21:16:34*
%MOMM*%
G01*
G04 APERTURE LIST*
%ADD10C,0.100000*%
%ADD11R,1.574800X2.286000*%
%ADD12O,1.574800X2.286000*%
%ADD13O,1.727200X2.032000*%
%ADD14R,1.727200X2.032000*%
%ADD15R,1.727200X1.727200*%
%ADD16O,1.727200X1.727200*%
G04 APERTURE END LIST*
D10*
D11*
X159004000Y-81534000D03*
D12*
X156464000Y-81534000D03*
X153924000Y-81534000D03*
X151384000Y-81534000D03*
X148844000Y-81534000D03*
X146304000Y-81534000D03*
X143764000Y-81534000D03*
X141224000Y-81534000D03*
X138684000Y-81534000D03*
X136144000Y-81534000D03*
X133604000Y-81534000D03*
X131064000Y-81534000D03*
X128524000Y-81534000D03*
X125984000Y-81534000D03*
X123444000Y-81534000D03*
X123444000Y-96774000D03*
X125984000Y-96774000D03*
X128524000Y-96774000D03*
X131064000Y-96774000D03*
X133604000Y-96774000D03*
X136144000Y-96774000D03*
X138684000Y-96774000D03*
X141224000Y-96774000D03*
X143764000Y-96774000D03*
X146304000Y-96774000D03*
X148844000Y-96774000D03*
X151384000Y-96774000D03*
X153924000Y-96774000D03*
X156464000Y-96774000D03*
X159004000Y-96774000D03*
D13*
X146050000Y-112522000D03*
X158750000Y-102362000D03*
X156210000Y-102362000D03*
X153670000Y-102362000D03*
X151130000Y-102362000D03*
X148590000Y-102362000D03*
D14*
X146050000Y-102362000D03*
D13*
X148590000Y-112522000D03*
X151130000Y-112522000D03*
X153670000Y-112522000D03*
X156210000Y-112522000D03*
X158750000Y-112522000D03*
X123444000Y-112522000D03*
X136144000Y-102362000D03*
X133604000Y-102362000D03*
X131064000Y-102362000D03*
X128524000Y-102362000D03*
X125984000Y-102362000D03*
D14*
X123444000Y-102362000D03*
D13*
X125984000Y-112522000D03*
X128524000Y-112522000D03*
X131064000Y-112522000D03*
X133604000Y-112522000D03*
X136144000Y-112522000D03*
D15*
X143764000Y-90932000D03*
D16*
X143764000Y-88392000D03*
X141224000Y-90932000D03*
X141224000Y-88392000D03*
X138684000Y-90932000D03*
X138684000Y-88392000D03*
X136144000Y-90932000D03*
X136144000Y-88392000D03*
X133604000Y-90932000D03*
X133604000Y-88392000D03*
X131064000Y-90932000D03*
X131064000Y-88392000D03*
X128524000Y-90932000D03*
X128524000Y-88392000D03*
X125984000Y-90932000D03*
X125984000Y-88392000D03*
X123444000Y-90932000D03*
X123444000Y-88392000D03*
D14*
X123444000Y-107442000D03*
D13*
X125984000Y-107442000D03*
X128524000Y-107442000D03*
X131064000Y-107442000D03*
X133604000Y-107442000D03*
X136144000Y-107442000D03*
X138684000Y-107442000D03*
X141224000Y-107442000D03*
M02*
