G04 #@! TF.FileFunction,Copper,L2,Bot,Signal*
%FSLAX46Y46*%
G04 Gerber Fmt 4.6, Leading zero omitted, Abs format (unit mm)*
G04 Created by KiCad (PCBNEW 4.0.2-stable) date 21.04.2016 21:16:34*
%MOMM*%
G01*
G04 APERTURE LIST*
%ADD10C,0.100000*%
%ADD11R,1.574800X2.286000*%
%ADD12O,1.574800X2.286000*%
%ADD13O,1.727200X2.032000*%
%ADD14R,1.727200X2.032000*%
%ADD15R,1.727200X1.727200*%
%ADD16O,1.727200X1.727200*%
%ADD17R,2.000000X1.700000*%
%ADD18C,0.600000*%
%ADD19C,0.250000*%
%ADD20C,0.254000*%
G04 APERTURE END LIST*
D10*
D11*
X159004000Y-81534000D03*
D12*
X156464000Y-81534000D03*
X153924000Y-81534000D03*
X151384000Y-81534000D03*
X148844000Y-81534000D03*
X146304000Y-81534000D03*
X143764000Y-81534000D03*
X141224000Y-81534000D03*
X138684000Y-81534000D03*
X136144000Y-81534000D03*
X133604000Y-81534000D03*
X131064000Y-81534000D03*
X128524000Y-81534000D03*
X125984000Y-81534000D03*
X123444000Y-81534000D03*
X123444000Y-96774000D03*
X125984000Y-96774000D03*
X128524000Y-96774000D03*
X131064000Y-96774000D03*
X133604000Y-96774000D03*
X136144000Y-96774000D03*
X138684000Y-96774000D03*
X141224000Y-96774000D03*
X143764000Y-96774000D03*
X146304000Y-96774000D03*
X148844000Y-96774000D03*
X151384000Y-96774000D03*
X153924000Y-96774000D03*
X156464000Y-96774000D03*
X159004000Y-96774000D03*
D13*
X146050000Y-112522000D03*
X158750000Y-102362000D03*
X156210000Y-102362000D03*
X153670000Y-102362000D03*
X151130000Y-102362000D03*
X148590000Y-102362000D03*
D14*
X146050000Y-102362000D03*
D13*
X148590000Y-112522000D03*
X151130000Y-112522000D03*
X153670000Y-112522000D03*
X156210000Y-112522000D03*
X158750000Y-112522000D03*
X123444000Y-112522000D03*
X136144000Y-102362000D03*
X133604000Y-102362000D03*
X131064000Y-102362000D03*
X128524000Y-102362000D03*
X125984000Y-102362000D03*
D14*
X123444000Y-102362000D03*
D13*
X125984000Y-112522000D03*
X128524000Y-112522000D03*
X131064000Y-112522000D03*
X133604000Y-112522000D03*
X136144000Y-112522000D03*
D15*
X143764000Y-90932000D03*
D16*
X143764000Y-88392000D03*
X141224000Y-90932000D03*
X141224000Y-88392000D03*
X138684000Y-90932000D03*
X138684000Y-88392000D03*
X136144000Y-90932000D03*
X136144000Y-88392000D03*
X133604000Y-90932000D03*
X133604000Y-88392000D03*
X131064000Y-90932000D03*
X131064000Y-88392000D03*
X128524000Y-90932000D03*
X128524000Y-88392000D03*
X125984000Y-90932000D03*
X125984000Y-88392000D03*
X123444000Y-90932000D03*
X123444000Y-88392000D03*
D17*
X155162000Y-91440000D03*
X151162000Y-91440000D03*
X155162000Y-87884000D03*
X151162000Y-87884000D03*
D14*
X123444000Y-107442000D03*
D13*
X125984000Y-107442000D03*
X128524000Y-107442000D03*
X131064000Y-107442000D03*
X133604000Y-107442000D03*
X136144000Y-107442000D03*
X138684000Y-107442000D03*
X141224000Y-107442000D03*
D18*
X121221500Y-83121500D03*
X123317000Y-85915500D03*
X153162000Y-86042500D03*
X146240500Y-85979000D03*
X147510500Y-98425000D03*
X149352000Y-94678500D03*
X154622500Y-84836000D03*
D19*
X146050000Y-102362000D02*
X146050000Y-103378000D01*
X146050000Y-103378000D02*
X147320000Y-104648000D01*
X157797500Y-83883500D02*
X159004000Y-82677000D01*
X157797500Y-92773500D02*
X157797500Y-83883500D01*
X160528000Y-95504000D02*
X157797500Y-92773500D01*
X160528000Y-103314500D02*
X160528000Y-95504000D01*
X159194500Y-104648000D02*
X160528000Y-103314500D01*
X147320000Y-104648000D02*
X159194500Y-104648000D01*
X159004000Y-82677000D02*
X159004000Y-81534000D01*
X146050000Y-102362000D02*
X146050000Y-103124000D01*
X123444000Y-90932000D02*
X122174000Y-90932000D01*
X123190000Y-85915500D02*
X123317000Y-85915500D01*
X121920000Y-87185500D02*
X123190000Y-85915500D01*
X121920000Y-90678000D02*
X121920000Y-87185500D01*
X122174000Y-90932000D02*
X121920000Y-90678000D01*
X151384000Y-82550000D02*
X151384000Y-81534000D01*
X151162000Y-87884000D02*
X148082000Y-87884000D01*
X142494000Y-89662000D02*
X141224000Y-88392000D01*
X146304000Y-89662000D02*
X142494000Y-89662000D01*
X148082000Y-87884000D02*
X146304000Y-89662000D01*
X151162000Y-91440000D02*
X147828000Y-91440000D01*
X142240000Y-92710000D02*
X141224000Y-91694000D01*
X146558000Y-92710000D02*
X142240000Y-92710000D01*
X147828000Y-91440000D02*
X146558000Y-92710000D01*
X141224000Y-91694000D02*
X141224000Y-90932000D01*
X131064000Y-102362000D02*
X131064000Y-103124000D01*
X131064000Y-103124000D02*
X131953000Y-104013000D01*
X152146000Y-100838000D02*
X153670000Y-102362000D01*
X142240000Y-100838000D02*
X152146000Y-100838000D01*
X139065000Y-104013000D02*
X142240000Y-100838000D01*
X131953000Y-104013000D02*
X139065000Y-104013000D01*
X131064000Y-81534000D02*
X131064000Y-82931000D01*
X131064000Y-101219000D02*
X131064000Y-102362000D01*
X129603500Y-99758500D02*
X131064000Y-101219000D01*
X122999500Y-99758500D02*
X129603500Y-99758500D01*
X120713500Y-97472500D02*
X122999500Y-99758500D01*
X120713500Y-86487000D02*
X120713500Y-97472500D01*
X122999500Y-84201000D02*
X120713500Y-86487000D01*
X129794000Y-84201000D02*
X122999500Y-84201000D01*
X131064000Y-82931000D02*
X129794000Y-84201000D01*
X131064000Y-101346000D02*
X131064000Y-102362000D01*
X146304000Y-86042500D02*
X153162000Y-86042500D01*
X146240500Y-85979000D02*
X146304000Y-86042500D01*
X140017500Y-92265500D02*
X138684000Y-90932000D01*
X140970000Y-92265500D02*
X140017500Y-92265500D01*
X141986000Y-93281500D02*
X140970000Y-92265500D01*
X149415500Y-93281500D02*
X141986000Y-93281500D01*
X150114000Y-93980000D02*
X149415500Y-93281500D01*
X150114000Y-97790000D02*
X150114000Y-93980000D01*
X149479000Y-98425000D02*
X150114000Y-97790000D01*
X147510500Y-98425000D02*
X149479000Y-98425000D01*
X133604000Y-96774000D02*
X133604000Y-96266000D01*
X136144000Y-96774000D02*
X136144000Y-97472500D01*
X136144000Y-97472500D02*
X138938000Y-100266500D01*
X158750000Y-101155500D02*
X158750000Y-102362000D01*
X157861000Y-100266500D02*
X158750000Y-101155500D01*
X138938000Y-100266500D02*
X157861000Y-100266500D01*
X136144000Y-97790000D02*
X136144000Y-96774000D01*
X138684000Y-96774000D02*
X138684000Y-95504000D01*
X129794000Y-89662000D02*
X131064000Y-88392000D01*
X129794000Y-91694000D02*
X129794000Y-89662000D01*
X132334000Y-94234000D02*
X129794000Y-91694000D01*
X137414000Y-94234000D02*
X132334000Y-94234000D01*
X138684000Y-95504000D02*
X137414000Y-94234000D01*
X131064000Y-88392000D02*
X131064000Y-88646000D01*
X141224000Y-96774000D02*
X141224000Y-95631000D01*
X131064000Y-92202000D02*
X131064000Y-90932000D01*
X132588000Y-93726000D02*
X131064000Y-92202000D01*
X137668000Y-93726000D02*
X132588000Y-93726000D01*
X139001500Y-95059500D02*
X137668000Y-93726000D01*
X140652500Y-95059500D02*
X139001500Y-95059500D01*
X141224000Y-95631000D02*
X140652500Y-95059500D01*
X131064000Y-91567000D02*
X131064000Y-90932000D01*
X141224000Y-96520000D02*
X141224000Y-96774000D01*
X143764000Y-96774000D02*
X143764000Y-95631000D01*
X132334000Y-89662000D02*
X133604000Y-88392000D01*
X132334000Y-92075000D02*
X132334000Y-89662000D01*
X133477000Y-93218000D02*
X132334000Y-92075000D01*
X137858500Y-93218000D02*
X133477000Y-93218000D01*
X139249998Y-94609498D02*
X137858500Y-93218000D01*
X140900998Y-94609498D02*
X139249998Y-94609498D01*
X141414500Y-95123000D02*
X140900998Y-94609498D01*
X143256000Y-95123000D02*
X141414500Y-95123000D01*
X143764000Y-95631000D02*
X143256000Y-95123000D01*
X141224000Y-94107000D02*
X139383898Y-94107000D01*
X146304000Y-95440500D02*
X145536498Y-94672998D01*
X145536498Y-94672998D02*
X141789998Y-94672998D01*
X141789998Y-94672998D02*
X141224000Y-94107000D01*
X134487498Y-92767998D02*
X133604000Y-91884500D01*
X133604000Y-90932000D02*
X133604000Y-91884500D01*
X146304000Y-95440500D02*
X146304000Y-96774000D01*
X138044896Y-92767998D02*
X134487498Y-92767998D01*
X139383898Y-94107000D02*
X138044896Y-92767998D01*
X146304000Y-96774000D02*
X146304000Y-96329500D01*
X133604000Y-90932000D02*
X133604000Y-91440000D01*
X146304000Y-95758000D02*
X146304000Y-96774000D01*
X136144000Y-90932000D02*
X136144000Y-91186000D01*
X136144000Y-91186000D02*
X137160000Y-92202000D01*
X137160000Y-92202000D02*
X138303000Y-92202000D01*
X138303000Y-92202000D02*
X139636500Y-93535500D01*
X139636500Y-93535500D02*
X141478000Y-93535500D01*
X141478000Y-93535500D02*
X142049500Y-94107000D01*
X142049500Y-94107000D02*
X148780500Y-94107000D01*
X148780500Y-94107000D02*
X149352000Y-94678500D01*
X136144000Y-88392000D02*
X136144000Y-86423500D01*
X137731500Y-84836000D02*
X154622500Y-84836000D01*
X136144000Y-86423500D02*
X137731500Y-84836000D01*
X128524000Y-108712000D02*
X128524000Y-107442000D01*
X127254000Y-109982000D02*
X128524000Y-108712000D01*
X124460000Y-109982000D02*
X127254000Y-109982000D01*
X123444000Y-110998000D02*
X124460000Y-109982000D01*
X123444000Y-112522000D02*
X123444000Y-110998000D01*
X138684000Y-88392000D02*
X138303000Y-88392000D01*
D20*
G36*
X161875000Y-115393000D02*
X119811000Y-115393000D01*
X119811000Y-106426000D01*
X121932960Y-106426000D01*
X121932960Y-108458000D01*
X121977238Y-108693317D01*
X122116310Y-108909441D01*
X122328510Y-109054431D01*
X122580400Y-109105440D01*
X124307600Y-109105440D01*
X124542917Y-109061162D01*
X124759041Y-108922090D01*
X124904031Y-108709890D01*
X124912400Y-108668561D01*
X124924330Y-108686415D01*
X125410511Y-109011271D01*
X125984000Y-109125345D01*
X126557489Y-109011271D01*
X127043670Y-108686415D01*
X127254000Y-108371634D01*
X127464330Y-108686415D01*
X127470596Y-108690602D01*
X126939198Y-109222000D01*
X124460000Y-109222000D01*
X124169161Y-109279852D01*
X123922599Y-109444599D01*
X122906599Y-110460599D01*
X122741852Y-110707161D01*
X122684000Y-110998000D01*
X122684000Y-111077352D01*
X122384330Y-111277585D01*
X122059474Y-111763766D01*
X121945400Y-112337255D01*
X121945400Y-112706745D01*
X122059474Y-113280234D01*
X122384330Y-113766415D01*
X122870511Y-114091271D01*
X123444000Y-114205345D01*
X124017489Y-114091271D01*
X124503670Y-113766415D01*
X124714000Y-113451634D01*
X124924330Y-113766415D01*
X125410511Y-114091271D01*
X125984000Y-114205345D01*
X126557489Y-114091271D01*
X127043670Y-113766415D01*
X127254000Y-113451634D01*
X127464330Y-113766415D01*
X127950511Y-114091271D01*
X128524000Y-114205345D01*
X129097489Y-114091271D01*
X129583670Y-113766415D01*
X129790461Y-113456931D01*
X130161964Y-113872732D01*
X130689209Y-114126709D01*
X130704974Y-114129358D01*
X130937000Y-114008217D01*
X130937000Y-112649000D01*
X130917000Y-112649000D01*
X130917000Y-112395000D01*
X130937000Y-112395000D01*
X130937000Y-111035783D01*
X131191000Y-111035783D01*
X131191000Y-112395000D01*
X131211000Y-112395000D01*
X131211000Y-112649000D01*
X131191000Y-112649000D01*
X131191000Y-114008217D01*
X131423026Y-114129358D01*
X131438791Y-114126709D01*
X131966036Y-113872732D01*
X132337539Y-113456931D01*
X132544330Y-113766415D01*
X133030511Y-114091271D01*
X133604000Y-114205345D01*
X134177489Y-114091271D01*
X134663670Y-113766415D01*
X134874000Y-113451634D01*
X135084330Y-113766415D01*
X135570511Y-114091271D01*
X136144000Y-114205345D01*
X136717489Y-114091271D01*
X137203670Y-113766415D01*
X137528526Y-113280234D01*
X137642600Y-112706745D01*
X137642600Y-112337255D01*
X144551400Y-112337255D01*
X144551400Y-112706745D01*
X144665474Y-113280234D01*
X144990330Y-113766415D01*
X145476511Y-114091271D01*
X146050000Y-114205345D01*
X146623489Y-114091271D01*
X147109670Y-113766415D01*
X147320000Y-113451634D01*
X147530330Y-113766415D01*
X148016511Y-114091271D01*
X148590000Y-114205345D01*
X149163489Y-114091271D01*
X149649670Y-113766415D01*
X149860000Y-113451634D01*
X150070330Y-113766415D01*
X150556511Y-114091271D01*
X151130000Y-114205345D01*
X151703489Y-114091271D01*
X152189670Y-113766415D01*
X152396461Y-113456931D01*
X152767964Y-113872732D01*
X153295209Y-114126709D01*
X153310974Y-114129358D01*
X153543000Y-114008217D01*
X153543000Y-112649000D01*
X153523000Y-112649000D01*
X153523000Y-112395000D01*
X153543000Y-112395000D01*
X153543000Y-111035783D01*
X153797000Y-111035783D01*
X153797000Y-112395000D01*
X153817000Y-112395000D01*
X153817000Y-112649000D01*
X153797000Y-112649000D01*
X153797000Y-114008217D01*
X154029026Y-114129358D01*
X154044791Y-114126709D01*
X154572036Y-113872732D01*
X154943539Y-113456931D01*
X155150330Y-113766415D01*
X155636511Y-114091271D01*
X156210000Y-114205345D01*
X156783489Y-114091271D01*
X157269670Y-113766415D01*
X157480000Y-113451634D01*
X157690330Y-113766415D01*
X158176511Y-114091271D01*
X158750000Y-114205345D01*
X159323489Y-114091271D01*
X159809670Y-113766415D01*
X160134526Y-113280234D01*
X160248600Y-112706745D01*
X160248600Y-112337255D01*
X160134526Y-111763766D01*
X159809670Y-111277585D01*
X159323489Y-110952729D01*
X158750000Y-110838655D01*
X158176511Y-110952729D01*
X157690330Y-111277585D01*
X157480000Y-111592366D01*
X157269670Y-111277585D01*
X156783489Y-110952729D01*
X156210000Y-110838655D01*
X155636511Y-110952729D01*
X155150330Y-111277585D01*
X154943539Y-111587069D01*
X154572036Y-111171268D01*
X154044791Y-110917291D01*
X154029026Y-110914642D01*
X153797000Y-111035783D01*
X153543000Y-111035783D01*
X153310974Y-110914642D01*
X153295209Y-110917291D01*
X152767964Y-111171268D01*
X152396461Y-111587069D01*
X152189670Y-111277585D01*
X151703489Y-110952729D01*
X151130000Y-110838655D01*
X150556511Y-110952729D01*
X150070330Y-111277585D01*
X149860000Y-111592366D01*
X149649670Y-111277585D01*
X149163489Y-110952729D01*
X148590000Y-110838655D01*
X148016511Y-110952729D01*
X147530330Y-111277585D01*
X147320000Y-111592366D01*
X147109670Y-111277585D01*
X146623489Y-110952729D01*
X146050000Y-110838655D01*
X145476511Y-110952729D01*
X144990330Y-111277585D01*
X144665474Y-111763766D01*
X144551400Y-112337255D01*
X137642600Y-112337255D01*
X137528526Y-111763766D01*
X137203670Y-111277585D01*
X136717489Y-110952729D01*
X136144000Y-110838655D01*
X135570511Y-110952729D01*
X135084330Y-111277585D01*
X134874000Y-111592366D01*
X134663670Y-111277585D01*
X134177489Y-110952729D01*
X133604000Y-110838655D01*
X133030511Y-110952729D01*
X132544330Y-111277585D01*
X132337539Y-111587069D01*
X131966036Y-111171268D01*
X131438791Y-110917291D01*
X131423026Y-110914642D01*
X131191000Y-111035783D01*
X130937000Y-111035783D01*
X130704974Y-110914642D01*
X130689209Y-110917291D01*
X130161964Y-111171268D01*
X129790461Y-111587069D01*
X129583670Y-111277585D01*
X129097489Y-110952729D01*
X128524000Y-110838655D01*
X127950511Y-110952729D01*
X127464330Y-111277585D01*
X127254000Y-111592366D01*
X127043670Y-111277585D01*
X126557489Y-110952729D01*
X125984000Y-110838655D01*
X125410511Y-110952729D01*
X124924330Y-111277585D01*
X124714000Y-111592366D01*
X124503670Y-111277585D01*
X124345142Y-111171660D01*
X124774802Y-110742000D01*
X127254000Y-110742000D01*
X127544839Y-110684148D01*
X127791401Y-110519401D01*
X129061401Y-109249401D01*
X129226148Y-109002840D01*
X129243935Y-108913419D01*
X129583670Y-108686415D01*
X129794000Y-108371634D01*
X130004330Y-108686415D01*
X130490511Y-109011271D01*
X131064000Y-109125345D01*
X131637489Y-109011271D01*
X132123670Y-108686415D01*
X132334000Y-108371634D01*
X132544330Y-108686415D01*
X133030511Y-109011271D01*
X133604000Y-109125345D01*
X134177489Y-109011271D01*
X134663670Y-108686415D01*
X134870461Y-108376931D01*
X135241964Y-108792732D01*
X135769209Y-109046709D01*
X135784974Y-109049358D01*
X136017000Y-108928217D01*
X136017000Y-107569000D01*
X136271000Y-107569000D01*
X136271000Y-108928217D01*
X136503026Y-109049358D01*
X136518791Y-109046709D01*
X137046036Y-108792732D01*
X137414000Y-108380892D01*
X137781964Y-108792732D01*
X138309209Y-109046709D01*
X138324974Y-109049358D01*
X138557000Y-108928217D01*
X138557000Y-107569000D01*
X136271000Y-107569000D01*
X136017000Y-107569000D01*
X135997000Y-107569000D01*
X135997000Y-107315000D01*
X136017000Y-107315000D01*
X136017000Y-105955783D01*
X136271000Y-105955783D01*
X136271000Y-107315000D01*
X138557000Y-107315000D01*
X138557000Y-105955783D01*
X138811000Y-105955783D01*
X138811000Y-107315000D01*
X138831000Y-107315000D01*
X138831000Y-107569000D01*
X138811000Y-107569000D01*
X138811000Y-108928217D01*
X139043026Y-109049358D01*
X139058791Y-109046709D01*
X139586036Y-108792732D01*
X139957539Y-108376931D01*
X140164330Y-108686415D01*
X140650511Y-109011271D01*
X141224000Y-109125345D01*
X141797489Y-109011271D01*
X142283670Y-108686415D01*
X142608526Y-108200234D01*
X142722600Y-107626745D01*
X142722600Y-107257255D01*
X142608526Y-106683766D01*
X142283670Y-106197585D01*
X141797489Y-105872729D01*
X141224000Y-105758655D01*
X140650511Y-105872729D01*
X140164330Y-106197585D01*
X139957539Y-106507069D01*
X139586036Y-106091268D01*
X139058791Y-105837291D01*
X139043026Y-105834642D01*
X138811000Y-105955783D01*
X138557000Y-105955783D01*
X138324974Y-105834642D01*
X138309209Y-105837291D01*
X137781964Y-106091268D01*
X137414000Y-106503108D01*
X137046036Y-106091268D01*
X136518791Y-105837291D01*
X136503026Y-105834642D01*
X136271000Y-105955783D01*
X136017000Y-105955783D01*
X135784974Y-105834642D01*
X135769209Y-105837291D01*
X135241964Y-106091268D01*
X134870461Y-106507069D01*
X134663670Y-106197585D01*
X134177489Y-105872729D01*
X133604000Y-105758655D01*
X133030511Y-105872729D01*
X132544330Y-106197585D01*
X132334000Y-106512366D01*
X132123670Y-106197585D01*
X131637489Y-105872729D01*
X131064000Y-105758655D01*
X130490511Y-105872729D01*
X130004330Y-106197585D01*
X129794000Y-106512366D01*
X129583670Y-106197585D01*
X129097489Y-105872729D01*
X128524000Y-105758655D01*
X127950511Y-105872729D01*
X127464330Y-106197585D01*
X127254000Y-106512366D01*
X127043670Y-106197585D01*
X126557489Y-105872729D01*
X125984000Y-105758655D01*
X125410511Y-105872729D01*
X124924330Y-106197585D01*
X124914757Y-106211913D01*
X124910762Y-106190683D01*
X124771690Y-105974559D01*
X124559490Y-105829569D01*
X124307600Y-105778560D01*
X122580400Y-105778560D01*
X122345083Y-105822838D01*
X122128959Y-105961910D01*
X121983969Y-106174110D01*
X121932960Y-106426000D01*
X119811000Y-106426000D01*
X119811000Y-86487000D01*
X119953500Y-86487000D01*
X119953500Y-97472500D01*
X120011352Y-97763339D01*
X120176099Y-98009901D01*
X122462099Y-100295901D01*
X122708660Y-100460648D01*
X122999500Y-100518500D01*
X129288698Y-100518500D01*
X129957648Y-101187450D01*
X129794000Y-101432366D01*
X129583670Y-101117585D01*
X129097489Y-100792729D01*
X128524000Y-100678655D01*
X127950511Y-100792729D01*
X127464330Y-101117585D01*
X127254000Y-101432366D01*
X127043670Y-101117585D01*
X126557489Y-100792729D01*
X125984000Y-100678655D01*
X125410511Y-100792729D01*
X124924330Y-101117585D01*
X124914757Y-101131913D01*
X124910762Y-101110683D01*
X124771690Y-100894559D01*
X124559490Y-100749569D01*
X124307600Y-100698560D01*
X122580400Y-100698560D01*
X122345083Y-100742838D01*
X122128959Y-100881910D01*
X121983969Y-101094110D01*
X121932960Y-101346000D01*
X121932960Y-103378000D01*
X121977238Y-103613317D01*
X122116310Y-103829441D01*
X122328510Y-103974431D01*
X122580400Y-104025440D01*
X124307600Y-104025440D01*
X124542917Y-103981162D01*
X124759041Y-103842090D01*
X124904031Y-103629890D01*
X124912400Y-103588561D01*
X124924330Y-103606415D01*
X125410511Y-103931271D01*
X125984000Y-104045345D01*
X126557489Y-103931271D01*
X127043670Y-103606415D01*
X127254000Y-103291634D01*
X127464330Y-103606415D01*
X127950511Y-103931271D01*
X128524000Y-104045345D01*
X129097489Y-103931271D01*
X129583670Y-103606415D01*
X129794000Y-103291634D01*
X130004330Y-103606415D01*
X130490511Y-103931271D01*
X130872439Y-104007241D01*
X131415599Y-104550401D01*
X131662161Y-104715148D01*
X131953000Y-104773000D01*
X139065000Y-104773000D01*
X139355839Y-104715148D01*
X139602401Y-104550401D01*
X142554802Y-101598000D01*
X144538960Y-101598000D01*
X144538960Y-103378000D01*
X144583238Y-103613317D01*
X144722310Y-103829441D01*
X144934510Y-103974431D01*
X145186400Y-104025440D01*
X145622638Y-104025440D01*
X146782599Y-105185401D01*
X147029160Y-105350148D01*
X147320000Y-105408000D01*
X159194500Y-105408000D01*
X159485339Y-105350148D01*
X159731901Y-105185401D01*
X161065401Y-103851901D01*
X161230148Y-103605339D01*
X161288000Y-103314500D01*
X161288000Y-95504000D01*
X161230148Y-95213161D01*
X161065401Y-94966599D01*
X158557500Y-92458698D01*
X158557500Y-84198302D01*
X159431362Y-83324440D01*
X159791400Y-83324440D01*
X160026717Y-83280162D01*
X160242841Y-83141090D01*
X160387831Y-82928890D01*
X160438840Y-82677000D01*
X160438840Y-80391000D01*
X160394562Y-80155683D01*
X160255490Y-79939559D01*
X160043290Y-79794569D01*
X159791400Y-79743560D01*
X158216600Y-79743560D01*
X157981283Y-79787838D01*
X157765159Y-79926910D01*
X157620169Y-80139110D01*
X157581029Y-80332390D01*
X157379986Y-80082809D01*
X156890996Y-79815673D01*
X156811060Y-79798990D01*
X156591000Y-79921148D01*
X156591000Y-81407000D01*
X156611000Y-81407000D01*
X156611000Y-81661000D01*
X156591000Y-81661000D01*
X156591000Y-83146852D01*
X156811060Y-83269010D01*
X156890996Y-83252327D01*
X157379986Y-82985191D01*
X157580347Y-82736456D01*
X157613438Y-82912317D01*
X157644934Y-82961264D01*
X157260099Y-83346099D01*
X157095352Y-83592661D01*
X157037500Y-83883500D01*
X157037500Y-92773500D01*
X157095352Y-93064339D01*
X157260099Y-93310901D01*
X158925900Y-94976702D01*
X158459671Y-95069441D01*
X157998211Y-95377778D01*
X157734000Y-95773199D01*
X157469789Y-95377778D01*
X157008329Y-95069441D01*
X156464000Y-94961167D01*
X155919671Y-95069441D01*
X155458211Y-95377778D01*
X155194000Y-95773199D01*
X154929789Y-95377778D01*
X154468329Y-95069441D01*
X153924000Y-94961167D01*
X153379671Y-95069441D01*
X152918211Y-95377778D01*
X152654000Y-95773199D01*
X152389789Y-95377778D01*
X151928329Y-95069441D01*
X151384000Y-94961167D01*
X150874000Y-95062613D01*
X150874000Y-93980000D01*
X150816148Y-93689161D01*
X150816148Y-93689160D01*
X150651401Y-93442599D01*
X150142241Y-92933439D01*
X150162000Y-92937440D01*
X152162000Y-92937440D01*
X152397317Y-92893162D01*
X152613441Y-92754090D01*
X152758431Y-92541890D01*
X152809440Y-92290000D01*
X152809440Y-91725750D01*
X153527000Y-91725750D01*
X153527000Y-92416310D01*
X153623673Y-92649699D01*
X153802302Y-92828327D01*
X154035691Y-92925000D01*
X154876250Y-92925000D01*
X155035000Y-92766250D01*
X155035000Y-91567000D01*
X155289000Y-91567000D01*
X155289000Y-92766250D01*
X155447750Y-92925000D01*
X156288309Y-92925000D01*
X156521698Y-92828327D01*
X156700327Y-92649699D01*
X156797000Y-92416310D01*
X156797000Y-91725750D01*
X156638250Y-91567000D01*
X155289000Y-91567000D01*
X155035000Y-91567000D01*
X153685750Y-91567000D01*
X153527000Y-91725750D01*
X152809440Y-91725750D01*
X152809440Y-90590000D01*
X152785674Y-90463690D01*
X153527000Y-90463690D01*
X153527000Y-91154250D01*
X153685750Y-91313000D01*
X155035000Y-91313000D01*
X155035000Y-90113750D01*
X155289000Y-90113750D01*
X155289000Y-91313000D01*
X156638250Y-91313000D01*
X156797000Y-91154250D01*
X156797000Y-90463690D01*
X156700327Y-90230301D01*
X156521698Y-90051673D01*
X156288309Y-89955000D01*
X155447750Y-89955000D01*
X155289000Y-90113750D01*
X155035000Y-90113750D01*
X154876250Y-89955000D01*
X154035691Y-89955000D01*
X153802302Y-90051673D01*
X153623673Y-90230301D01*
X153527000Y-90463690D01*
X152785674Y-90463690D01*
X152765162Y-90354683D01*
X152626090Y-90138559D01*
X152413890Y-89993569D01*
X152162000Y-89942560D01*
X150162000Y-89942560D01*
X149926683Y-89986838D01*
X149710559Y-90125910D01*
X149565569Y-90338110D01*
X149514560Y-90590000D01*
X149514560Y-90680000D01*
X147828000Y-90680000D01*
X147537160Y-90737852D01*
X147290599Y-90902599D01*
X146243198Y-91950000D01*
X145250964Y-91950000D01*
X145262600Y-91921909D01*
X145262600Y-91217750D01*
X145103850Y-91059000D01*
X143891000Y-91059000D01*
X143891000Y-91079000D01*
X143637000Y-91079000D01*
X143637000Y-91059000D01*
X143617000Y-91059000D01*
X143617000Y-90805000D01*
X143637000Y-90805000D01*
X143637000Y-90785000D01*
X143891000Y-90785000D01*
X143891000Y-90805000D01*
X145103850Y-90805000D01*
X145262600Y-90646250D01*
X145262600Y-90422000D01*
X146304000Y-90422000D01*
X146594839Y-90364148D01*
X146841401Y-90199401D01*
X148396802Y-88644000D01*
X149514560Y-88644000D01*
X149514560Y-88734000D01*
X149558838Y-88969317D01*
X149697910Y-89185441D01*
X149910110Y-89330431D01*
X150162000Y-89381440D01*
X152162000Y-89381440D01*
X152397317Y-89337162D01*
X152613441Y-89198090D01*
X152758431Y-88985890D01*
X152809440Y-88734000D01*
X152809440Y-88169750D01*
X153527000Y-88169750D01*
X153527000Y-88860310D01*
X153623673Y-89093699D01*
X153802302Y-89272327D01*
X154035691Y-89369000D01*
X154876250Y-89369000D01*
X155035000Y-89210250D01*
X155035000Y-88011000D01*
X155289000Y-88011000D01*
X155289000Y-89210250D01*
X155447750Y-89369000D01*
X156288309Y-89369000D01*
X156521698Y-89272327D01*
X156700327Y-89093699D01*
X156797000Y-88860310D01*
X156797000Y-88169750D01*
X156638250Y-88011000D01*
X155289000Y-88011000D01*
X155035000Y-88011000D01*
X153685750Y-88011000D01*
X153527000Y-88169750D01*
X152809440Y-88169750D01*
X152809440Y-87034000D01*
X152783826Y-86897872D01*
X152975201Y-86977338D01*
X153347167Y-86977662D01*
X153529166Y-86902462D01*
X153527000Y-86907690D01*
X153527000Y-87598250D01*
X153685750Y-87757000D01*
X155035000Y-87757000D01*
X155035000Y-86557750D01*
X155289000Y-86557750D01*
X155289000Y-87757000D01*
X156638250Y-87757000D01*
X156797000Y-87598250D01*
X156797000Y-86907690D01*
X156700327Y-86674301D01*
X156521698Y-86495673D01*
X156288309Y-86399000D01*
X155447750Y-86399000D01*
X155289000Y-86557750D01*
X155035000Y-86557750D01*
X154876250Y-86399000D01*
X154035691Y-86399000D01*
X154024436Y-86403662D01*
X154096838Y-86229299D01*
X154097162Y-85857333D01*
X153989182Y-85596000D01*
X154060037Y-85596000D01*
X154092173Y-85628192D01*
X154435701Y-85770838D01*
X154807667Y-85771162D01*
X155151443Y-85629117D01*
X155414692Y-85366327D01*
X155557338Y-85022799D01*
X155557662Y-84650833D01*
X155415617Y-84307057D01*
X155152827Y-84043808D01*
X154809299Y-83901162D01*
X154437333Y-83900838D01*
X154093557Y-84042883D01*
X154060382Y-84076000D01*
X137731500Y-84076000D01*
X137440661Y-84133852D01*
X137194099Y-84298599D01*
X135606599Y-85886099D01*
X135441852Y-86132661D01*
X135384000Y-86423500D01*
X135384000Y-87102738D01*
X135084330Y-87302971D01*
X134874000Y-87617752D01*
X134663670Y-87302971D01*
X134177489Y-86978115D01*
X133604000Y-86864041D01*
X133030511Y-86978115D01*
X132544330Y-87302971D01*
X132334000Y-87617752D01*
X132123670Y-87302971D01*
X131637489Y-86978115D01*
X131064000Y-86864041D01*
X130490511Y-86978115D01*
X130004330Y-87302971D01*
X129794000Y-87617752D01*
X129583670Y-87302971D01*
X129097489Y-86978115D01*
X128524000Y-86864041D01*
X127950511Y-86978115D01*
X127464330Y-87302971D01*
X127254000Y-87617752D01*
X127043670Y-87302971D01*
X126557489Y-86978115D01*
X125984000Y-86864041D01*
X125410511Y-86978115D01*
X124924330Y-87302971D01*
X124714000Y-87617752D01*
X124503670Y-87302971D01*
X124017489Y-86978115D01*
X123444000Y-86864041D01*
X122870511Y-86978115D01*
X122384330Y-87302971D01*
X122059474Y-87789152D01*
X121945400Y-88362641D01*
X121945400Y-88421359D01*
X122059474Y-88994848D01*
X122384330Y-89481029D01*
X122655161Y-89661992D01*
X122237179Y-90043510D01*
X121989032Y-90572973D01*
X122109531Y-90805000D01*
X123317000Y-90805000D01*
X123317000Y-90785000D01*
X123571000Y-90785000D01*
X123571000Y-90805000D01*
X123591000Y-90805000D01*
X123591000Y-91059000D01*
X123571000Y-91059000D01*
X123571000Y-92265817D01*
X123803026Y-92386958D01*
X124218947Y-92214688D01*
X124650821Y-91820490D01*
X124708336Y-91697772D01*
X124924330Y-92021029D01*
X125410511Y-92345885D01*
X125984000Y-92459959D01*
X126557489Y-92345885D01*
X127043670Y-92021029D01*
X127254000Y-91706248D01*
X127464330Y-92021029D01*
X127950511Y-92345885D01*
X128524000Y-92459959D01*
X129097489Y-92345885D01*
X129261497Y-92236299D01*
X131796599Y-94771401D01*
X132043160Y-94936148D01*
X132091414Y-94945746D01*
X132334000Y-94994000D01*
X133438938Y-94994000D01*
X133059671Y-95069441D01*
X132598211Y-95377778D01*
X132334000Y-95773199D01*
X132069789Y-95377778D01*
X131608329Y-95069441D01*
X131064000Y-94961167D01*
X130519671Y-95069441D01*
X130058211Y-95377778D01*
X129794000Y-95773199D01*
X129529789Y-95377778D01*
X129068329Y-95069441D01*
X128524000Y-94961167D01*
X127979671Y-95069441D01*
X127518211Y-95377778D01*
X127254000Y-95773199D01*
X126989789Y-95377778D01*
X126528329Y-95069441D01*
X125984000Y-94961167D01*
X125439671Y-95069441D01*
X124978211Y-95377778D01*
X124714000Y-95773199D01*
X124449789Y-95377778D01*
X123988329Y-95069441D01*
X123444000Y-94961167D01*
X122899671Y-95069441D01*
X122438211Y-95377778D01*
X122129874Y-95839238D01*
X122021600Y-96383567D01*
X122021600Y-97164433D01*
X122129874Y-97708762D01*
X122341932Y-98026130D01*
X121473500Y-97157698D01*
X121473500Y-91291027D01*
X121989032Y-91291027D01*
X122237179Y-91820490D01*
X122669053Y-92214688D01*
X123084974Y-92386958D01*
X123317000Y-92265817D01*
X123317000Y-91059000D01*
X122109531Y-91059000D01*
X121989032Y-91291027D01*
X121473500Y-91291027D01*
X121473500Y-86801802D01*
X123314302Y-84961000D01*
X129794000Y-84961000D01*
X130084839Y-84903148D01*
X130331401Y-84738401D01*
X131601401Y-83468401D01*
X131766148Y-83221840D01*
X131786503Y-83119507D01*
X132069789Y-82930222D01*
X132334000Y-82534801D01*
X132598211Y-82930222D01*
X133059671Y-83238559D01*
X133604000Y-83346833D01*
X134148329Y-83238559D01*
X134609789Y-82930222D01*
X134874000Y-82534801D01*
X135138211Y-82930222D01*
X135599671Y-83238559D01*
X136144000Y-83346833D01*
X136688329Y-83238559D01*
X137149789Y-82930222D01*
X137414000Y-82534801D01*
X137678211Y-82930222D01*
X138139671Y-83238559D01*
X138684000Y-83346833D01*
X139228329Y-83238559D01*
X139689789Y-82930222D01*
X139954000Y-82534801D01*
X140218211Y-82930222D01*
X140679671Y-83238559D01*
X141224000Y-83346833D01*
X141768329Y-83238559D01*
X142229789Y-82930222D01*
X142494000Y-82534801D01*
X142758211Y-82930222D01*
X143219671Y-83238559D01*
X143764000Y-83346833D01*
X144308329Y-83238559D01*
X144769789Y-82930222D01*
X145034000Y-82534801D01*
X145298211Y-82930222D01*
X145759671Y-83238559D01*
X146304000Y-83346833D01*
X146848329Y-83238559D01*
X147309789Y-82930222D01*
X147574000Y-82534801D01*
X147838211Y-82930222D01*
X148299671Y-83238559D01*
X148844000Y-83346833D01*
X149388329Y-83238559D01*
X149849789Y-82930222D01*
X150114000Y-82534801D01*
X150378211Y-82930222D01*
X150839671Y-83238559D01*
X151384000Y-83346833D01*
X151928329Y-83238559D01*
X152389789Y-82930222D01*
X152654000Y-82534801D01*
X152918211Y-82930222D01*
X153379671Y-83238559D01*
X153924000Y-83346833D01*
X154468329Y-83238559D01*
X154929789Y-82930222D01*
X155193754Y-82535170D01*
X155198475Y-82551262D01*
X155548014Y-82985191D01*
X156037004Y-83252327D01*
X156116940Y-83269010D01*
X156337000Y-83146852D01*
X156337000Y-81661000D01*
X156317000Y-81661000D01*
X156317000Y-81407000D01*
X156337000Y-81407000D01*
X156337000Y-79921148D01*
X156116940Y-79798990D01*
X156037004Y-79815673D01*
X155548014Y-80082809D01*
X155198475Y-80516738D01*
X155193754Y-80532830D01*
X154929789Y-80137778D01*
X154468329Y-79829441D01*
X153924000Y-79721167D01*
X153379671Y-79829441D01*
X152918211Y-80137778D01*
X152654000Y-80533199D01*
X152389789Y-80137778D01*
X151928329Y-79829441D01*
X151384000Y-79721167D01*
X150839671Y-79829441D01*
X150378211Y-80137778D01*
X150114000Y-80533199D01*
X149849789Y-80137778D01*
X149388329Y-79829441D01*
X148844000Y-79721167D01*
X148299671Y-79829441D01*
X147838211Y-80137778D01*
X147574000Y-80533199D01*
X147309789Y-80137778D01*
X146848329Y-79829441D01*
X146304000Y-79721167D01*
X145759671Y-79829441D01*
X145298211Y-80137778D01*
X145034000Y-80533199D01*
X144769789Y-80137778D01*
X144308329Y-79829441D01*
X143764000Y-79721167D01*
X143219671Y-79829441D01*
X142758211Y-80137778D01*
X142494000Y-80533199D01*
X142229789Y-80137778D01*
X141768329Y-79829441D01*
X141224000Y-79721167D01*
X140679671Y-79829441D01*
X140218211Y-80137778D01*
X139954000Y-80533199D01*
X139689789Y-80137778D01*
X139228329Y-79829441D01*
X138684000Y-79721167D01*
X138139671Y-79829441D01*
X137678211Y-80137778D01*
X137414000Y-80533199D01*
X137149789Y-80137778D01*
X136688329Y-79829441D01*
X136144000Y-79721167D01*
X135599671Y-79829441D01*
X135138211Y-80137778D01*
X134874000Y-80533199D01*
X134609789Y-80137778D01*
X134148329Y-79829441D01*
X133604000Y-79721167D01*
X133059671Y-79829441D01*
X132598211Y-80137778D01*
X132334000Y-80533199D01*
X132069789Y-80137778D01*
X131608329Y-79829441D01*
X131064000Y-79721167D01*
X130519671Y-79829441D01*
X130058211Y-80137778D01*
X129794000Y-80533199D01*
X129529789Y-80137778D01*
X129068329Y-79829441D01*
X128524000Y-79721167D01*
X127979671Y-79829441D01*
X127518211Y-80137778D01*
X127254000Y-80533199D01*
X126989789Y-80137778D01*
X126528329Y-79829441D01*
X125984000Y-79721167D01*
X125439671Y-79829441D01*
X124978211Y-80137778D01*
X124714000Y-80533199D01*
X124449789Y-80137778D01*
X123988329Y-79829441D01*
X123444000Y-79721167D01*
X122899671Y-79829441D01*
X122438211Y-80137778D01*
X122129874Y-80599238D01*
X122021600Y-81143567D01*
X122021600Y-81924433D01*
X122129874Y-82468762D01*
X122438211Y-82930222D01*
X122899671Y-83238559D01*
X123444000Y-83346833D01*
X123988329Y-83238559D01*
X124449789Y-82930222D01*
X124714000Y-82534801D01*
X124978211Y-82930222D01*
X125439671Y-83238559D01*
X125984000Y-83346833D01*
X126528329Y-83238559D01*
X126989789Y-82930222D01*
X127254000Y-82534801D01*
X127518211Y-82930222D01*
X127979671Y-83238559D01*
X128524000Y-83346833D01*
X129068329Y-83238559D01*
X129529789Y-82930222D01*
X129794000Y-82534801D01*
X130030880Y-82889318D01*
X129479198Y-83441000D01*
X122999500Y-83441000D01*
X122708660Y-83498852D01*
X122462099Y-83663599D01*
X120176099Y-85949599D01*
X120011352Y-86196161D01*
X119953500Y-86487000D01*
X119811000Y-86487000D01*
X119811000Y-78917000D01*
X161875000Y-78917000D01*
X161875000Y-115393000D01*
X161875000Y-115393000D01*
G37*
X161875000Y-115393000D02*
X119811000Y-115393000D01*
X119811000Y-106426000D01*
X121932960Y-106426000D01*
X121932960Y-108458000D01*
X121977238Y-108693317D01*
X122116310Y-108909441D01*
X122328510Y-109054431D01*
X122580400Y-109105440D01*
X124307600Y-109105440D01*
X124542917Y-109061162D01*
X124759041Y-108922090D01*
X124904031Y-108709890D01*
X124912400Y-108668561D01*
X124924330Y-108686415D01*
X125410511Y-109011271D01*
X125984000Y-109125345D01*
X126557489Y-109011271D01*
X127043670Y-108686415D01*
X127254000Y-108371634D01*
X127464330Y-108686415D01*
X127470596Y-108690602D01*
X126939198Y-109222000D01*
X124460000Y-109222000D01*
X124169161Y-109279852D01*
X123922599Y-109444599D01*
X122906599Y-110460599D01*
X122741852Y-110707161D01*
X122684000Y-110998000D01*
X122684000Y-111077352D01*
X122384330Y-111277585D01*
X122059474Y-111763766D01*
X121945400Y-112337255D01*
X121945400Y-112706745D01*
X122059474Y-113280234D01*
X122384330Y-113766415D01*
X122870511Y-114091271D01*
X123444000Y-114205345D01*
X124017489Y-114091271D01*
X124503670Y-113766415D01*
X124714000Y-113451634D01*
X124924330Y-113766415D01*
X125410511Y-114091271D01*
X125984000Y-114205345D01*
X126557489Y-114091271D01*
X127043670Y-113766415D01*
X127254000Y-113451634D01*
X127464330Y-113766415D01*
X127950511Y-114091271D01*
X128524000Y-114205345D01*
X129097489Y-114091271D01*
X129583670Y-113766415D01*
X129790461Y-113456931D01*
X130161964Y-113872732D01*
X130689209Y-114126709D01*
X130704974Y-114129358D01*
X130937000Y-114008217D01*
X130937000Y-112649000D01*
X130917000Y-112649000D01*
X130917000Y-112395000D01*
X130937000Y-112395000D01*
X130937000Y-111035783D01*
X131191000Y-111035783D01*
X131191000Y-112395000D01*
X131211000Y-112395000D01*
X131211000Y-112649000D01*
X131191000Y-112649000D01*
X131191000Y-114008217D01*
X131423026Y-114129358D01*
X131438791Y-114126709D01*
X131966036Y-113872732D01*
X132337539Y-113456931D01*
X132544330Y-113766415D01*
X133030511Y-114091271D01*
X133604000Y-114205345D01*
X134177489Y-114091271D01*
X134663670Y-113766415D01*
X134874000Y-113451634D01*
X135084330Y-113766415D01*
X135570511Y-114091271D01*
X136144000Y-114205345D01*
X136717489Y-114091271D01*
X137203670Y-113766415D01*
X137528526Y-113280234D01*
X137642600Y-112706745D01*
X137642600Y-112337255D01*
X144551400Y-112337255D01*
X144551400Y-112706745D01*
X144665474Y-113280234D01*
X144990330Y-113766415D01*
X145476511Y-114091271D01*
X146050000Y-114205345D01*
X146623489Y-114091271D01*
X147109670Y-113766415D01*
X147320000Y-113451634D01*
X147530330Y-113766415D01*
X148016511Y-114091271D01*
X148590000Y-114205345D01*
X149163489Y-114091271D01*
X149649670Y-113766415D01*
X149860000Y-113451634D01*
X150070330Y-113766415D01*
X150556511Y-114091271D01*
X151130000Y-114205345D01*
X151703489Y-114091271D01*
X152189670Y-113766415D01*
X152396461Y-113456931D01*
X152767964Y-113872732D01*
X153295209Y-114126709D01*
X153310974Y-114129358D01*
X153543000Y-114008217D01*
X153543000Y-112649000D01*
X153523000Y-112649000D01*
X153523000Y-112395000D01*
X153543000Y-112395000D01*
X153543000Y-111035783D01*
X153797000Y-111035783D01*
X153797000Y-112395000D01*
X153817000Y-112395000D01*
X153817000Y-112649000D01*
X153797000Y-112649000D01*
X153797000Y-114008217D01*
X154029026Y-114129358D01*
X154044791Y-114126709D01*
X154572036Y-113872732D01*
X154943539Y-113456931D01*
X155150330Y-113766415D01*
X155636511Y-114091271D01*
X156210000Y-114205345D01*
X156783489Y-114091271D01*
X157269670Y-113766415D01*
X157480000Y-113451634D01*
X157690330Y-113766415D01*
X158176511Y-114091271D01*
X158750000Y-114205345D01*
X159323489Y-114091271D01*
X159809670Y-113766415D01*
X160134526Y-113280234D01*
X160248600Y-112706745D01*
X160248600Y-112337255D01*
X160134526Y-111763766D01*
X159809670Y-111277585D01*
X159323489Y-110952729D01*
X158750000Y-110838655D01*
X158176511Y-110952729D01*
X157690330Y-111277585D01*
X157480000Y-111592366D01*
X157269670Y-111277585D01*
X156783489Y-110952729D01*
X156210000Y-110838655D01*
X155636511Y-110952729D01*
X155150330Y-111277585D01*
X154943539Y-111587069D01*
X154572036Y-111171268D01*
X154044791Y-110917291D01*
X154029026Y-110914642D01*
X153797000Y-111035783D01*
X153543000Y-111035783D01*
X153310974Y-110914642D01*
X153295209Y-110917291D01*
X152767964Y-111171268D01*
X152396461Y-111587069D01*
X152189670Y-111277585D01*
X151703489Y-110952729D01*
X151130000Y-110838655D01*
X150556511Y-110952729D01*
X150070330Y-111277585D01*
X149860000Y-111592366D01*
X149649670Y-111277585D01*
X149163489Y-110952729D01*
X148590000Y-110838655D01*
X148016511Y-110952729D01*
X147530330Y-111277585D01*
X147320000Y-111592366D01*
X147109670Y-111277585D01*
X146623489Y-110952729D01*
X146050000Y-110838655D01*
X145476511Y-110952729D01*
X144990330Y-111277585D01*
X144665474Y-111763766D01*
X144551400Y-112337255D01*
X137642600Y-112337255D01*
X137528526Y-111763766D01*
X137203670Y-111277585D01*
X136717489Y-110952729D01*
X136144000Y-110838655D01*
X135570511Y-110952729D01*
X135084330Y-111277585D01*
X134874000Y-111592366D01*
X134663670Y-111277585D01*
X134177489Y-110952729D01*
X133604000Y-110838655D01*
X133030511Y-110952729D01*
X132544330Y-111277585D01*
X132337539Y-111587069D01*
X131966036Y-111171268D01*
X131438791Y-110917291D01*
X131423026Y-110914642D01*
X131191000Y-111035783D01*
X130937000Y-111035783D01*
X130704974Y-110914642D01*
X130689209Y-110917291D01*
X130161964Y-111171268D01*
X129790461Y-111587069D01*
X129583670Y-111277585D01*
X129097489Y-110952729D01*
X128524000Y-110838655D01*
X127950511Y-110952729D01*
X127464330Y-111277585D01*
X127254000Y-111592366D01*
X127043670Y-111277585D01*
X126557489Y-110952729D01*
X125984000Y-110838655D01*
X125410511Y-110952729D01*
X124924330Y-111277585D01*
X124714000Y-111592366D01*
X124503670Y-111277585D01*
X124345142Y-111171660D01*
X124774802Y-110742000D01*
X127254000Y-110742000D01*
X127544839Y-110684148D01*
X127791401Y-110519401D01*
X129061401Y-109249401D01*
X129226148Y-109002840D01*
X129243935Y-108913419D01*
X129583670Y-108686415D01*
X129794000Y-108371634D01*
X130004330Y-108686415D01*
X130490511Y-109011271D01*
X131064000Y-109125345D01*
X131637489Y-109011271D01*
X132123670Y-108686415D01*
X132334000Y-108371634D01*
X132544330Y-108686415D01*
X133030511Y-109011271D01*
X133604000Y-109125345D01*
X134177489Y-109011271D01*
X134663670Y-108686415D01*
X134870461Y-108376931D01*
X135241964Y-108792732D01*
X135769209Y-109046709D01*
X135784974Y-109049358D01*
X136017000Y-108928217D01*
X136017000Y-107569000D01*
X136271000Y-107569000D01*
X136271000Y-108928217D01*
X136503026Y-109049358D01*
X136518791Y-109046709D01*
X137046036Y-108792732D01*
X137414000Y-108380892D01*
X137781964Y-108792732D01*
X138309209Y-109046709D01*
X138324974Y-109049358D01*
X138557000Y-108928217D01*
X138557000Y-107569000D01*
X136271000Y-107569000D01*
X136017000Y-107569000D01*
X135997000Y-107569000D01*
X135997000Y-107315000D01*
X136017000Y-107315000D01*
X136017000Y-105955783D01*
X136271000Y-105955783D01*
X136271000Y-107315000D01*
X138557000Y-107315000D01*
X138557000Y-105955783D01*
X138811000Y-105955783D01*
X138811000Y-107315000D01*
X138831000Y-107315000D01*
X138831000Y-107569000D01*
X138811000Y-107569000D01*
X138811000Y-108928217D01*
X139043026Y-109049358D01*
X139058791Y-109046709D01*
X139586036Y-108792732D01*
X139957539Y-108376931D01*
X140164330Y-108686415D01*
X140650511Y-109011271D01*
X141224000Y-109125345D01*
X141797489Y-109011271D01*
X142283670Y-108686415D01*
X142608526Y-108200234D01*
X142722600Y-107626745D01*
X142722600Y-107257255D01*
X142608526Y-106683766D01*
X142283670Y-106197585D01*
X141797489Y-105872729D01*
X141224000Y-105758655D01*
X140650511Y-105872729D01*
X140164330Y-106197585D01*
X139957539Y-106507069D01*
X139586036Y-106091268D01*
X139058791Y-105837291D01*
X139043026Y-105834642D01*
X138811000Y-105955783D01*
X138557000Y-105955783D01*
X138324974Y-105834642D01*
X138309209Y-105837291D01*
X137781964Y-106091268D01*
X137414000Y-106503108D01*
X137046036Y-106091268D01*
X136518791Y-105837291D01*
X136503026Y-105834642D01*
X136271000Y-105955783D01*
X136017000Y-105955783D01*
X135784974Y-105834642D01*
X135769209Y-105837291D01*
X135241964Y-106091268D01*
X134870461Y-106507069D01*
X134663670Y-106197585D01*
X134177489Y-105872729D01*
X133604000Y-105758655D01*
X133030511Y-105872729D01*
X132544330Y-106197585D01*
X132334000Y-106512366D01*
X132123670Y-106197585D01*
X131637489Y-105872729D01*
X131064000Y-105758655D01*
X130490511Y-105872729D01*
X130004330Y-106197585D01*
X129794000Y-106512366D01*
X129583670Y-106197585D01*
X129097489Y-105872729D01*
X128524000Y-105758655D01*
X127950511Y-105872729D01*
X127464330Y-106197585D01*
X127254000Y-106512366D01*
X127043670Y-106197585D01*
X126557489Y-105872729D01*
X125984000Y-105758655D01*
X125410511Y-105872729D01*
X124924330Y-106197585D01*
X124914757Y-106211913D01*
X124910762Y-106190683D01*
X124771690Y-105974559D01*
X124559490Y-105829569D01*
X124307600Y-105778560D01*
X122580400Y-105778560D01*
X122345083Y-105822838D01*
X122128959Y-105961910D01*
X121983969Y-106174110D01*
X121932960Y-106426000D01*
X119811000Y-106426000D01*
X119811000Y-86487000D01*
X119953500Y-86487000D01*
X119953500Y-97472500D01*
X120011352Y-97763339D01*
X120176099Y-98009901D01*
X122462099Y-100295901D01*
X122708660Y-100460648D01*
X122999500Y-100518500D01*
X129288698Y-100518500D01*
X129957648Y-101187450D01*
X129794000Y-101432366D01*
X129583670Y-101117585D01*
X129097489Y-100792729D01*
X128524000Y-100678655D01*
X127950511Y-100792729D01*
X127464330Y-101117585D01*
X127254000Y-101432366D01*
X127043670Y-101117585D01*
X126557489Y-100792729D01*
X125984000Y-100678655D01*
X125410511Y-100792729D01*
X124924330Y-101117585D01*
X124914757Y-101131913D01*
X124910762Y-101110683D01*
X124771690Y-100894559D01*
X124559490Y-100749569D01*
X124307600Y-100698560D01*
X122580400Y-100698560D01*
X122345083Y-100742838D01*
X122128959Y-100881910D01*
X121983969Y-101094110D01*
X121932960Y-101346000D01*
X121932960Y-103378000D01*
X121977238Y-103613317D01*
X122116310Y-103829441D01*
X122328510Y-103974431D01*
X122580400Y-104025440D01*
X124307600Y-104025440D01*
X124542917Y-103981162D01*
X124759041Y-103842090D01*
X124904031Y-103629890D01*
X124912400Y-103588561D01*
X124924330Y-103606415D01*
X125410511Y-103931271D01*
X125984000Y-104045345D01*
X126557489Y-103931271D01*
X127043670Y-103606415D01*
X127254000Y-103291634D01*
X127464330Y-103606415D01*
X127950511Y-103931271D01*
X128524000Y-104045345D01*
X129097489Y-103931271D01*
X129583670Y-103606415D01*
X129794000Y-103291634D01*
X130004330Y-103606415D01*
X130490511Y-103931271D01*
X130872439Y-104007241D01*
X131415599Y-104550401D01*
X131662161Y-104715148D01*
X131953000Y-104773000D01*
X139065000Y-104773000D01*
X139355839Y-104715148D01*
X139602401Y-104550401D01*
X142554802Y-101598000D01*
X144538960Y-101598000D01*
X144538960Y-103378000D01*
X144583238Y-103613317D01*
X144722310Y-103829441D01*
X144934510Y-103974431D01*
X145186400Y-104025440D01*
X145622638Y-104025440D01*
X146782599Y-105185401D01*
X147029160Y-105350148D01*
X147320000Y-105408000D01*
X159194500Y-105408000D01*
X159485339Y-105350148D01*
X159731901Y-105185401D01*
X161065401Y-103851901D01*
X161230148Y-103605339D01*
X161288000Y-103314500D01*
X161288000Y-95504000D01*
X161230148Y-95213161D01*
X161065401Y-94966599D01*
X158557500Y-92458698D01*
X158557500Y-84198302D01*
X159431362Y-83324440D01*
X159791400Y-83324440D01*
X160026717Y-83280162D01*
X160242841Y-83141090D01*
X160387831Y-82928890D01*
X160438840Y-82677000D01*
X160438840Y-80391000D01*
X160394562Y-80155683D01*
X160255490Y-79939559D01*
X160043290Y-79794569D01*
X159791400Y-79743560D01*
X158216600Y-79743560D01*
X157981283Y-79787838D01*
X157765159Y-79926910D01*
X157620169Y-80139110D01*
X157581029Y-80332390D01*
X157379986Y-80082809D01*
X156890996Y-79815673D01*
X156811060Y-79798990D01*
X156591000Y-79921148D01*
X156591000Y-81407000D01*
X156611000Y-81407000D01*
X156611000Y-81661000D01*
X156591000Y-81661000D01*
X156591000Y-83146852D01*
X156811060Y-83269010D01*
X156890996Y-83252327D01*
X157379986Y-82985191D01*
X157580347Y-82736456D01*
X157613438Y-82912317D01*
X157644934Y-82961264D01*
X157260099Y-83346099D01*
X157095352Y-83592661D01*
X157037500Y-83883500D01*
X157037500Y-92773500D01*
X157095352Y-93064339D01*
X157260099Y-93310901D01*
X158925900Y-94976702D01*
X158459671Y-95069441D01*
X157998211Y-95377778D01*
X157734000Y-95773199D01*
X157469789Y-95377778D01*
X157008329Y-95069441D01*
X156464000Y-94961167D01*
X155919671Y-95069441D01*
X155458211Y-95377778D01*
X155194000Y-95773199D01*
X154929789Y-95377778D01*
X154468329Y-95069441D01*
X153924000Y-94961167D01*
X153379671Y-95069441D01*
X152918211Y-95377778D01*
X152654000Y-95773199D01*
X152389789Y-95377778D01*
X151928329Y-95069441D01*
X151384000Y-94961167D01*
X150874000Y-95062613D01*
X150874000Y-93980000D01*
X150816148Y-93689161D01*
X150816148Y-93689160D01*
X150651401Y-93442599D01*
X150142241Y-92933439D01*
X150162000Y-92937440D01*
X152162000Y-92937440D01*
X152397317Y-92893162D01*
X152613441Y-92754090D01*
X152758431Y-92541890D01*
X152809440Y-92290000D01*
X152809440Y-91725750D01*
X153527000Y-91725750D01*
X153527000Y-92416310D01*
X153623673Y-92649699D01*
X153802302Y-92828327D01*
X154035691Y-92925000D01*
X154876250Y-92925000D01*
X155035000Y-92766250D01*
X155035000Y-91567000D01*
X155289000Y-91567000D01*
X155289000Y-92766250D01*
X155447750Y-92925000D01*
X156288309Y-92925000D01*
X156521698Y-92828327D01*
X156700327Y-92649699D01*
X156797000Y-92416310D01*
X156797000Y-91725750D01*
X156638250Y-91567000D01*
X155289000Y-91567000D01*
X155035000Y-91567000D01*
X153685750Y-91567000D01*
X153527000Y-91725750D01*
X152809440Y-91725750D01*
X152809440Y-90590000D01*
X152785674Y-90463690D01*
X153527000Y-90463690D01*
X153527000Y-91154250D01*
X153685750Y-91313000D01*
X155035000Y-91313000D01*
X155035000Y-90113750D01*
X155289000Y-90113750D01*
X155289000Y-91313000D01*
X156638250Y-91313000D01*
X156797000Y-91154250D01*
X156797000Y-90463690D01*
X156700327Y-90230301D01*
X156521698Y-90051673D01*
X156288309Y-89955000D01*
X155447750Y-89955000D01*
X155289000Y-90113750D01*
X155035000Y-90113750D01*
X154876250Y-89955000D01*
X154035691Y-89955000D01*
X153802302Y-90051673D01*
X153623673Y-90230301D01*
X153527000Y-90463690D01*
X152785674Y-90463690D01*
X152765162Y-90354683D01*
X152626090Y-90138559D01*
X152413890Y-89993569D01*
X152162000Y-89942560D01*
X150162000Y-89942560D01*
X149926683Y-89986838D01*
X149710559Y-90125910D01*
X149565569Y-90338110D01*
X149514560Y-90590000D01*
X149514560Y-90680000D01*
X147828000Y-90680000D01*
X147537160Y-90737852D01*
X147290599Y-90902599D01*
X146243198Y-91950000D01*
X145250964Y-91950000D01*
X145262600Y-91921909D01*
X145262600Y-91217750D01*
X145103850Y-91059000D01*
X143891000Y-91059000D01*
X143891000Y-91079000D01*
X143637000Y-91079000D01*
X143637000Y-91059000D01*
X143617000Y-91059000D01*
X143617000Y-90805000D01*
X143637000Y-90805000D01*
X143637000Y-90785000D01*
X143891000Y-90785000D01*
X143891000Y-90805000D01*
X145103850Y-90805000D01*
X145262600Y-90646250D01*
X145262600Y-90422000D01*
X146304000Y-90422000D01*
X146594839Y-90364148D01*
X146841401Y-90199401D01*
X148396802Y-88644000D01*
X149514560Y-88644000D01*
X149514560Y-88734000D01*
X149558838Y-88969317D01*
X149697910Y-89185441D01*
X149910110Y-89330431D01*
X150162000Y-89381440D01*
X152162000Y-89381440D01*
X152397317Y-89337162D01*
X152613441Y-89198090D01*
X152758431Y-88985890D01*
X152809440Y-88734000D01*
X152809440Y-88169750D01*
X153527000Y-88169750D01*
X153527000Y-88860310D01*
X153623673Y-89093699D01*
X153802302Y-89272327D01*
X154035691Y-89369000D01*
X154876250Y-89369000D01*
X155035000Y-89210250D01*
X155035000Y-88011000D01*
X155289000Y-88011000D01*
X155289000Y-89210250D01*
X155447750Y-89369000D01*
X156288309Y-89369000D01*
X156521698Y-89272327D01*
X156700327Y-89093699D01*
X156797000Y-88860310D01*
X156797000Y-88169750D01*
X156638250Y-88011000D01*
X155289000Y-88011000D01*
X155035000Y-88011000D01*
X153685750Y-88011000D01*
X153527000Y-88169750D01*
X152809440Y-88169750D01*
X152809440Y-87034000D01*
X152783826Y-86897872D01*
X152975201Y-86977338D01*
X153347167Y-86977662D01*
X153529166Y-86902462D01*
X153527000Y-86907690D01*
X153527000Y-87598250D01*
X153685750Y-87757000D01*
X155035000Y-87757000D01*
X155035000Y-86557750D01*
X155289000Y-86557750D01*
X155289000Y-87757000D01*
X156638250Y-87757000D01*
X156797000Y-87598250D01*
X156797000Y-86907690D01*
X156700327Y-86674301D01*
X156521698Y-86495673D01*
X156288309Y-86399000D01*
X155447750Y-86399000D01*
X155289000Y-86557750D01*
X155035000Y-86557750D01*
X154876250Y-86399000D01*
X154035691Y-86399000D01*
X154024436Y-86403662D01*
X154096838Y-86229299D01*
X154097162Y-85857333D01*
X153989182Y-85596000D01*
X154060037Y-85596000D01*
X154092173Y-85628192D01*
X154435701Y-85770838D01*
X154807667Y-85771162D01*
X155151443Y-85629117D01*
X155414692Y-85366327D01*
X155557338Y-85022799D01*
X155557662Y-84650833D01*
X155415617Y-84307057D01*
X155152827Y-84043808D01*
X154809299Y-83901162D01*
X154437333Y-83900838D01*
X154093557Y-84042883D01*
X154060382Y-84076000D01*
X137731500Y-84076000D01*
X137440661Y-84133852D01*
X137194099Y-84298599D01*
X135606599Y-85886099D01*
X135441852Y-86132661D01*
X135384000Y-86423500D01*
X135384000Y-87102738D01*
X135084330Y-87302971D01*
X134874000Y-87617752D01*
X134663670Y-87302971D01*
X134177489Y-86978115D01*
X133604000Y-86864041D01*
X133030511Y-86978115D01*
X132544330Y-87302971D01*
X132334000Y-87617752D01*
X132123670Y-87302971D01*
X131637489Y-86978115D01*
X131064000Y-86864041D01*
X130490511Y-86978115D01*
X130004330Y-87302971D01*
X129794000Y-87617752D01*
X129583670Y-87302971D01*
X129097489Y-86978115D01*
X128524000Y-86864041D01*
X127950511Y-86978115D01*
X127464330Y-87302971D01*
X127254000Y-87617752D01*
X127043670Y-87302971D01*
X126557489Y-86978115D01*
X125984000Y-86864041D01*
X125410511Y-86978115D01*
X124924330Y-87302971D01*
X124714000Y-87617752D01*
X124503670Y-87302971D01*
X124017489Y-86978115D01*
X123444000Y-86864041D01*
X122870511Y-86978115D01*
X122384330Y-87302971D01*
X122059474Y-87789152D01*
X121945400Y-88362641D01*
X121945400Y-88421359D01*
X122059474Y-88994848D01*
X122384330Y-89481029D01*
X122655161Y-89661992D01*
X122237179Y-90043510D01*
X121989032Y-90572973D01*
X122109531Y-90805000D01*
X123317000Y-90805000D01*
X123317000Y-90785000D01*
X123571000Y-90785000D01*
X123571000Y-90805000D01*
X123591000Y-90805000D01*
X123591000Y-91059000D01*
X123571000Y-91059000D01*
X123571000Y-92265817D01*
X123803026Y-92386958D01*
X124218947Y-92214688D01*
X124650821Y-91820490D01*
X124708336Y-91697772D01*
X124924330Y-92021029D01*
X125410511Y-92345885D01*
X125984000Y-92459959D01*
X126557489Y-92345885D01*
X127043670Y-92021029D01*
X127254000Y-91706248D01*
X127464330Y-92021029D01*
X127950511Y-92345885D01*
X128524000Y-92459959D01*
X129097489Y-92345885D01*
X129261497Y-92236299D01*
X131796599Y-94771401D01*
X132043160Y-94936148D01*
X132091414Y-94945746D01*
X132334000Y-94994000D01*
X133438938Y-94994000D01*
X133059671Y-95069441D01*
X132598211Y-95377778D01*
X132334000Y-95773199D01*
X132069789Y-95377778D01*
X131608329Y-95069441D01*
X131064000Y-94961167D01*
X130519671Y-95069441D01*
X130058211Y-95377778D01*
X129794000Y-95773199D01*
X129529789Y-95377778D01*
X129068329Y-95069441D01*
X128524000Y-94961167D01*
X127979671Y-95069441D01*
X127518211Y-95377778D01*
X127254000Y-95773199D01*
X126989789Y-95377778D01*
X126528329Y-95069441D01*
X125984000Y-94961167D01*
X125439671Y-95069441D01*
X124978211Y-95377778D01*
X124714000Y-95773199D01*
X124449789Y-95377778D01*
X123988329Y-95069441D01*
X123444000Y-94961167D01*
X122899671Y-95069441D01*
X122438211Y-95377778D01*
X122129874Y-95839238D01*
X122021600Y-96383567D01*
X122021600Y-97164433D01*
X122129874Y-97708762D01*
X122341932Y-98026130D01*
X121473500Y-97157698D01*
X121473500Y-91291027D01*
X121989032Y-91291027D01*
X122237179Y-91820490D01*
X122669053Y-92214688D01*
X123084974Y-92386958D01*
X123317000Y-92265817D01*
X123317000Y-91059000D01*
X122109531Y-91059000D01*
X121989032Y-91291027D01*
X121473500Y-91291027D01*
X121473500Y-86801802D01*
X123314302Y-84961000D01*
X129794000Y-84961000D01*
X130084839Y-84903148D01*
X130331401Y-84738401D01*
X131601401Y-83468401D01*
X131766148Y-83221840D01*
X131786503Y-83119507D01*
X132069789Y-82930222D01*
X132334000Y-82534801D01*
X132598211Y-82930222D01*
X133059671Y-83238559D01*
X133604000Y-83346833D01*
X134148329Y-83238559D01*
X134609789Y-82930222D01*
X134874000Y-82534801D01*
X135138211Y-82930222D01*
X135599671Y-83238559D01*
X136144000Y-83346833D01*
X136688329Y-83238559D01*
X137149789Y-82930222D01*
X137414000Y-82534801D01*
X137678211Y-82930222D01*
X138139671Y-83238559D01*
X138684000Y-83346833D01*
X139228329Y-83238559D01*
X139689789Y-82930222D01*
X139954000Y-82534801D01*
X140218211Y-82930222D01*
X140679671Y-83238559D01*
X141224000Y-83346833D01*
X141768329Y-83238559D01*
X142229789Y-82930222D01*
X142494000Y-82534801D01*
X142758211Y-82930222D01*
X143219671Y-83238559D01*
X143764000Y-83346833D01*
X144308329Y-83238559D01*
X144769789Y-82930222D01*
X145034000Y-82534801D01*
X145298211Y-82930222D01*
X145759671Y-83238559D01*
X146304000Y-83346833D01*
X146848329Y-83238559D01*
X147309789Y-82930222D01*
X147574000Y-82534801D01*
X147838211Y-82930222D01*
X148299671Y-83238559D01*
X148844000Y-83346833D01*
X149388329Y-83238559D01*
X149849789Y-82930222D01*
X150114000Y-82534801D01*
X150378211Y-82930222D01*
X150839671Y-83238559D01*
X151384000Y-83346833D01*
X151928329Y-83238559D01*
X152389789Y-82930222D01*
X152654000Y-82534801D01*
X152918211Y-82930222D01*
X153379671Y-83238559D01*
X153924000Y-83346833D01*
X154468329Y-83238559D01*
X154929789Y-82930222D01*
X155193754Y-82535170D01*
X155198475Y-82551262D01*
X155548014Y-82985191D01*
X156037004Y-83252327D01*
X156116940Y-83269010D01*
X156337000Y-83146852D01*
X156337000Y-81661000D01*
X156317000Y-81661000D01*
X156317000Y-81407000D01*
X156337000Y-81407000D01*
X156337000Y-79921148D01*
X156116940Y-79798990D01*
X156037004Y-79815673D01*
X155548014Y-80082809D01*
X155198475Y-80516738D01*
X155193754Y-80532830D01*
X154929789Y-80137778D01*
X154468329Y-79829441D01*
X153924000Y-79721167D01*
X153379671Y-79829441D01*
X152918211Y-80137778D01*
X152654000Y-80533199D01*
X152389789Y-80137778D01*
X151928329Y-79829441D01*
X151384000Y-79721167D01*
X150839671Y-79829441D01*
X150378211Y-80137778D01*
X150114000Y-80533199D01*
X149849789Y-80137778D01*
X149388329Y-79829441D01*
X148844000Y-79721167D01*
X148299671Y-79829441D01*
X147838211Y-80137778D01*
X147574000Y-80533199D01*
X147309789Y-80137778D01*
X146848329Y-79829441D01*
X146304000Y-79721167D01*
X145759671Y-79829441D01*
X145298211Y-80137778D01*
X145034000Y-80533199D01*
X144769789Y-80137778D01*
X144308329Y-79829441D01*
X143764000Y-79721167D01*
X143219671Y-79829441D01*
X142758211Y-80137778D01*
X142494000Y-80533199D01*
X142229789Y-80137778D01*
X141768329Y-79829441D01*
X141224000Y-79721167D01*
X140679671Y-79829441D01*
X140218211Y-80137778D01*
X139954000Y-80533199D01*
X139689789Y-80137778D01*
X139228329Y-79829441D01*
X138684000Y-79721167D01*
X138139671Y-79829441D01*
X137678211Y-80137778D01*
X137414000Y-80533199D01*
X137149789Y-80137778D01*
X136688329Y-79829441D01*
X136144000Y-79721167D01*
X135599671Y-79829441D01*
X135138211Y-80137778D01*
X134874000Y-80533199D01*
X134609789Y-80137778D01*
X134148329Y-79829441D01*
X133604000Y-79721167D01*
X133059671Y-79829441D01*
X132598211Y-80137778D01*
X132334000Y-80533199D01*
X132069789Y-80137778D01*
X131608329Y-79829441D01*
X131064000Y-79721167D01*
X130519671Y-79829441D01*
X130058211Y-80137778D01*
X129794000Y-80533199D01*
X129529789Y-80137778D01*
X129068329Y-79829441D01*
X128524000Y-79721167D01*
X127979671Y-79829441D01*
X127518211Y-80137778D01*
X127254000Y-80533199D01*
X126989789Y-80137778D01*
X126528329Y-79829441D01*
X125984000Y-79721167D01*
X125439671Y-79829441D01*
X124978211Y-80137778D01*
X124714000Y-80533199D01*
X124449789Y-80137778D01*
X123988329Y-79829441D01*
X123444000Y-79721167D01*
X122899671Y-79829441D01*
X122438211Y-80137778D01*
X122129874Y-80599238D01*
X122021600Y-81143567D01*
X122021600Y-81924433D01*
X122129874Y-82468762D01*
X122438211Y-82930222D01*
X122899671Y-83238559D01*
X123444000Y-83346833D01*
X123988329Y-83238559D01*
X124449789Y-82930222D01*
X124714000Y-82534801D01*
X124978211Y-82930222D01*
X125439671Y-83238559D01*
X125984000Y-83346833D01*
X126528329Y-83238559D01*
X126989789Y-82930222D01*
X127254000Y-82534801D01*
X127518211Y-82930222D01*
X127979671Y-83238559D01*
X128524000Y-83346833D01*
X129068329Y-83238559D01*
X129529789Y-82930222D01*
X129794000Y-82534801D01*
X130030880Y-82889318D01*
X129479198Y-83441000D01*
X122999500Y-83441000D01*
X122708660Y-83498852D01*
X122462099Y-83663599D01*
X120176099Y-85949599D01*
X120011352Y-86196161D01*
X119953500Y-86487000D01*
X119811000Y-86487000D01*
X119811000Y-78917000D01*
X161875000Y-78917000D01*
X161875000Y-115393000D01*
M02*
